<svg width="21" height="20" viewBox="0 0 21 20" fill="none" xmlns="http://www.w3.org/2000/svg">
<path d="M1.26504 0.461309L19.691 9.54051C19.7915 9.59003 19.8761 9.66668 19.9353 9.7618C19.9945 9.85691 20.0258 9.96669 20.0258 10.0787C20.0258 10.1907 19.9945 10.3005 19.9353 10.3956C19.8761 10.4907 19.7915 10.5674 19.691 10.6169L1.26384 19.6961C1.16061 19.7468 1.04497 19.7668 0.930707 19.7537C0.816443 19.7405 0.708366 19.6948 0.619348 19.622C0.530329 19.5491 0.46412 19.4522 0.428607 19.3428C0.393094 19.2334 0.389773 19.1161 0.419039 19.0049L2.24424 12.1109C2.27383 11.9994 2.33496 11.8987 2.42031 11.821C2.50566 11.7433 2.6116 11.6919 2.72544 11.6729L10.9826 10.2965C11.0318 10.2884 11.0782 10.2681 11.1176 10.2375C11.157 10.2069 11.1882 10.167 11.2082 10.1213L11.2298 10.0493C11.241 9.98258 11.2294 9.91402 11.1967 9.85476C11.164 9.79551 11.1123 9.74904 11.0498 9.72291L10.9826 9.70371L2.67984 8.32011C2.56622 8.3009 2.46053 8.24939 2.37541 8.17171C2.29029 8.09404 2.22934 7.9935 2.19984 7.88211L0.419039 1.15371C0.389468 1.0424 0.39256 0.924925 0.427944 0.815322C0.463329 0.705718 0.529511 0.608616 0.618589 0.535608C0.707666 0.4626 0.815873 0.416772 0.930291 0.403597C1.04471 0.390422 1.1605 0.410457 1.26384 0.461309H1.26504Z" fill="white"/>
</svg>
