<svg width="24" height="26" viewBox="0 0 24 26" fill="none" xmlns="http://www.w3.org/2000/svg">
<path d="M22.756 5.25685C22.8954 5.37148 23.0076 5.51561 23.0845 5.67886C23.1614 5.84211 23.2011 6.02039 23.2008 6.20085C23.2017 6.35783 23.171 6.51339 23.1105 6.65825C23.0501 6.80311 22.9611 6.93432 22.8488 7.04405L18.036 11.8505C17.811 12.0752 17.506 12.2014 17.188 12.2014C16.87 12.2014 16.565 12.0752 16.34 11.8505C16.2283 11.7393 16.1398 11.6071 16.0793 11.4616C16.0188 11.3161 15.9877 11.16 15.9877 11.0025C15.9877 10.8449 16.0188 10.6888 16.0793 10.5433C16.1398 10.3978 16.2283 10.2657 16.34 10.1545L19.1112 7.40085H2.0008C1.68254 7.40085 1.37732 7.27443 1.15227 7.04938C0.927229 6.82434 0.800801 6.51911 0.800801 6.20085C0.800801 5.88259 0.927229 5.57737 1.15227 5.35233C1.37732 5.12728 1.68254 5.00085 2.0008 5.00085H19.0952L16.3464 2.24565C16.235 2.13448 16.1466 2.00243 16.0863 1.85706C16.026 1.71168 15.9949 1.55584 15.9949 1.39845C15.9949 1.24106 16.026 1.08522 16.0863 0.939844C16.1466 0.794468 16.235 0.662418 16.3464 0.55125C16.5714 0.32653 16.8764 0.200308 17.1944 0.200308C17.5124 0.200308 17.8174 0.32653 18.0424 0.55125L22.756 5.25845V5.25685ZM1.2456 18.8569C1.10622 18.9715 0.994018 19.1156 0.917098 19.2789C0.840179 19.4421 0.800457 19.6204 0.800801 19.8009C0.799885 19.9578 0.830579 20.1134 0.891054 20.2583C0.951528 20.4031 1.04055 20.5343 1.1528 20.6441L5.9656 25.4489C6.1906 25.6736 6.4956 25.7998 6.8136 25.7998C7.1316 25.7998 7.4366 25.6736 7.6616 25.4489C7.77326 25.3377 7.86185 25.2055 7.9223 25.06C7.98276 24.9145 8.01387 24.7584 8.01387 24.6009C8.01387 24.4433 7.98276 24.2873 7.9223 24.1417C7.86185 23.9962 7.77326 23.8641 7.6616 23.7529L4.892 21.0009H22.0008C22.3191 21.0009 22.6243 20.8744 22.8493 20.6494C23.0744 20.4243 23.2008 20.1191 23.2008 19.8009C23.2008 19.4826 23.0744 19.1774 22.8493 18.9523C22.6243 18.7273 22.3191 18.6009 22.0008 18.6009H4.9064L7.6552 15.8457C7.76661 15.7345 7.85501 15.6024 7.91532 15.4571C7.97563 15.3117 8.00667 15.1558 8.00667 14.9985C8.00667 14.8411 7.97563 14.6852 7.91532 14.5399C7.85501 14.3945 7.76661 14.2624 7.6552 14.1513C7.4302 13.9265 7.1252 13.8003 6.8072 13.8003C6.4892 13.8003 6.1842 13.9265 5.9592 14.1513L1.244 18.8585L1.2456 18.8569Z" fill="#DBD3EB"/>
</svg>
