<svg width="24" height="26" viewBox="0 0 24 26" fill="none" xmlns="http://www.w3.org/2000/svg">
<path d="M15.9204 22.6032C15.7368 23.5074 15.2462 24.3203 14.5318 24.9043C13.8174 25.4882 12.9231 25.8072 12.0004 25.8072C11.0777 25.8072 10.1834 25.4882 9.469 24.9043C8.75459 24.3203 8.26402 23.5074 8.08041 22.6032H15.9204ZM11.9972 0.199951C17.0356 0.199951 21.1876 3.93595 21.5716 8.76795L21.5924 9.12475L21.6004 9.48315L21.5988 15.2528L23.1252 19.392L23.1652 19.528L23.1908 19.6656L23.1988 19.808C23.1988 20.312 22.8852 20.752 22.3636 20.9392L22.1812 20.992L21.9988 21.008H2.00201C1.86052 21.0075 1.72023 20.9821 1.58761 20.9328C1.12841 20.7648 0.826006 20.3376 0.816406 19.7872L0.822806 19.6L0.877206 19.392L2.39721 15.2576L2.40041 9.46875L2.40681 9.10875C2.60361 4.12155 6.83401 0.199951 11.9972 0.199951Z" fill="#DBD3EB"/>
</svg>
