<svg width="24" height="24" viewBox="0 0 24 24" fill="none" xmlns="http://www.w3.org/2000/svg">
<path d="M0.799805 3.20005C0.799805 2.56353 1.05266 1.95308 1.50275 1.50299C1.95284 1.05291 2.56329 0.800049 3.1998 0.800049H19.1998C19.8363 0.800049 20.4468 1.05291 20.8969 1.50299C21.347 1.95308 21.5998 2.56353 21.5998 3.20005V4.13605C22.0679 4.30156 22.4732 4.60818 22.7598 5.01366C23.0463 5.41915 23.2001 5.90353 23.1998 6.40005V20.8001C23.1998 21.4366 22.9469 22.047 22.4969 22.4971C22.0468 22.9472 21.4363 23.2001 20.7998 23.2001H4.79981C3.73894 23.2001 2.72152 22.7786 1.97138 22.0285C1.22123 21.2783 0.799805 20.2609 0.799805 19.2001V3.20005ZM2.3998 3.20005C2.3998 3.41222 2.48409 3.61571 2.63412 3.76573C2.78415 3.91576 2.98763 4.00005 3.1998 4.00005H19.9998V3.20005C19.9998 2.98788 19.9155 2.78439 19.7655 2.63436C19.6155 2.48433 19.412 2.40005 19.1998 2.40005H3.1998C2.98763 2.40005 2.78415 2.48433 2.63412 2.63436C2.48409 2.78439 2.3998 2.98788 2.3998 3.20005ZM19.1998 13.6H17.5998C17.3876 13.6 17.1841 13.6843 17.0341 13.8344C16.8841 13.9844 16.7998 14.1879 16.7998 14.4001C16.7998 14.6122 16.8841 14.8157 17.0341 14.9657C17.1841 15.1158 17.3876 15.2001 17.5998 15.2001H19.1998C19.412 15.2001 19.6155 15.1158 19.7655 14.9657C19.9155 14.8157 19.9998 14.6122 19.9998 14.4001C19.9998 14.1879 19.9155 13.9844 19.7655 13.8344C19.6155 13.6843 19.412 13.6 19.1998 13.6Z" fill="#DBD3EB"/>
</svg>
