<svg width="820" height="624" viewBox="0 0 820 624" fill="none" xmlns="http://www.w3.org/2000/svg">
<g clip-path="url(#clip0_18_904)">
<path d="M291.706 259.973C291.365 259.972 291.038 259.843 290.789 259.611C290.54 259.378 290.388 259.06 290.365 258.721C289.485 246.761 284.122 235.575 275.35 227.401C266.577 219.227 255.042 214.668 243.053 214.635C241.618 214.635 240.111 214.708 238.573 214.852C238.316 214.876 238.057 214.826 237.828 214.707C237.598 214.588 237.408 214.405 237.28 214.181C231.772 204.54 223.548 196.734 213.633 191.738C203.718 186.741 192.552 184.777 181.528 186.088C170.504 187.399 160.109 191.929 151.643 199.112C143.176 206.294 137.012 215.812 133.919 226.477C133.838 226.762 133.663 227.013 133.424 227.189C133.184 227.365 132.893 227.456 132.596 227.448L132.238 227.437C132.052 227.431 131.866 227.424 131.678 227.424C122.584 227.453 113.774 230.59 106.708 236.316C99.6423 242.042 94.7464 250.012 92.8327 258.904C92.769 259.206 92.6033 259.478 92.3636 259.672C92.1238 259.867 91.8244 259.973 91.5157 259.973H1.34626C0.989922 259.972 0.648501 259.83 0.396862 259.577C0.145223 259.325 0.00390625 258.983 0.00390625 258.627C0.00390625 258.27 0.145223 257.928 0.396862 257.676C0.648501 257.424 0.989922 257.281 1.34626 257.28H90.4385C92.6814 248.032 97.9569 239.801 105.423 233.901C112.89 228.002 122.117 224.773 131.632 224.732C135.019 213.773 141.515 204.033 150.332 196.697C159.148 189.36 169.905 184.742 181.296 183.404C192.686 182.066 204.22 184.066 214.496 189.159C224.772 194.253 233.348 202.222 239.182 212.098C240.506 211.995 241.804 211.943 243.053 211.943C255.723 211.977 267.913 216.796 277.183 225.434C286.453 234.073 292.12 245.894 293.05 258.532C293.062 258.709 293.04 258.886 292.984 259.053C292.928 259.221 292.839 259.376 292.723 259.51C292.607 259.643 292.466 259.752 292.308 259.831C292.15 259.91 291.978 259.957 291.801 259.969C291.769 259.972 291.737 259.973 291.706 259.973Z" fill="#CBCBCB"/>
<path d="M275.69 277.233H54.9592C54.6022 277.233 54.2599 277.092 54.0075 276.839C53.7551 276.587 53.6133 276.244 53.6133 275.887C53.6133 275.53 53.7551 275.188 54.0075 274.935C54.2599 274.683 54.6022 274.541 54.9592 274.541H275.69C276.047 274.541 276.39 274.683 276.642 274.935C276.895 275.188 277.036 275.53 277.036 275.887C277.036 276.244 276.895 276.587 276.642 276.839C276.39 277.092 276.047 277.233 275.69 277.233Z" fill="#CBCBCB"/>
<path d="M108.797 296.753H34.7714C34.5943 296.753 34.4189 296.719 34.2552 296.652C34.0915 296.584 33.9427 296.485 33.8173 296.36C33.692 296.235 33.5925 296.086 33.5247 295.923C33.4568 295.759 33.4219 295.584 33.4219 295.407C33.4219 295.23 33.4568 295.054 33.5247 294.891C33.5925 294.727 33.692 294.579 33.8173 294.454C33.9427 294.329 34.0915 294.229 34.2552 294.162C34.4189 294.095 34.5943 294.06 34.7714 294.061H108.797C109.153 294.061 109.495 294.204 109.746 294.456C109.998 294.708 110.139 295.05 110.139 295.407C110.139 295.763 109.998 296.105 109.746 296.357C109.495 296.61 109.153 296.752 108.797 296.753Z" fill="#CBCBCB"/>
<path d="M178.008 443.908C178.008 498.637 120.642 524.825 120.642 524.825C120.642 524.825 62.6869 498.637 61.5102 443.908C60.8185 411.739 87.5891 385.648 119.759 385.648C127.408 385.648 134.983 387.155 142.05 390.082C149.117 393.01 155.538 397.302 160.947 402.712C166.356 408.122 170.647 414.544 173.574 421.613C176.501 428.681 178.008 436.257 178.008 443.908Z" fill="#E5E5E5"/>
<path d="M140.058 528.062H101.225L96.5176 509.23H144.764L140.058 528.062Z" fill="#CBCBCB"/>
<path d="M138.734 560.267H102.549V579.128H138.734V560.267Z" fill="white"/>
<path d="M139.028 579.422H102.255V559.973H139.028V579.422ZM102.843 578.833H138.44V560.561H102.843V578.833Z" fill="#CBCBCB"/>
<path d="M128.058 530.283H113.224L111.521 527.607H129.761L128.058 530.283Z" fill="#CBCBCB"/>
<path d="M102.108 528.062H101.52V556.898H102.108V528.062Z" fill="#CBCBCB"/>
<path d="M139.763 528.062H139.175V556.898H139.763V528.062Z" fill="#CBCBCB"/>
<path d="M126.539 508.911L126.18 508.445C143.177 495.335 163.439 472.874 163.439 440.327C163.453 428.927 160.101 417.777 153.804 408.276C147.507 398.774 138.545 391.343 128.043 386.916L128.272 386.374C138.881 390.846 147.934 398.352 154.295 407.95C160.655 417.549 164.041 428.811 164.027 440.327C164.027 473.114 143.641 495.72 126.539 508.911Z" fill="#CBCBCB"/>
<path d="M107.711 508.911L107.352 508.445C124.349 495.335 144.611 472.875 144.611 440.327C144.616 429.004 141.304 417.928 135.085 408.466C128.866 399.005 120.013 391.573 109.618 387.088L109.851 386.548C120.352 391.078 129.295 398.586 135.577 408.143C141.859 417.7 145.204 428.889 145.2 440.327C145.2 473.114 124.813 495.72 107.711 508.911Z" fill="#CBCBCB"/>
<path d="M131.807 508.911C114.705 495.72 94.3184 473.114 94.3184 440.327C94.3137 428.889 97.659 417.7 103.941 408.143C110.223 398.585 119.167 391.078 129.667 386.548L129.9 387.088C119.505 391.573 110.652 399.005 104.433 408.466C98.2138 417.927 94.9021 429.004 94.9067 440.327C94.9067 472.875 115.169 495.335 132.166 508.445L131.807 508.911Z" fill="#CBCBCB"/>
<path d="M112.979 508.911C95.8768 495.72 75.4903 473.114 75.4903 440.327C75.4711 428.766 78.8808 417.46 85.288 407.838C91.6951 398.216 100.812 390.711 111.484 386.273L111.711 386.817C101.146 391.21 92.1207 398.639 85.7779 408.164C79.4351 417.689 76.0596 428.882 76.0786 440.327C76.0786 472.875 96.3406 495.335 113.338 508.445L112.979 508.911Z" fill="#CBCBCB"/>
<path d="M120.053 385.648H119.465V509.23H120.053V385.648Z" fill="#CBCBCB"/>
<path d="M113.13 555.991L102.341 566.782L102.757 567.198L113.546 556.407L113.13 555.991Z" fill="#CBCBCB"/>
<path d="M118.375 555.811L102.337 572.682L102.763 573.088L118.801 556.217L118.375 555.811Z" fill="#CBCBCB"/>
<path d="M142.117 556.015H97.9893V561.311H142.117V556.015Z" fill="white"/>
<path d="M142.412 561.606H97.6953V555.721H142.412V561.606ZM98.2837 561.017H141.823V556.309H98.2837V561.017Z" fill="#CBCBCB"/>
<path d="M335.902 339.454C335.902 375.578 298.038 392.863 298.038 392.863C298.038 392.863 259.785 375.578 259.009 339.454C258.552 318.221 276.222 301 297.455 301C307.652 301 317.431 305.051 324.641 312.263C331.852 319.475 335.902 329.256 335.902 339.454Z" fill="#E5E5E5"/>
<path d="M310.855 394.999H285.224L282.117 382.57H313.962L310.855 394.999Z" fill="#CBCBCB"/>
<path d="M309.981 416.256H286.098V428.705H309.981V416.256Z" fill="white"/>
<path d="M310.174 428.899H285.902V416.062H310.174V428.899ZM286.291 428.511H309.786V416.451H286.291V428.511Z" fill="#CBCBCB"/>
<path d="M302.935 396.465H293.143L292.02 394.699H304.058L302.935 396.465Z" fill="#CBCBCB"/>
<path d="M285.806 395H285.418V414.032H285.806V395Z" fill="#CBCBCB"/>
<path d="M310.662 395H310.273V414.032H310.662V395Z" fill="#CBCBCB"/>
<path d="M301.932 382.359L301.695 382.052C312.914 373.398 326.288 358.574 326.288 337.09C326.297 329.566 324.085 322.207 319.928 315.935C315.772 309.664 309.857 304.759 302.925 301.837L303.076 301.479C310.079 304.431 316.054 309.386 320.252 315.721C324.451 322.056 326.686 329.49 326.676 337.09C326.676 358.731 313.221 373.653 301.932 382.359Z" fill="#CBCBCB"/>
<path d="M289.503 382.36L289.266 382.052C300.485 373.398 313.859 358.574 313.859 337.091C313.862 329.617 311.676 322.306 307.571 316.061C303.466 309.816 297.623 304.911 290.762 301.951L290.916 301.594C297.846 304.584 303.749 309.54 307.896 315.848C312.042 322.156 314.25 329.541 314.247 337.091C314.247 358.732 300.791 373.653 289.503 382.36Z" fill="#CBCBCB"/>
<path d="M305.408 382.359C294.12 373.653 280.664 358.731 280.664 337.09C280.661 329.541 282.869 322.156 287.015 315.848C291.162 309.539 297.065 304.584 303.996 301.594L304.15 301.951C297.289 304.911 291.445 309.816 287.34 316.061C283.235 322.306 281.049 329.617 281.052 337.09C281.052 358.574 294.426 373.398 305.645 382.052L305.408 382.359Z" fill="#CBCBCB"/>
<path d="M292.982 382.359C281.694 373.653 268.238 358.732 268.238 337.091C268.226 329.46 270.476 321.997 274.705 315.647C278.934 309.296 284.952 304.342 291.996 301.413L292.146 301.772C285.172 304.671 279.215 309.575 275.029 315.862C270.842 322.149 268.614 329.537 268.627 337.091C268.627 358.574 282 373.398 293.22 382.052L292.982 382.359Z" fill="#CBCBCB"/>
<path d="M297.65 301H297.262V382.57H297.65V301Z" fill="#CBCBCB"/>
<path d="M293.082 413.434L285.961 420.557L286.235 420.831L293.357 413.709L293.082 413.434Z" fill="#CBCBCB"/>
<path d="M296.543 413.315L285.957 424.451L286.238 424.719L296.824 413.583L296.543 413.315Z" fill="#CBCBCB"/>
<path d="M312.212 413.45H283.086V416.946H312.212V413.45Z" fill="white"/>
<path d="M312.409 417.14H282.895V413.256H312.409V417.14ZM283.283 416.751H312.021V413.644H283.283V416.751Z" fill="#CBCBCB"/>
<path d="M610.909 354.595C611.153 354.594 611.388 354.502 611.566 354.335C611.745 354.169 611.853 353.941 611.871 353.697C612.501 345.125 616.345 337.107 622.633 331.248C628.921 325.389 637.189 322.121 645.783 322.098C646.811 322.098 647.891 322.15 648.994 322.253C649.178 322.27 649.364 322.234 649.528 322.149C649.693 322.064 649.829 321.933 649.921 321.772C653.869 314.861 659.764 309.266 666.87 305.685C673.977 302.104 681.981 300.695 689.883 301.635C697.785 302.575 705.236 305.822 711.304 310.97C717.373 316.119 721.792 322.941 724.008 330.585C724.067 330.79 724.192 330.97 724.364 331.096C724.535 331.222 724.744 331.287 724.957 331.281L725.214 331.274C725.347 331.269 725.48 331.264 725.615 331.264C732.133 331.285 738.449 333.534 743.513 337.638C748.578 341.742 752.087 347.455 753.459 353.829C753.504 354.045 753.623 354.24 753.795 354.379C753.967 354.519 754.182 354.595 754.403 354.595H819.035C819.162 354.595 819.288 354.57 819.405 354.522C819.523 354.474 819.629 354.403 819.719 354.313C819.809 354.224 819.881 354.117 819.929 354C819.978 353.882 820.003 353.757 820.003 353.63C820.003 353.503 819.978 353.377 819.929 353.26C819.881 353.143 819.809 353.036 819.719 352.946C819.629 352.857 819.523 352.786 819.405 352.737C819.288 352.689 819.162 352.664 819.035 352.665H755.175C753.567 346.035 749.786 340.136 744.434 335.907C739.082 331.678 732.468 329.364 725.648 329.335C723.22 321.479 718.564 314.498 712.244 309.239C705.925 303.98 698.214 300.67 690.05 299.711C681.885 298.752 673.618 300.185 666.252 303.837C658.886 307.488 652.739 313.2 648.558 320.279C647.609 320.205 646.678 320.168 645.783 320.168C636.701 320.192 627.964 323.646 621.319 329.838C614.674 336.03 610.612 344.503 609.946 353.562C609.937 353.689 609.953 353.816 609.993 353.936C610.033 354.056 610.097 354.167 610.18 354.263C610.263 354.358 610.364 354.437 610.477 354.493C610.591 354.55 610.714 354.584 610.841 354.592C610.864 354.594 610.886 354.595 610.909 354.595Z" fill="#CBCBCB"/>
<path d="M622.388 366.967H780.605C780.861 366.967 781.106 366.865 781.287 366.684C781.468 366.503 781.57 366.258 781.57 366.002C781.57 365.746 781.468 365.501 781.287 365.32C781.106 365.139 780.861 365.037 780.605 365.037H622.388C622.132 365.037 621.886 365.139 621.705 365.32C621.525 365.501 621.423 365.746 621.423 366.002C621.423 366.258 621.525 366.503 621.705 366.684C621.886 366.865 622.132 366.967 622.388 366.967Z" fill="#CBCBCB"/>
<path d="M742.016 380.958H795.076C795.332 380.958 795.576 380.856 795.756 380.675C795.937 380.494 796.038 380.249 796.038 379.994C796.038 379.738 795.937 379.493 795.756 379.312C795.576 379.131 795.332 379.029 795.076 379.029H742.016C741.889 379.029 741.763 379.054 741.646 379.102C741.529 379.151 741.423 379.222 741.333 379.311C741.244 379.401 741.173 379.507 741.124 379.624C741.076 379.741 741.051 379.867 741.051 379.994C741.051 380.12 741.076 380.246 741.124 380.363C741.173 380.48 741.244 380.586 741.333 380.676C741.423 380.765 741.529 380.836 741.646 380.885C741.763 380.933 741.889 380.958 742.016 380.958Z" fill="#CBCBCB"/>
<path d="M582.418 614.784H579.241L577.73 602.534H582.418V614.784Z" fill="#9F616A"/>
<path d="M583.228 617.863H572.988V617.734C572.989 616.677 573.41 615.664 574.157 614.916C574.904 614.169 575.917 613.749 576.974 613.748H583.228V617.863Z" fill="#302F42"/>
<path d="M623.369 608.765L620.646 610.402L613.043 600.678L617.061 598.264L623.369 608.765Z" fill="#9F616A"/>
<path d="M616.869 616.262L616.802 616.151C616.259 615.245 616.097 614.16 616.353 613.134C616.609 612.109 617.261 611.227 618.166 610.681L623.526 607.46L625.646 610.988L616.869 616.262Z" fill="#302F42"/>
<path d="M583.241 612.256L583.186 612.256C581.641 612.251 580.098 612.162 578.563 611.99C577.978 611.932 577.343 611.869 576.578 611.807L576.552 611.802C576.03 611.646 576.016 606.752 576.237 589.998C576.35 581.417 576.478 571.691 576.326 565.497L576.324 565.436L576.37 565.396C579.132 562.974 582.428 561.24 585.988 560.336C589.549 559.432 593.272 559.383 596.855 560.194L596.911 560.206L596.94 560.255C600.061 565.537 604.773 573.145 609.331 580.503C619.792 597.393 622.784 602.361 622.456 602.735L622.416 602.766C621.702 603.123 621.166 603.398 620.71 603.632C618.905 604.567 617.051 605.404 615.155 606.138L615.071 606.173L615.01 606.105C604.395 594.472 595.562 581.476 590.098 569.462C589.46 573.564 588.685 578.919 587.866 584.578C585.511 600.85 583.92 611.565 583.279 612.217L583.241 612.256Z" fill="#302F42"/>
<path d="M586.104 566.748C592.434 566.72 598.722 567.773 604.697 569.862C604.905 559.829 601.543 550.048 595.209 542.264L595.163 542.208L595.187 542.139C596.854 537.32 598.578 532.34 600.118 527.383L600.094 527.3C599.014 523.459 596.696 519.579 593.007 515.435C592.607 515.021 592.064 514.774 591.489 514.745C590.913 514.715 590.348 514.906 589.908 515.278C586.676 518.234 584.159 521.887 582.547 525.96C580.935 530.033 580.271 534.419 580.604 538.787L580.606 538.812L580.599 538.836C577.711 548.624 576.662 553.651 575.737 558.086C575.062 561.322 574.478 564.124 573.305 568.127C577.51 567.212 581.801 566.75 586.104 566.748Z" fill="#CBCBCB"/>
<path opacity="0.1" d="M595.422 535.808L586.025 556.269L580.656 550.834L595.422 535.808Z" fill="black"/>
<path d="M591.404 513.444C595.096 513.444 598.089 510.45 598.089 506.757C598.089 503.064 595.096 500.07 591.404 500.07C587.712 500.07 584.719 503.064 584.719 506.757C584.719 510.45 587.712 513.444 591.404 513.444Z" fill="#9F616A"/>
<path d="M583.297 502.98H593.912V498.352C591.582 497.426 589.302 496.638 587.924 498.352C586.697 498.352 585.52 498.839 584.652 499.707C583.784 500.575 583.297 501.752 583.297 502.98Z" fill="#302F42"/>
<path d="M594.501 497.535C600.847 497.535 602.624 505.491 602.624 509.979C602.624 512.483 601.492 513.378 599.713 513.681L599.085 510.33L597.614 513.825C597.114 513.828 596.59 513.818 596.045 513.808L595.547 512.781L594.434 513.789C589.979 513.796 586.379 514.445 586.379 509.979C586.379 505.491 587.937 497.535 594.501 497.535Z" fill="#302F42"/>
<path d="M786.193 188.612C786.193 364.854 601.459 449.185 601.459 449.185C601.459 449.185 414.832 364.854 411.042 188.612C408.815 85.0209 495.022 1 598.617 1C702.212 1 786.193 84.997 786.193 188.612Z" fill="#FBE9FB"/>
<path d="M605.422 613.4H601.528L599.676 598.378H605.422V613.4Z" fill="#FFB7B7"/>
<path d="M598.744 612.287H606.254V617.016H594.016C594.016 616.395 594.138 615.78 594.376 615.206C594.613 614.632 594.961 614.111 595.401 613.672C595.84 613.233 596.361 612.884 596.935 612.647C597.508 612.409 598.123 612.287 598.744 612.287Z" fill="#302F42"/>
<path d="M620.032 613.4H616.138L614.285 598.378H620.033L620.032 613.4Z" fill="#FFB7B7"/>
<path d="M613.357 612.287H620.867V617.016H608.629C608.629 615.762 609.127 614.559 610.014 613.672C610.901 612.785 612.103 612.287 613.357 612.287Z" fill="#302F42"/>
<path d="M619.555 568.659C619.135 568.389 618.78 568.03 618.514 567.608C618.248 567.186 618.078 566.711 618.016 566.216C617.953 565.721 618 565.218 618.153 564.743C618.306 564.268 618.561 563.833 618.9 563.467L616.336 527.075L623.721 527.791L623.924 563.43C624.501 564.041 624.833 564.842 624.858 565.682C624.884 566.521 624.6 567.341 624.062 567.986C623.523 568.63 622.767 569.055 621.936 569.179C621.105 569.303 620.258 569.118 619.555 568.659Z" fill="#FFB7B7"/>
<path d="M605.236 605.832L600.95 605.627C600.584 605.61 600.24 605.453 599.987 605.19C599.733 604.926 599.591 604.575 599.588 604.21L599.289 560.829C599.288 560.623 599.331 560.419 599.415 560.231C599.5 560.044 599.624 559.876 599.779 559.741C599.935 559.606 600.117 559.506 600.315 559.447C600.512 559.389 600.72 559.374 600.924 559.404L618.073 561.894C618.412 561.941 618.722 562.109 618.947 562.367C619.172 562.625 619.296 562.956 619.297 563.298L621.502 603.495C621.504 603.683 621.468 603.87 621.397 604.045C621.325 604.22 621.22 604.379 621.088 604.513C620.955 604.646 620.797 604.753 620.623 604.825C620.448 604.898 620.262 604.935 620.073 604.935H615.452C615.111 604.937 614.781 604.815 614.522 604.594C614.262 604.372 614.092 604.065 614.04 603.728C614.04 603.728 610.549 573.577 610.07 573.594C609.588 573.603 606.723 604.574 606.723 604.574C606.681 604.921 606.513 605.24 606.252 605.472C605.99 605.704 605.653 605.832 605.304 605.834C605.282 605.834 605.259 605.833 605.236 605.832Z" fill="#302F42"/>
<path d="M618.009 539.303C617.836 539.179 617.693 539.017 617.591 538.83C617.488 538.643 617.43 538.435 617.418 538.223L616.877 528.414C616.824 527.442 617.132 526.485 617.742 525.727C618.352 524.969 619.221 524.464 620.182 524.309C621.143 524.154 622.127 524.36 622.944 524.888C623.762 525.415 624.355 526.227 624.61 527.167L626.987 535.936C627.086 536.302 627.035 536.692 626.847 537.021C626.658 537.35 626.347 537.59 625.982 537.69L619.219 539.524C619.014 539.58 618.798 539.589 618.589 539.551C618.379 539.513 618.181 539.428 618.009 539.303Z" fill="#77758A"/>
<path d="M611.692 515.992C616 515.992 619.492 512.498 619.492 508.189C619.492 503.88 616 500.387 611.692 500.387C607.383 500.387 603.891 503.88 603.891 508.189C603.891 512.498 607.383 515.992 611.692 515.992Z" fill="#FFB7B7"/>
<path d="M617.213 514.362C616.887 514.714 616.467 514.965 616.003 515.087C615.539 515.208 615.05 515.194 614.593 515.047C614.137 514.9 613.731 514.626 613.425 514.257C613.119 513.887 612.925 513.438 612.865 512.962C612.85 512.798 612.851 512.632 612.868 512.468C612.966 511.53 613.508 510.678 613.378 509.687C613.349 509.441 613.257 509.206 613.112 509.004C611.952 507.451 609.23 509.699 608.135 508.293C607.464 507.431 608.253 506.073 607.738 505.11C607.058 503.838 605.045 504.465 603.783 503.769C602.378 502.994 602.462 500.838 603.386 499.527C603.988 498.752 604.754 498.12 605.628 497.675C606.502 497.23 607.464 496.983 608.444 496.952C610.407 496.906 612.357 497.286 614.159 498.067C616.286 498.759 618.164 500.062 619.558 501.812C620.28 502.96 620.737 504.253 620.897 505.6C621.056 506.946 620.915 508.311 620.482 509.595C620.011 511.171 618.401 513.096 617.213 514.362Z" fill="#302F42"/>
<path d="M619.479 521.204C619.343 521.106 619.205 521.01 619.065 520.917C618.316 520.418 617.504 520.021 616.652 519.733V517.683H610.617V519.585C608.617 520.137 606.823 521.265 605.458 522.829C604.094 524.393 603.219 526.324 602.943 528.381L598.834 558.894C598.807 559.084 598.82 559.279 598.871 559.464C598.922 559.65 599.009 559.824 599.129 559.974C599.247 560.124 599.393 560.248 599.56 560.34C599.726 560.431 599.91 560.487 600.099 560.506C602.978 560.879 605.752 561.829 608.255 563.3C610.073 564.307 612.119 564.829 614.197 564.817C615.846 564.81 617.482 564.519 619.033 563.955C619.295 563.859 619.524 563.686 619.688 563.46C619.853 563.233 619.948 562.963 619.959 562.683C620.107 559.399 620.973 542.497 623.492 532.187C623.982 530.164 623.863 528.042 623.148 526.087C622.434 524.133 621.157 522.433 619.479 521.204Z" fill="#77758A"/>
<path d="M663.981 459.608H538.931L523.773 398.966H679.139L663.981 459.608Z" fill="#77758A"/>
<path d="M659.719 563.317H543.195V624.052H659.719V563.317Z" fill="white"/>
<path d="M660.669 625H542.25V562.369H660.669V625ZM544.145 623.105H658.774V564.264H544.145V623.105Z" fill="#77758A"/>
<path d="M625.343 466.759H577.572L572.09 458.142H630.826L625.343 466.759Z" fill="#77758A"/>
<path d="M541.774 459.608H539.879V552.467H541.774V459.608Z" fill="#77758A"/>
<path d="M663.035 459.608H661.141V552.467H663.035V459.608Z" fill="#77758A"/>
<path d="M620.45 397.939L619.293 396.438C674.029 354.219 739.277 281.892 739.277 177.08C739.321 140.37 728.527 104.466 708.25 73.8677C687.972 43.27 659.113 19.3416 625.293 5.08354L626.031 3.33838C660.195 17.7411 689.346 41.9123 709.83 72.8205C730.313 103.729 741.216 139.998 741.172 177.08C741.172 282.662 675.523 355.46 620.45 397.939Z" fill="#77758A"/>
<path d="M559.817 397.939L558.66 396.438C613.397 354.22 678.645 281.892 678.645 177.08C678.66 140.617 667.996 104.949 647.969 74.4814C627.943 44.0134 599.433 20.0803 565.959 5.6383L566.71 3.89868C600.523 18.4873 629.323 42.6632 649.553 73.4403C669.782 104.217 680.555 140.247 680.54 177.08C680.54 282.662 614.89 355.461 559.817 397.939Z" fill="#77758A"/>
<path d="M637.413 397.939C582.341 355.46 516.691 282.662 516.691 177.08C516.676 140.247 527.449 104.217 547.679 73.4396C567.908 42.6624 596.709 18.4865 630.523 3.89819L631.274 5.63781C597.8 20.0796 569.289 44.0127 549.262 74.4807C529.236 104.949 518.571 140.617 518.586 177.08C518.586 281.892 583.834 354.219 638.57 396.438L637.413 397.939Z" fill="#77758A"/>
<path d="M576.781 397.938C521.708 355.46 456.059 282.662 456.059 177.08C455.997 139.852 466.977 103.442 487.61 72.4577C508.242 41.4732 537.6 17.3063 571.969 3.01489L572.699 4.76376C538.676 18.9115 509.613 42.8356 489.187 73.5087C468.762 104.182 457.892 140.226 457.954 177.08C457.954 281.893 523.202 354.22 577.938 396.438L576.781 397.938Z" fill="#77758A"/>
<path d="M599.563 1H597.668V398.966H599.563V1Z" fill="#77758A"/>
<path d="M577.271 549.546L542.527 584.296L543.867 585.636L578.61 550.886L577.271 549.546Z" fill="#77758A"/>
<path d="M594.158 548.968L542.512 603.297L543.885 604.603L595.531 550.274L594.158 548.968Z" fill="#77758A"/>
<path d="M670.614 549.624H528.512V566.68H670.614V549.624Z" fill="white"/>
<path d="M671.564 567.627H527.566V548.677H671.564V567.627ZM529.461 565.732H669.669V550.572H529.461V565.732Z" fill="#77758A"/>
<path d="M574.474 557.557C574.854 557.53 575.223 557.421 575.556 557.236C575.889 557.052 576.178 556.796 576.401 556.488C576.625 556.18 576.778 555.826 576.85 555.452C576.923 555.078 576.912 554.693 576.819 554.323L584.562 549.25L580.146 547.342L573.471 552.452C572.861 552.649 572.344 553.063 572.019 553.616C571.693 554.168 571.582 554.821 571.705 555.45C571.829 556.079 572.179 556.641 572.689 557.03C573.2 557.418 573.835 557.605 574.474 557.557H574.474Z" fill="#9F616A"/>
<path d="M581.923 553.902L581.825 553.833C579.983 552.476 577.937 551.073 575.959 549.717L575.84 549.635L575.933 549.526C580.156 544.584 584.383 539.423 588.472 534.43L588.464 534.412L588.502 534.393L588.519 534.373L588.527 534.38L588.552 534.367L588.441 534.376L587.18 524.492C586.557 523.464 586.238 522.279 586.262 521.077C586.286 519.875 586.652 518.705 587.316 517.702C588.08 516.621 589.217 515.86 590.508 515.565C591.799 515.271 593.153 515.463 594.311 516.105C594.883 516.489 595.361 516.996 595.71 517.589C596.059 518.183 596.27 518.847 596.327 519.533C596.408 520.145 596.352 520.766 596.162 521.353C595.972 521.939 595.653 522.476 595.23 522.924C595.665 527.721 595.857 532.537 595.806 537.354L595.806 537.399L595.778 537.436C591.419 542.975 586.631 548.484 582.001 553.811L581.923 553.902Z" fill="#CBCBCB"/>
<path d="M583.423 523.519C583.462 523.69 583.487 523.864 583.499 524.04L597.143 531.912L600.459 530.003L603.994 534.632L596.9 539.689L581.334 527.407C580.699 527.642 580.008 527.678 579.352 527.511C578.696 527.343 578.107 526.98 577.663 526.469C577.218 525.958 576.94 525.324 576.864 524.652C576.789 523.979 576.92 523.299 577.241 522.702C577.561 522.106 578.055 521.621 578.658 521.313C579.26 521.004 579.942 520.886 580.614 520.975C581.285 521.063 581.913 521.354 582.415 521.809C582.917 522.263 583.268 522.859 583.423 523.519H583.423Z" fill="#FFB7B7"/>
<path d="M597.629 531.243C597.606 531.031 597.632 530.817 597.703 530.616C597.774 530.415 597.889 530.233 598.04 530.082L604.984 523.135C605.672 522.447 606.59 522.038 607.562 521.987C608.534 521.936 609.49 522.246 610.246 522.859C611.003 523.471 611.506 524.342 611.658 525.303C611.81 526.264 611.602 527.248 611.072 528.064L606.127 535.686C605.92 536.004 605.596 536.226 605.225 536.305C604.855 536.384 604.468 536.313 604.15 536.107L598.273 532.292C598.094 532.177 597.943 532.022 597.832 531.841C597.72 531.659 597.651 531.455 597.629 531.243Z" fill="#77758A"/>
<path d="M466.094 492.173C465.85 492.173 465.615 492.08 465.437 491.914C465.258 491.747 465.15 491.519 465.132 491.276C464.502 482.703 460.658 474.685 454.37 468.826C448.082 462.967 439.814 459.699 431.22 459.676C430.192 459.676 429.111 459.728 428.009 459.831C427.824 459.849 427.639 459.813 427.475 459.727C427.31 459.642 427.174 459.511 427.082 459.35C423.134 452.439 417.239 446.844 410.132 443.263C403.026 439.682 395.022 438.273 387.12 439.213C379.218 440.154 371.767 443.4 365.698 448.549C359.63 453.697 355.211 460.519 352.994 468.164C352.936 468.368 352.811 468.548 352.639 468.674C352.467 468.8 352.259 468.865 352.046 468.86L351.789 468.852C351.656 468.847 351.522 468.843 351.388 468.843C344.87 468.863 338.554 471.112 333.49 475.216C328.425 479.321 324.916 485.034 323.544 491.407C323.498 491.624 323.38 491.818 323.208 491.958C323.036 492.097 322.821 492.173 322.6 492.173H257.968C257.841 492.173 257.715 492.149 257.598 492.101C257.48 492.052 257.374 491.981 257.284 491.892C257.194 491.802 257.122 491.695 257.074 491.578C257.025 491.461 257 491.335 257 491.208C257 491.081 257.025 490.955 257.074 490.838C257.122 490.721 257.194 490.614 257.284 490.525C257.374 490.435 257.48 490.364 257.598 490.316C257.715 490.268 257.841 490.243 257.968 490.243H321.828C323.436 483.614 327.217 477.714 332.569 473.485C337.921 469.257 344.534 466.943 351.355 466.913C353.783 459.057 358.439 452.076 364.759 446.818C371.078 441.559 378.789 438.249 386.953 437.29C395.118 436.331 403.385 437.764 410.751 441.415C418.116 445.066 424.264 450.778 428.445 457.857C429.394 457.783 430.325 457.746 431.22 457.746C440.302 457.771 449.039 461.225 455.684 467.416C462.329 473.608 466.391 482.082 467.057 491.141C467.066 491.267 467.05 491.394 467.01 491.514C466.97 491.634 466.906 491.745 466.823 491.841C466.74 491.937 466.639 492.015 466.526 492.072C466.412 492.128 466.289 492.162 466.162 492.171C466.139 492.172 466.116 492.173 466.094 492.173Z" fill="#CBCBCB"/>
<path d="M454.615 504.545H296.397C296.271 504.545 296.145 504.521 296.027 504.472C295.91 504.424 295.803 504.353 295.713 504.264C295.623 504.174 295.552 504.067 295.503 503.95C295.455 503.833 295.43 503.707 295.43 503.58C295.43 503.453 295.455 503.327 295.503 503.21C295.552 503.093 295.623 502.986 295.713 502.897C295.803 502.807 295.91 502.736 296.027 502.688C296.145 502.64 296.271 502.615 296.397 502.615H454.615C454.871 502.615 455.116 502.717 455.297 502.898C455.478 503.079 455.58 503.324 455.58 503.58C455.58 503.836 455.478 504.082 455.297 504.262C455.116 504.443 454.871 504.545 454.615 504.545Z" fill="#CBCBCB"/>
<path d="M334.985 518.537H281.925C281.798 518.537 281.672 518.513 281.555 518.464C281.437 518.416 281.331 518.345 281.241 518.255C281.151 518.166 281.079 518.059 281.031 517.942C280.982 517.825 280.957 517.699 280.957 517.572C280.957 517.445 280.982 517.319 281.031 517.202C281.079 517.085 281.151 516.978 281.241 516.888C281.331 516.799 281.437 516.728 281.555 516.68C281.672 516.631 281.798 516.607 281.925 516.607H334.985C335.112 516.607 335.238 516.631 335.356 516.68C335.473 516.728 335.58 516.799 335.67 516.888C335.76 516.978 335.831 517.085 335.88 517.202C335.928 517.319 335.953 517.445 335.953 517.572C335.953 517.699 335.928 517.825 335.88 517.942C335.831 518.059 335.76 518.166 335.67 518.255C335.58 518.345 335.473 518.416 335.356 518.464C335.238 518.513 335.112 518.537 334.985 518.537Z" fill="#CBCBCB"/>
</g>
<defs>
<clipPath id="clip0_18_904">
<rect width="820" height="624" fill="white"/>
</clipPath>
</defs>
</svg>
