<svg width="545" height="395" viewBox="0 0 545 395" fill="none" xmlns="http://www.w3.org/2000/svg">
<g clip-path="url(#clip0_1_1840)">
<path opacity="0.2" d="M72.1259 200.12C64.958 202.26 58.2491 207.44 56.4585 214.626C54.4106 222.885 59.1331 231.211 59.8158 239.691C62.0204 267.476 22.0127 287.079 27.7201 314.371C29.9863 325.223 39.1461 333.206 48.1716 339.801C62.6303 350.332 78.6726 359.636 96.4382 362.262C123.403 366.253 151.576 354.523 177.785 361.936C198.925 367.917 215.102 385.447 236.096 391.915C252.077 396.841 269.294 394.9 285.896 392.905C294.848 391.832 304.226 390.594 311.45 385.287C324.879 375.408 325.724 355.899 334.716 341.918C348.604 320.358 379.055 316.124 404.587 320.314C430.119 324.505 454.913 334.82 480.781 333.98C486.309 333.797 491.972 333.057 496.795 330.376C502.659 327.119 506.621 321.381 510.123 315.704C532.016 280.084 544.033 239.399 544.966 197.738C545.118 190.579 544.86 183.11 541.453 176.791C537.144 168.798 528.533 164.016 519.96 160.798C499.375 153.059 476.634 151.793 456.463 143.064C437.007 134.645 421.25 119.879 404.307 107.225C370.543 82.0562 331.408 64.8369 289.885 56.8796C280.155 55.0221 270.055 53.6953 260.386 55.8403C249.245 58.3113 239.643 65.1718 231.01 72.5575C208.04 92.2047 189.631 116.446 168.463 137.978C153.861 152.827 137.96 166.374 120.946 178.461C113.113 184.039 104.787 190.662 96.0577 194.786C88.0674 198.556 80.575 197.605 72.1259 200.12Z" fill="#BF13BF"/>
<path d="M174.512 25.5071C174.512 25.5071 152.885 53.8833 168.357 86.9584C183.828 120.034 141.392 173.176 141.392 173.176" stroke="#535461" stroke-width="2" stroke-miterlimit="10"/>
<path d="M184.209 14.8875C182.491 22.1902 174.271 26.5409 174.271 26.5409C174.271 26.5409 168.844 19.0502 170.562 11.7475C172.279 4.44476 176.717 -0.773842 180.499 0.0940832C184.282 0.962009 185.927 7.58477 184.209 14.8875Z" fill="#8ED16F"/>
<path d="M178.688 13.6149C179.228 11.3222 178.961 9.30146 178.091 9.10147C177.221 8.90149 176.078 10.598 175.538 12.8907C174.998 15.1834 175.265 17.2041 176.135 17.4041C177.005 17.6041 178.148 15.9076 178.688 13.6149Z" fill="#8ED16F"/>
<path opacity="0.3" d="M178.688 13.6149C179.228 11.3222 178.961 9.30146 178.091 9.10147C177.221 8.90149 176.078 10.598 175.538 12.8907C174.998 15.1834 175.265 17.2041 176.135 17.4041C177.005 17.6041 178.148 15.9076 178.688 13.6149Z" fill="black"/>
<path d="M180.471 47.3323C173.331 49.8753 165.167 45.4196 165.167 45.4196C165.167 45.4196 168.581 36.8453 175.726 34.3079C182.872 31.7705 189.715 32.6494 191.03 36.2206C192.345 39.7919 187.611 44.7893 180.471 47.3323Z" fill="#8ED16F"/>
<path d="M178.465 41.7019C180.705 40.9015 182.275 39.5803 181.971 38.7509C181.667 37.9215 179.605 37.898 177.366 38.6983C175.126 39.4987 173.557 40.8198 173.86 41.6492C174.164 42.4787 176.226 42.5022 178.465 41.7019Z" fill="#8ED16F"/>
<path opacity="0.3" d="M178.465 41.7019C180.705 40.9015 182.275 39.5803 181.971 38.7509C181.667 37.9215 179.605 37.898 177.366 38.6983C175.126 39.4987 173.557 40.8198 173.86 41.6492C174.164 42.4787 176.226 42.5022 178.465 41.7019Z" fill="black"/>
<path d="M178.809 73.1878C171.669 75.7307 163.505 71.275 163.505 71.275C163.505 71.275 166.919 62.7008 174.064 60.1634C181.209 57.6259 188.053 58.5049 189.368 62.0761C190.683 65.6473 185.949 70.6503 178.809 73.1878Z" fill="#8ED16F"/>
<path d="M176.887 67.9481C179.129 67.1507 180.701 65.8313 180.398 65.0011C180.096 64.1709 178.033 64.1443 175.791 64.9417C173.55 65.7391 171.978 67.0585 172.28 67.8887C172.583 68.7189 174.645 68.7455 176.887 67.9481Z" fill="#8ED16F"/>
<path opacity="0.3" d="M176.887 67.9481C179.129 67.1507 180.701 65.8313 180.398 65.0011C180.096 64.1709 178.033 64.1443 175.791 64.9417C173.55 65.7391 171.978 67.0585 172.28 67.8887C172.583 68.7189 174.645 68.7455 176.887 67.9481Z" fill="black"/>
<path d="M187.152 103.521C180.012 106.064 171.849 101.608 171.849 101.608C171.849 101.608 175.262 93.0338 182.407 90.4964C189.553 87.9589 196.396 88.8379 197.711 92.4091C199.026 95.9803 194.292 100.994 187.152 103.521Z" fill="#8ED16F"/>
<path d="M185.231 98.2948C187.473 97.4974 189.045 96.178 188.742 95.3478C188.44 94.5176 186.377 94.491 184.135 95.2884C181.893 96.0858 180.321 97.4052 180.624 98.2354C180.926 99.0656 182.989 99.0922 185.231 98.2948Z" fill="#8ED16F"/>
<path opacity="0.3" d="M185.231 98.2948C187.473 97.4974 189.045 96.178 188.742 95.3478C188.44 94.5176 186.377 94.491 184.135 95.2884C181.893 96.0858 180.321 97.4052 180.624 98.2354C180.926 99.0656 182.989 99.0922 185.231 98.2948Z" fill="black"/>
<path d="M181.725 131.261C174.585 133.804 166.421 129.349 166.421 129.349C166.421 129.349 169.834 120.774 176.98 118.237C184.125 115.699 190.968 116.578 192.283 120.15C193.598 123.721 188.87 128.724 181.725 131.261Z" fill="#8ED16F"/>
<path d="M179.819 125.564C182.059 124.764 183.628 123.442 183.324 122.613C183.021 121.784 180.959 121.76 178.719 122.56C176.48 123.361 174.91 124.682 175.214 125.511C175.518 126.341 177.579 126.364 179.819 125.564Z" fill="#8ED16F"/>
<path opacity="0.3" d="M179.819 125.564C182.059 124.764 183.628 123.442 183.324 122.613C183.021 121.784 180.959 121.76 178.719 122.56C176.48 123.361 174.91 124.682 175.214 125.511C175.518 126.341 177.579 126.364 179.819 125.564Z" fill="black"/>
<path d="M148.235 54.6794C153.506 60.0749 162.823 59.6548 162.823 59.6548C162.823 59.6548 163.589 50.4725 158.318 45.0769C153.047 39.6814 146.518 37.4591 143.731 40.1016C140.944 42.7441 142.964 49.2839 148.235 54.6794Z" fill="#8ED16F"/>
<path d="M156.474 52.7646C157.116 52.1518 156.296 50.2821 154.641 48.5885C152.986 46.8949 151.124 46.0188 150.481 46.6316C149.839 47.2444 150.659 49.1141 152.314 50.8077C153.969 52.5013 155.831 53.3774 156.474 52.7646Z" fill="#8ED16F"/>
<path opacity="0.3" d="M156.474 52.7646C157.116 52.1518 156.296 50.2821 154.641 48.5885C152.986 46.8949 151.124 46.0188 150.481 46.6316C149.839 47.2444 150.659 49.1141 152.314 50.8077C153.969 52.5013 155.831 53.3774 156.474 52.7646Z" fill="black"/>
<path d="M145.208 140.361C150.479 145.756 159.796 145.336 159.796 145.336C159.796 145.336 160.562 136.154 155.292 130.758C150.021 125.363 143.491 123.14 140.704 125.783C137.918 128.425 139.938 134.965 145.208 140.361Z" fill="#8ED16F"/>
<path d="M153.439 138.453C154.082 137.841 153.261 135.971 151.606 134.277C149.952 132.584 148.089 131.707 147.447 132.32C146.804 132.933 147.625 134.803 149.279 136.496C150.934 138.19 152.797 139.066 153.439 138.453Z" fill="#8ED16F"/>
<path opacity="0.3" d="M153.439 138.453C154.082 137.841 153.261 135.971 151.606 134.277C149.952 132.584 148.089 131.707 147.447 132.32C146.804 132.933 147.625 134.803 149.279 136.496C150.934 138.19 152.797 139.066 153.439 138.453Z" fill="black"/>
<path d="M152.197 84.9627C158.99 88.3127 167.624 84.83 167.624 84.83C167.624 84.83 165.246 75.9241 158.458 72.574C151.671 69.2239 144.761 69.2571 143.032 72.7067C141.303 76.1563 145.404 81.6126 152.197 84.9627Z" fill="#8ED16F"/>
<path d="M159.297 80.426C159.696 79.6365 158.291 78.1444 156.159 77.0934C154.027 76.0423 151.976 75.8303 151.577 76.6198C151.178 77.4093 152.583 78.9014 154.715 79.9524C156.847 81.0035 158.899 81.2156 159.297 80.426Z" fill="#8ED16F"/>
<path opacity="0.3" d="M159.297 80.426C159.696 79.6365 158.291 78.1444 156.159 77.0934C154.027 76.0423 151.976 75.8303 151.577 76.6198C151.178 77.4093 152.583 78.9014 154.715 79.9524C156.847 81.0035 158.899 81.2156 159.297 80.426Z" fill="black"/>
<path d="M155.045 115.13C161.838 118.48 170.472 114.997 170.472 114.997C170.472 114.997 168.094 106.091 161.306 102.741C154.519 99.3912 147.609 99.4243 145.88 102.874C144.151 106.324 148.28 111.813 155.045 115.13Z" fill="#8ED16F"/>
<path d="M162.147 110.597C162.546 109.808 161.141 108.316 159.009 107.265C156.877 106.214 154.826 106.002 154.427 106.791C154.028 107.581 155.433 109.073 157.565 110.124C159.697 111.175 161.749 111.387 162.147 110.597Z" fill="#8ED16F"/>
<path opacity="0.3" d="M162.147 110.597C162.546 109.808 161.141 108.316 159.009 107.265C156.877 106.214 154.826 106.002 154.427 106.791C154.028 107.581 155.433 109.073 157.565 110.124C159.697 111.175 161.749 111.387 162.147 110.597Z" fill="black"/>
<path d="M70.3519 86.4995C70.3519 86.4995 109.85 125.523 87.5524 183.431C65.2545 241.338 125.775 337.634 125.775 337.634C125.775 337.634 125.126 337.54 123.923 337.33C42.7886 323.183 2.50112 231.515 47.6007 163.419C64.348 138.1 78.1408 108.402 70.3519 86.4995Z" fill="#8ED16F"/>
<path d="M0 244.335C0 244.335 45.0716 237.242 49.1787 277.15C53.2858 317.058 135.847 322.592 135.847 322.592C135.847 322.592 135.288 322.957 134.297 323.609C66.1274 367.834 0.962426 351.769 10.7825 293.066C14.4419 271.235 14.1398 249.316 0 244.335Z" fill="#8ED16F"/>
<g opacity="0.3">
<path opacity="0.3" d="M0 244.335C0 244.335 45.0716 237.242 49.1787 277.15C53.2858 317.058 135.847 322.592 135.847 322.592C135.847 322.592 135.288 322.957 134.297 323.609C66.1274 367.834 0.962426 351.769 10.7825 293.066C14.4419 271.235 14.1398 249.316 0 244.335Z" fill="white"/>
</g>
<path d="M58.9428 243.843C65.7878 243.843 71.3368 229.539 71.3368 211.895C71.3368 194.251 65.7878 179.948 58.9428 179.948C52.0978 179.948 46.5488 194.251 46.5488 211.895C46.5488 229.539 52.0978 243.843 58.9428 243.843Z" fill="#8ED16F"/>
<path opacity="0.3" d="M58.9428 243.843C65.7878 243.843 71.3368 229.539 71.3368 211.895C71.3368 194.251 65.7878 179.948 58.9428 179.948C52.0978 179.948 46.5488 194.251 46.5488 211.895C46.5488 229.539 52.0978 243.843 58.9428 243.843Z" fill="black"/>
<path d="M57.8102 327.922C61.0727 324.699 57.831 316.27 50.5696 309.096C43.3083 301.922 34.7771 298.719 31.5146 301.943C28.2522 305.166 31.4939 313.594 38.7552 320.768C46.0165 327.942 54.5478 331.145 57.8102 327.922Z" fill="#8ED16F"/>
<path opacity="0.3" d="M57.8102 327.922C61.0727 324.699 57.831 316.27 50.5696 309.096C43.3083 301.922 34.7771 298.719 31.5146 301.943C28.2522 305.166 31.4939 313.594 38.7552 320.768C46.0165 327.942 54.5478 331.145 57.8102 327.922Z" fill="black"/>
<path d="M405.051 146.751H111.658C108.112 146.751 104.712 148.143 102.205 150.619C99.6984 153.096 98.29 156.455 98.29 159.958V329.856C98.29 333.358 99.6984 336.718 102.205 339.194C104.712 341.671 108.112 343.063 111.658 343.063H405.051C408.596 343.063 411.997 341.671 414.503 339.194C417.01 336.718 418.419 333.358 418.419 329.856V159.958C418.419 156.455 417.01 153.096 414.503 150.619C411.997 148.143 408.596 146.751 405.051 146.751Z" fill="url(#paint0_linear_1_1840)"/>
<path d="M400.765 149.062H115.939C108.272 149.062 102.056 155.203 102.056 162.777V327.036C102.056 334.611 108.272 340.752 115.939 340.752H400.765C408.432 340.752 414.648 334.611 414.648 327.036V162.777C414.648 155.203 408.432 149.062 400.765 149.062Z" fill="#BF13BF"/>
<path d="M414.648 182.607H102.056V217.75H414.648V182.607Z" fill="#BF13BF"/>
<path opacity="0.3" d="M414.648 182.607H102.056V217.75H414.648V182.607Z" fill="black"/>
<path d="M385.008 243.843H131.701V260.881H385.008V243.843Z" fill="#D6D6E3"/>
<path d="M152.717 327.976C166.411 327.976 177.511 317.009 177.511 303.481C177.511 289.952 166.411 278.985 152.717 278.985C139.024 278.985 127.924 289.952 127.924 303.481C127.924 317.009 139.024 327.976 152.717 327.976Z" fill="#BF13BF"/>
<path opacity="0.3" d="M152.717 327.976C166.411 327.976 177.511 317.009 177.511 303.481C177.511 289.952 166.411 278.985 152.717 278.985C139.024 278.985 127.924 289.952 127.924 303.481C127.924 317.009 139.024 327.976 152.717 327.976Z" fill="black"/>
<path d="M396.877 101.796C397.277 103.046 398.127 104.108 399.266 104.781C404.408 108.137 415.588 107.424 416.931 107.424C417.216 107.424 417.591 107.927 418.005 108.773C419.98 112.797 423.041 124.594 423.248 127.248C423.522 130.46 426.544 145.491 431.49 151.091C431.641 151.262 431.792 151.422 431.938 151.572C436.789 156.387 442.48 151.091 442.48 151.091L443.297 148.288C443.067 149.394 442.81 150.682 442.552 152.125C442.424 152.849 442.295 153.617 442.172 154.408C441.435 158.862 441.048 163.366 441.014 167.88C441.001 169.519 441.072 171.157 441.226 172.789C441.271 173.242 441.321 173.69 441.383 174.127C441.636 176.114 441.759 178.116 441.752 180.119C441.708 192.016 438.636 206.815 438.636 206.815L438.753 206.776C438.68 207.147 438.636 207.329 438.636 207.329L438.815 207.274C438.729 207.823 438.647 208.385 438.568 208.96C437.528 216.423 436.929 225.71 436.644 231.073C436.496 233.901 436.623 236.737 437.024 239.542L442.485 277.526V295.216C442.467 297.897 442.798 300.569 443.47 303.166C445.249 309.849 443.783 333.178 442.961 344.246C442.732 347.264 442.552 349.376 442.502 349.984V350.166L442.659 350.106C442.659 350.233 442.659 350.299 442.659 350.299C442.892 350.2 443.136 350.13 443.386 350.089C441.221 353.406 437.298 358.89 434.282 359.813C432.505 360.348 430.924 361.383 429.733 362.793L429.655 362.898L429.543 363.053C429.17 363.545 428.943 364.131 428.888 364.744C428.845 364.639 428.811 364.53 428.788 364.418C428.558 365.651 429.308 366.779 431.664 367.326C433.037 367.585 434.435 367.696 435.832 367.658C444.002 367.658 458.5 365.175 460.1 362.505V353.295L460.363 353.378V353.461L461.364 353.787L464.112 344.677C467.408 342.267 464.671 299.13 464.112 289.218C463.608 280.185 469.265 244.252 470.267 237.922L470.133 237.762L470.284 236.838C470.485 236.983 470.673 237.146 470.843 237.325C471.172 237.711 471.459 238.13 471.699 238.574C472.172 239.365 472.578 240.194 472.914 241.051C478.442 254.672 480.932 293.624 480.932 297.118V333.748C480.92 337.362 481.429 340.96 482.443 344.434C482.95 346.262 483.343 348.119 483.618 349.995C483.735 350.73 483.836 351.46 483.931 352.156C484.026 352.853 484.121 353.649 484.194 354.301C484.194 354.473 484.233 354.639 484.25 354.793C484.267 354.948 484.25 354.943 484.25 355.02C484.401 356.463 484.479 357.408 484.479 357.408C484.5 357.329 484.538 357.255 484.591 357.193L484.619 357.541C484.659 357.409 484.734 357.29 484.838 357.198C485.065 356.978 485.312 356.778 485.576 356.601V361.256L485.442 361.156V361.958C491.138 366.204 500.41 367.486 507.527 367.436C512.143 367.436 515.881 366.884 517.179 366.242C519.037 365.341 518.019 363.241 516.329 361.632C515.02 360.382 513.313 359.421 512.233 359.542C510.431 359.736 504.271 352.842 501.042 349.066L501.406 348.906L501.921 348.685V287.609C501.921 287.609 502.749 263.495 505.216 239.647C506.387 227.625 504.947 215.495 500.992 204.067L500.913 203.841L501.663 203.957C502.458 204.078 502.883 204.15 502.883 204.15C502.883 204.15 502.883 203.962 502.833 203.598H502.883C502.883 203.598 501.921 193.254 501.909 180.263C501.909 165.536 503.168 147.58 508.378 137.42C511.377 131.571 512.379 126.916 512.295 123.245C512.425 120.015 511.484 116.832 509.614 114.179C508.83 113.111 507.763 112.277 506.531 111.769L506.425 111.708H506.369C505.469 111.348 504.508 111.161 503.538 111.155H492.285C490.983 111.156 489.702 110.823 488.57 110.188L484.166 107.722C482.7 104.555 482.487 100.63 482.801 96.9477C482.801 96.6547 482.857 96.3617 482.885 96.0743L483.204 95.7426C483.45 95.4828 483.679 95.1898 483.903 94.941C483.898 95.1592 483.881 95.3769 483.853 95.5933C483.797 95.9416 483.702 96.1461 483.551 96.1904C485.957 95.8808 488.642 95.4109 490.12 93.5755C490.181 93.5037 490.237 93.4263 490.293 93.3489C490.73 92.6507 491.092 91.9097 491.373 91.1376C491.58 90.6101 491.857 90.112 492.196 89.6561C492.565 89.1806 493.046 88.7937 493.443 88.3403L493.511 88.263C494.926 86.6045 495.005 84.2274 495.021 82.0603C495.049 76.7975 494.893 71.004 491.328 67.0568C488.368 63.7731 483.646 62.5292 479.164 62.3855C474.682 62.2418 470.211 63.0378 465.735 63.06C462.691 63.06 459.02 63.0102 457.341 65.4979C456.519 66.7196 456.418 68.3173 455.523 69.4892C455.008 70.1637 454.219 70.7441 454.174 71.5844C454.169 71.9721 454.269 72.3542 454.465 72.6901V72.7288C455.551 74.8405 457.856 76.1562 460.262 76.5708C459.856 77.0545 459.482 77.5642 459.143 78.0966C457.674 80.4167 456.898 83.0995 456.905 85.8361C456.905 86.1567 456.905 86.4718 456.938 86.7869C457.188 90.5039 458.865 93.9862 461.627 96.5221C461.583 96.8316 461.538 97.1412 461.488 97.4453L461.588 97.5337C461.905 97.8175 462.236 98.0865 462.579 98.3408L462.702 98.4348C462.702 98.6283 462.702 98.8218 462.702 98.9876C462.702 99.3083 462.702 99.6344 462.668 99.9495C462.635 100.265 462.668 100.458 462.635 100.712L462.562 100.652L457.095 96.1406L448.305 88.1026C448.305 88.1026 426.326 72.2976 425.223 79.8104C425.09 81.1446 425.463 82.4803 426.27 83.5585C430.304 89.6395 444.175 94.8139 444.175 94.8139C444.175 94.8139 452.445 103.454 457.979 112.769C457.783 112.874 457.588 112.974 457.38 113.068C452.456 115.329 445.272 114.373 445.272 114.373C436.974 115.65 436.224 124.633 436.269 128.265C436.269 128.436 436.269 128.602 436.269 128.751C436.269 128.901 436.269 128.934 436.269 129.017L425.257 103.471L425.223 103.394C424.864 102.562 424.298 101.833 423.578 101.275C422.859 100.716 422.008 100.346 421.105 100.198C413.741 98.9766 395.338 96.4281 396.877 101.796ZM442.978 350.012C443.138 349.974 443.301 349.944 443.465 349.923L443.414 350L442.978 350.012Z" fill="url(#paint1_linear_1_1840)"/>
<path d="M497.999 344.787C497.999 344.787 508.429 357.74 510.84 357.475C513.252 357.209 518.864 362.494 515.658 364.108C512.452 365.723 493.992 366.751 484.883 359.879V349.525L497.999 344.787Z" fill="#ACA9C9"/>
<path d="M445.294 345.578C445.294 345.578 439.139 356.413 434.864 357.74C430.589 359.067 426.84 363.821 432.458 365.142C438.076 366.463 458.141 363.556 460.01 360.382V346.368L445.294 345.578Z" fill="#ACA9C9"/>
<path d="M437.567 239.133L442.883 276.603V294.022C442.866 296.665 443.19 299.299 443.845 301.861C445.58 308.456 444.153 331.465 443.347 342.383C443.084 345.943 442.883 348.221 442.883 348.221C446.357 346.634 461.074 351.654 461.074 351.654L462.562 346.65L463.748 342.67C466.96 340.293 464.308 297.743 463.748 287.941C463.384 281.247 466.406 259.543 468.342 246.535C468.902 242.859 469.355 239.901 469.629 238.121C469.802 237.016 469.898 236.402 469.898 236.402C470.487 236.877 470.978 237.461 471.341 238.121C471.802 238.902 472.197 239.72 472.522 240.565C477.905 254.004 480.356 292.425 480.356 295.846V331.979C480.344 335.544 480.84 339.092 481.827 342.521C482.49 345.022 482.974 347.565 483.276 350.133C483.657 353.002 483.836 355.313 483.836 355.313C484.105 353.727 500.69 346.59 500.69 346.59V286.332C500.69 286.332 501.49 262.561 503.901 239.022C504.938 228.315 503.893 217.511 500.824 207.191C500.158 204.941 499.492 203.034 498.916 201.525C497.937 198.954 497.237 197.533 497.237 197.533H442.603C441.685 197.705 440.924 199.529 440.236 202.298C439.788 204.156 439.397 206.434 439.055 208.932C438.043 216.29 437.461 225.451 437.181 230.747C437.04 233.548 437.169 236.356 437.567 239.133Z" fill="#618FD8"/>
<g opacity="0.1">
<path opacity="0.1" d="M499.727 346.761V286.504C499.727 286.504 500.527 262.733 502.939 239.194C505.351 215.655 496.224 197.699 496.224 197.699H497.293C497.293 197.699 506.386 215.671 504.008 239.194C501.63 262.716 500.796 286.504 500.796 286.504V346.761C500.796 346.761 484.211 353.898 483.942 355.484C483.942 355.484 483.942 355.131 483.858 354.523C487.473 352.04 499.727 346.761 499.727 346.761Z" fill="black"/>
<path opacity="0.1" d="M444.489 348.055C443.984 348.065 443.485 348.166 443.017 348.353V348.088C443.506 348.039 443.998 348.028 444.489 348.055Z" fill="black"/>
<path opacity="0.1" d="M462.814 342.803C466.026 340.426 463.374 297.875 462.814 288.074C462.255 278.272 468.969 236.54 468.969 236.54C469.321 236.808 469.632 237.125 469.892 237.48C468.908 243.716 463.402 279.168 463.888 288.074C464.448 297.853 467.1 340.404 463.888 342.803L461.214 351.786L460.24 351.466L462.814 342.803Z" fill="black"/>
</g>
<path d="M448.5 132.295L442.905 151.854C442.905 151.854 437.018 157.382 432.206 151.854C427.394 146.326 424.429 131.505 424.138 128.331C423.847 125.158 419.589 108.773 417.983 108.773C416.377 108.773 400.329 109.829 398.454 103.244C396.955 97.9485 414.872 100.48 422.045 101.669C422.928 101.818 423.759 102.184 424.461 102.735C425.162 103.286 425.711 104.003 426.057 104.82L437.058 130.775C437.058 130.775 442.883 124.102 448.5 132.295Z" fill="#F7C4A7"/>
<path d="M484.613 86.8367C484.613 86.8367 477.658 106.13 486.487 113.002C495.317 119.873 454.912 121.725 454.912 121.725L460.396 116.573C460.396 116.573 464.273 101.376 461.599 88.6886L484.613 86.8367Z" fill="#F7C4A7"/>
<path opacity="0.1" d="M476.053 113.002C476.053 113.002 483.142 111.282 483.142 109.436L489.426 113.002H505.211C505.211 113.002 516.715 119.343 507.085 138.376C497.455 157.41 501.736 204.161 501.736 204.161C501.736 204.161 467.497 198.081 439.139 207.335C439.139 207.335 443.42 186.455 441.814 174.564C440.208 162.672 444.488 146.022 444.488 146.022L446.894 135.977C446.894 135.977 446.76 126.579 436.862 131.35C436.862 131.35 435.39 117.739 445.557 116.153C445.557 116.153 457.308 117.739 460.805 111.924C460.805 111.946 468.566 116.44 476.053 113.002Z" fill="black"/>
<path d="M476.052 112.477C476.052 112.477 483.142 110.757 483.142 108.911L487.747 111.526C488.847 112.149 490.093 112.476 491.361 112.477H502.401C503.555 112.473 504.694 112.741 505.722 113.258C506.75 113.776 507.639 114.527 508.316 115.451C510.851 118.972 513.122 125.916 507.085 137.851C497.455 156.879 501.736 203.636 501.736 203.636C501.736 203.636 467.497 197.555 439.139 206.81C439.139 206.81 443.419 185.93 441.814 174.038C440.208 162.147 444.488 145.535 444.488 145.535L446.894 135.49C446.894 135.49 446.76 126.092 436.861 130.863C436.861 130.863 435.429 117.629 445.137 115.738C445.407 115.679 445.684 115.66 445.96 115.683C448.036 115.899 457.71 116.59 460.81 111.41C460.805 111.415 468.566 115.91 476.052 112.477Z" fill="#E14B5A"/>
<path opacity="0.1" d="M503.073 136.524C503.073 136.524 494.512 141.809 480.602 136.524C480.602 136.524 465.354 130.996 460.536 120.139C455.719 109.281 484.877 121.991 484.877 121.991C484.877 121.991 491.032 121.991 492.901 120.669C494.77 119.348 507.885 130.708 503.073 136.524Z" fill="black"/>
<path d="M503.073 135.468C503.073 135.468 494.512 140.753 480.602 135.468C480.602 135.468 465.354 129.94 460.536 119.083C455.719 108.225 444.488 96.3341 444.488 96.3341C444.488 96.3341 424.96 88.9319 426.023 81.5352C427.086 74.1384 448.495 89.7279 448.495 89.7279L457.056 97.6554L484.877 120.912C484.877 120.912 491.032 120.912 492.901 119.591C494.769 118.27 507.885 129.652 503.073 135.468Z" fill="#F7C4A7"/>
<path opacity="0.1" d="M461.342 89.4791L484.345 87.6272C483.162 91.1212 482.358 94.7291 481.944 98.3906C479.27 101.13 475.614 102.723 471.763 102.826C467.912 102.93 464.174 101.535 461.353 98.9434C461.939 95.8149 461.935 92.6063 461.342 89.4791Z" fill="black"/>
<path d="M471.643 102.034C479.768 102.034 486.354 95.5268 486.354 87.5002C486.354 79.4735 479.768 72.9666 471.643 72.9666C463.519 72.9666 456.933 79.4735 456.933 87.5002C456.933 95.5268 463.519 102.034 471.643 102.034Z" fill="#F7C4A7"/>
<path opacity="0.1" d="M479.717 90.6567C478.856 89.2525 480.607 87.4227 480.031 85.8859C479.499 84.4706 477.384 84.2274 476.674 82.9062C476.114 81.8392 476.674 80.529 476.45 79.3515C476.131 77.8313 474.475 76.886 472.902 76.8086C471.33 76.7312 469.813 77.3116 468.319 77.8092C465.885 78.6218 463.323 79.2465 460.771 78.959C458.22 78.6716 455.674 77.3006 454.538 75.0506C454.352 74.7229 454.254 74.3538 454.252 73.9781C454.297 73.1489 455.069 72.5795 455.567 71.9161C456.44 70.7607 456.541 69.1852 457.336 67.9801C458.958 65.5256 462.523 65.5864 465.488 65.5753C469.853 65.5753 474.195 64.7682 478.559 64.9119C482.924 65.0557 487.512 66.2774 490.405 69.5169C493.874 73.4143 494.031 79.1194 494.003 84.3159C494.003 86.4553 493.913 88.7826 492.531 90.4356C492.128 90.9165 491.636 91.3145 491.25 91.8065C490.41 92.9122 490.187 94.3274 489.398 95.4496C487.999 97.4453 485.268 97.9318 482.834 98.2524C483.55 98.1584 482.957 93.4208 482.834 92.9841C482.364 90.806 481.855 90.8502 479.717 90.6567Z" fill="black"/>
<path d="M479.717 90.1315C478.856 88.7274 480.607 86.8975 480.031 85.3607C479.499 83.9455 477.384 83.7023 476.674 82.381C476.114 81.3141 476.674 80.0039 476.45 78.8264C476.131 77.3061 474.475 76.3608 472.902 76.2834C471.33 76.206 469.813 76.7865 468.319 77.284C465.885 78.0967 463.323 78.7214 460.771 78.4339C458.22 78.1464 455.674 76.7754 454.538 74.5255C454.352 74.1977 454.254 73.8286 454.252 73.453C454.297 72.6238 455.069 72.0544 455.567 71.391C456.44 70.2356 456.541 68.6601 457.336 67.4549C458.958 65.0004 462.523 65.0612 465.488 65.0502C469.853 65.0502 474.195 64.243 478.559 64.3868C482.924 64.5305 487.512 65.7522 490.405 68.9917C493.874 72.8891 494.031 78.5942 494.003 83.7907C494.003 85.9301 493.913 88.2575 492.531 89.9104C492.128 90.3914 491.636 90.7894 491.25 91.2814C490.41 92.387 490.187 93.8023 489.398 94.9245C487.999 96.9202 485.268 97.4066 482.834 97.7273C483.55 97.6333 482.957 92.8956 482.834 92.4589C482.364 90.2531 481.855 90.3195 479.717 90.1315Z" fill="#281C1C"/>
<path opacity="0.1" d="M502.939 137.187C502.939 137.187 495.715 118.685 490.097 118.159C484.479 117.634 500.796 118.159 500.796 118.159L506.145 127.673L502.939 137.187Z" fill="black"/>
<path d="M503.476 137.187C503.476 137.187 496.252 118.685 490.634 118.159C485.016 117.634 501.333 118.159 501.333 118.159L506.682 127.673L503.476 137.187Z" fill="#E14B5A"/>
<path d="M483.254 350.178C483.634 353.047 483.813 355.357 483.813 355.357C484.082 353.771 500.667 346.634 500.667 346.634V342.339C500.245 342.323 499.821 342.343 499.402 342.399C496.185 342.825 493.203 344.367 490.45 346.015C488.124 347.523 485.723 348.912 483.254 350.178Z" fill="#618FD8"/>
<path opacity="0.3" d="M483.254 350.178C483.634 353.047 483.813 355.357 483.813 355.357C484.082 353.771 500.667 346.634 500.667 346.634V342.339C500.245 342.323 499.821 342.343 499.402 342.399C496.185 342.825 493.203 344.367 490.45 346.015C488.124 347.523 485.723 348.912 483.254 350.178Z" fill="black"/>
<path d="M442.882 348.22C446.357 346.634 461.073 351.653 461.073 351.653L462.562 346.65C459.993 346.136 457.442 345.495 454.935 344.732C453.765 344.398 452.62 343.98 451.511 343.483C450.77 343.092 450.007 342.741 449.228 342.432C447.308 341.78 445.311 342.057 443.341 342.383C443.084 345.943 442.882 348.22 442.882 348.22Z" fill="#618FD8"/>
<path opacity="0.3" d="M442.882 348.22C446.357 346.634 461.073 351.653 461.073 351.653L462.562 346.65C459.993 346.136 457.442 345.495 454.935 344.732C453.765 344.398 452.62 343.98 451.511 343.483C450.77 343.092 450.007 342.741 449.228 342.432C447.308 341.78 445.311 342.057 443.341 342.383C443.084 345.943 442.882 348.22 442.882 348.22Z" fill="black"/>
<path opacity="0.4" d="M515.512 363.285C515.736 363.19 515.935 363.046 516.094 362.864C516.253 362.682 516.368 362.467 516.43 362.234C516.529 362.599 516.491 362.987 516.322 363.326C516.153 363.665 515.865 363.931 515.512 364.075C512.3 365.662 493.846 366.718 484.737 359.846V359.056C493.846 365.927 512.3 364.871 515.512 363.285Z" fill="white"/>
<path opacity="0.4" d="M432.318 364.341C437.914 365.662 458.002 362.754 459.87 359.581V360.371C457.996 363.545 437.936 366.452 432.318 365.131C430.024 364.578 429.291 363.473 429.521 362.262C429.7 363.158 430.539 363.898 432.318 364.341Z" fill="white"/>
<path opacity="0.1" d="M464.951 171.811C464.951 171.811 459.064 169.959 457.459 171.811C455.853 173.663 442.127 178.002 442.127 178.002" fill="black"/>
<path d="M398.348 99.1921H426.969V98.5951H398.348V99.1921Z" fill="#8ED16F"/>
<path d="M398.348 99.7893H426.969V99.1923H398.348V99.7893Z" fill="#8ED16F"/>
<path opacity="0.1" d="M398.348 99.7893H426.969V99.1923H398.348V99.7893Z" fill="black"/>
<path d="M398.348 100.386H426.969V99.7892H398.348V100.386Z" fill="#8ED16F"/>
<path d="M398.348 100.978H426.969V100.381H398.348V100.978Z" fill="#8ED16F"/>
<path opacity="0.1" d="M398.348 100.978H426.969V100.381H398.348V100.978Z" fill="black"/>
<path d="M398.348 101.575H426.969V100.978H398.348V101.575Z" fill="#8ED16F"/>
<path d="M398.348 102.167H426.969V101.569H398.348V102.167Z" fill="#8ED16F"/>
<path opacity="0.1" d="M398.348 102.167H426.969V101.569H398.348V102.167Z" fill="black"/>
<path d="M398.348 102.763H426.969V102.166H398.348V102.763Z" fill="#8ED16F"/>
<path d="M398.348 103.355H426.969V102.758H398.348V103.355Z" fill="#8ED16F"/>
<path opacity="0.1" d="M398.348 103.355H426.969V102.758H398.348V103.355Z" fill="black"/>
<path d="M398.348 94.438H426.969V93.8409H398.348V94.438Z" fill="#8ED16F"/>
<path d="M418.592 80.3026L440.597 98.3838L440.984 97.9248L418.979 79.8435L418.592 80.3026Z" fill="#8ED16F"/>
<path d="M398.53 70.7899L420.535 88.8711L420.922 88.4121L398.917 70.3309L398.53 70.7899Z" fill="#8ED16F"/>
<path d="M398.348 95.0295H426.969V94.4325H398.348V95.0295Z" fill="#8ED16F"/>
<path opacity="0.1" d="M398.348 95.0295H426.969V94.4325H398.348V95.0295Z" fill="black"/>
<path d="M398.348 95.6321H426.969V95.035H398.348V95.6321Z" fill="#8ED16F"/>
<path d="M398.348 96.2236H426.969V95.6266H398.348V96.2236Z" fill="#8ED16F"/>
<path opacity="0.1" d="M398.348 96.2236H426.969V95.6266H398.348V96.2236Z" fill="black"/>
<path d="M398.348 96.8152H426.969V96.2181H398.348V96.8152Z" fill="#8ED16F"/>
<path d="M398.348 97.4121H426.969V96.8151H398.348V97.4121Z" fill="#8ED16F"/>
<path opacity="0.1" d="M398.348 97.4121H426.969V96.8151H398.348V97.4121Z" fill="black"/>
<path d="M398.348 98.0037H426.969V97.4066H398.348V98.0037Z" fill="#8ED16F"/>
<path d="M398.348 98.6008H426.969V98.0038H398.348V98.6008Z" fill="#8ED16F"/>
<path opacity="0.1" d="M398.348 98.6008H426.969V98.0038H398.348V98.6008Z" fill="black"/>
<path d="M394.72 121.782L404.975 123.663L408.686 103.917L398.431 102.036L394.72 121.782Z" fill="#8ED16F"/>
<path d="M403.948 113.298C404.379 111.002 403.788 108.967 402.627 108.754C401.467 108.541 400.176 110.23 399.744 112.527C399.313 114.823 399.904 116.857 401.064 117.07C402.225 117.283 403.516 115.594 403.948 113.298Z" fill="#8ED16F"/>
<path opacity="0.1" d="M403.948 113.298C404.379 111.002 403.788 108.967 402.627 108.754C401.467 108.541 400.176 110.23 399.744 112.527C399.313 114.823 399.904 116.857 401.064 117.07C402.225 117.283 403.516 115.594 403.948 113.298Z" fill="black"/>
<path d="M396.475 163.461L406.729 165.343L410.441 145.596L400.186 143.715L396.475 163.461Z" fill="#8ED16F"/>
<path d="M405.697 154.973C406.129 152.676 405.538 150.642 404.377 150.429C403.216 150.216 401.926 151.905 401.494 154.201C401.062 156.498 401.653 158.532 402.814 158.745C403.975 158.958 405.265 157.269 405.697 154.973Z" fill="#8ED16F"/>
<path opacity="0.1" d="M405.697 154.973C406.129 152.676 405.538 150.642 404.377 150.429C403.216 150.216 401.926 151.905 401.494 154.201C401.062 156.498 401.653 158.532 402.814 158.745C403.975 158.958 405.265 157.269 405.697 154.973Z" fill="black"/>
<path d="M359.385 61.015L354.421 70.0776L372.299 79.6362L377.263 70.5735L359.385 61.015Z" fill="#8ED16F"/>
<path d="M371.35 72.7443C371.916 71.7179 370.689 69.9771 368.609 68.856C366.529 67.7348 364.383 67.658 363.816 68.6844C363.249 69.7107 364.477 71.4516 366.557 72.5727C368.637 73.6938 370.783 73.7706 371.35 72.7443Z" fill="#8ED16F"/>
<path opacity="0.1" d="M371.35 72.7443C371.916 71.7179 370.689 69.9771 368.609 68.856C366.529 67.7348 364.383 67.658 363.816 68.6844C363.249 69.7107 364.477 71.4516 366.557 72.5727C368.637 73.6938 370.783 73.7706 371.35 72.7443Z" fill="black"/>
<path d="M320.128 239.865L315.164 248.927L333.042 258.486L338.006 249.423L320.128 239.865Z" fill="#8ED16F"/>
<path d="M330.292 251.309C330.854 250.284 329.624 248.551 327.545 247.439C325.466 246.328 323.325 246.258 322.763 247.284C322.201 248.31 323.431 250.042 325.51 251.154C327.589 252.265 329.73 252.335 330.292 251.309Z" fill="#8ED16F"/>
<path opacity="0.1" d="M330.292 251.309C330.854 250.284 329.624 248.551 327.545 247.439C325.466 246.328 323.325 246.258 322.763 247.284C322.201 248.31 323.431 250.042 325.51 251.154C327.589 252.265 329.73 252.335 330.292 251.309Z" fill="black"/>
<path d="M296.109 92.2718L291.146 101.334L309.024 110.893L313.988 101.83L296.109 92.2718Z" fill="#8ED16F"/>
<path d="M306.269 103.708C306.831 102.683 305.601 100.95 303.521 99.8382C301.442 98.7266 299.301 98.657 298.739 99.6828C298.178 100.709 299.408 102.441 301.487 103.553C303.566 104.664 305.707 104.734 306.269 103.708Z" fill="#8ED16F"/>
<path opacity="0.1" d="M306.269 103.708C306.831 102.683 305.601 100.95 303.521 99.8382C301.442 98.7266 299.301 98.657 298.739 99.6828C298.178 100.709 299.408 102.441 301.487 103.553C303.566 104.664 305.707 104.734 306.269 103.708Z" fill="black"/>
<path d="M326.213 61.0126L321.249 70.0752L339.127 79.6338L344.091 70.5711L326.213 61.0126Z" fill="#8ED16F"/>
<path d="M336.372 72.449C336.934 71.4232 335.704 69.6906 333.625 68.579C331.546 67.4674 329.405 67.3978 328.843 68.4235C328.281 69.4492 329.511 71.1819 331.59 72.2935C333.67 73.4051 335.81 73.4747 336.372 72.449Z" fill="#8ED16F"/>
<path opacity="0.1" d="M336.372 72.449C336.934 71.4232 335.704 69.6906 333.625 68.579C331.546 67.4674 329.405 67.3978 328.843 68.4235C328.281 69.4492 329.511 71.1819 331.59 72.2935C333.67 73.4051 335.81 73.4747 336.372 72.449Z" fill="black"/>
<path d="M356.268 97.8966L345.899 99.0166L348.109 118.982L358.477 117.861L356.268 97.8966Z" fill="#8ED16F"/>
<path d="M352.517 112.66C353.69 112.533 354.433 110.548 354.176 108.227C353.919 105.905 352.76 104.125 351.586 104.252C350.413 104.379 349.67 106.364 349.927 108.686C350.184 111.008 351.343 112.787 352.517 112.66Z" fill="#8ED16F"/>
<path opacity="0.1" d="M352.517 112.66C353.69 112.533 354.433 110.548 354.176 108.227C353.919 105.905 352.76 104.125 351.586 104.252C350.413 104.379 349.67 106.364 349.927 108.686C350.184 111.008 351.343 112.787 352.517 112.66Z" fill="black"/>
<path d="M427.354 207.221L416.985 208.341L419.195 228.306L429.563 227.186L427.354 207.221Z" fill="#8ED16F"/>
<path d="M423.608 221.984C424.781 221.858 425.524 219.873 425.267 217.551C425.01 215.229 423.851 213.45 422.677 213.576C421.504 213.703 420.761 215.688 421.018 218.01C421.274 220.332 422.434 222.111 423.608 221.984Z" fill="#8ED16F"/>
<path opacity="0.1" d="M423.608 221.984C424.781 221.858 425.524 219.873 425.267 217.551C425.01 215.229 423.851 213.45 422.677 213.576C421.504 213.703 420.761 215.688 421.018 218.01C421.274 220.332 422.434 222.111 423.608 221.984Z" fill="black"/>
<path d="M315.669 140.307L310.705 149.37L328.584 158.928L333.547 149.866L315.669 140.307Z" fill="#8ED16F"/>
<path d="M325.826 151.751C326.388 150.725 325.158 148.993 323.079 147.881C320.999 146.769 318.858 146.7 318.297 147.725C317.735 148.751 318.965 150.484 321.044 151.596C323.123 152.707 325.264 152.777 325.826 151.751Z" fill="#8ED16F"/>
<path opacity="0.1" d="M325.826 151.751C326.388 150.725 325.158 148.993 323.079 147.881C320.999 146.769 318.858 146.7 318.297 147.725C317.735 148.751 318.965 150.484 321.044 151.596C323.123 152.707 325.264 152.777 325.826 151.751Z" fill="black"/>
<path d="M270.553 127.577L265.589 136.64L283.468 146.198L288.432 137.136L270.553 127.577Z" fill="#8ED16F"/>
<path d="M282.197 139.622C282.764 138.596 281.537 136.855 279.457 135.734C277.376 134.613 275.23 134.536 274.664 135.563C274.097 136.589 275.324 138.33 277.405 139.451C279.485 140.572 281.631 140.649 282.197 139.622Z" fill="#8ED16F"/>
<path opacity="0.1" d="M282.197 139.622C282.764 138.596 281.537 136.855 279.457 135.734C277.376 134.613 275.23 134.536 274.664 135.563C274.097 136.589 275.324 138.33 277.405 139.451C279.485 140.572 281.631 140.649 282.197 139.622Z" fill="black"/>
<path d="M256.104 341.909L251.14 350.971L269.019 360.53L273.983 351.467L256.104 341.909Z" fill="#8ED16F"/>
<path d="M266.262 353.347C266.824 352.322 265.594 350.589 263.515 349.477C261.436 348.366 259.295 348.296 258.733 349.322C258.171 350.348 259.401 352.08 261.48 353.192C263.56 354.304 265.701 354.373 266.262 353.347Z" fill="#8ED16F"/>
<path opacity="0.1" d="M266.262 353.347C266.824 352.322 265.594 350.589 263.515 349.477C261.436 348.366 259.295 348.296 258.733 349.322C258.171 350.348 259.401 352.08 261.48 353.192C263.56 354.304 265.701 354.373 266.262 353.347Z" fill="black"/>
<path d="M243.096 345.402L241.194 355.533L261.181 359.197L263.084 349.065L243.096 345.402Z" fill="#8ED16F"/>
<path opacity="0.05" d="M243.096 345.402L241.194 355.533L261.181 359.197L263.084 349.065L243.096 345.402Z" fill="black"/>
<path d="M256.327 353.199C256.542 352.052 254.832 350.777 252.508 350.351C250.184 349.925 248.125 350.509 247.909 351.656C247.694 352.803 249.404 354.078 251.728 354.504C254.053 354.93 256.112 354.346 256.327 353.199Z" fill="#8ED16F"/>
<path opacity="0.1" d="M256.327 353.199C256.542 352.052 254.832 350.777 252.508 350.351C250.184 349.925 248.125 350.509 247.909 351.656C247.694 352.803 249.404 354.078 251.728 354.504C254.053 354.93 256.112 354.346 256.327 353.199Z" fill="black"/>
<path d="M244.969 351.477L243.066 361.609L263.054 365.273L264.956 355.141L244.969 351.477Z" fill="#8ED16F"/>
<path d="M258.194 359.275C258.409 358.128 256.7 356.853 254.375 356.427C252.051 356.001 249.992 356.585 249.777 357.732C249.561 358.879 251.271 360.154 253.595 360.58C255.92 361.006 257.979 360.422 258.194 359.275Z" fill="#8ED16F"/>
<path opacity="0.1" d="M258.194 359.275C258.409 358.128 256.7 356.853 254.375 356.427C252.051 356.001 249.992 356.585 249.777 357.732C249.561 358.879 251.271 360.154 253.595 360.58C255.92 361.006 257.979 360.422 258.194 359.275Z" fill="black"/>
<path d="M277.193 367.956L272.229 377.019L290.107 386.578L295.071 377.515L277.193 367.956Z" fill="#8ED16F"/>
<path d="M287.357 379.395C287.919 378.37 286.689 376.637 284.61 375.525C282.531 374.414 280.39 374.344 279.828 375.37C279.266 376.396 280.496 378.128 282.575 379.24C284.654 380.351 286.795 380.421 287.357 379.395Z" fill="#8ED16F"/>
<path opacity="0.1" d="M287.357 379.395C287.919 378.37 286.689 376.637 284.61 375.525C282.531 374.414 280.39 374.344 279.828 375.37C279.266 376.396 280.496 378.128 282.575 379.24C284.654 380.351 286.795 380.421 287.357 379.395Z" fill="black"/>
<path d="M264.189 371.443L262.287 381.574L282.274 385.238L284.176 375.106L264.189 371.443Z" fill="#8ED16F"/>
<path opacity="0.05" d="M264.189 371.443L262.287 381.574L282.274 385.238L284.176 375.106L264.189 371.443Z" fill="black"/>
<path d="M277.414 379.24C277.63 378.093 275.92 376.818 273.595 376.392C271.271 375.966 269.212 376.55 268.997 377.697C268.781 378.844 270.491 380.119 272.816 380.545C275.14 380.971 277.199 380.387 277.414 379.24Z" fill="#8ED16F"/>
<path opacity="0.1" d="M277.414 379.24C277.63 378.093 275.92 376.818 273.595 376.392C271.271 375.966 269.212 376.55 268.997 377.697C268.781 378.844 270.491 380.119 272.816 380.545C275.14 380.971 277.199 380.387 277.414 379.24Z" fill="black"/>
<path d="M266.061 377.525L264.158 387.656L284.146 391.32L286.048 381.188L266.061 377.525Z" fill="#8ED16F"/>
<path d="M279.292 385.322C279.507 384.175 277.797 382.901 275.473 382.474C273.148 382.048 271.09 382.633 270.874 383.779C270.659 384.926 272.369 386.201 274.693 386.627C277.018 387.053 279.076 386.469 279.292 385.322Z" fill="#8ED16F"/>
<path opacity="0.1" d="M279.292 385.322C279.507 384.175 277.797 382.901 275.473 382.474C273.148 382.048 271.09 382.633 270.874 383.779C270.659 384.926 272.369 386.201 274.693 386.627C277.018 387.053 279.076 386.469 279.292 385.322Z" fill="black"/>
<path d="M308.834 351.17L303.87 360.232L321.749 369.791L326.712 360.728L308.834 351.17Z" fill="#8ED16F"/>
<path d="M318.987 362.606C319.549 361.58 318.319 359.848 316.24 358.736C314.161 357.625 312.02 357.555 311.458 358.581C310.896 359.606 312.126 361.339 314.205 362.451C316.284 363.562 318.425 363.632 318.987 362.606Z" fill="#8ED16F"/>
<path opacity="0.1" d="M318.987 362.606C319.549 361.58 318.319 359.848 316.24 358.736C314.161 357.625 312.02 357.555 311.458 358.581C310.896 359.606 312.126 361.339 314.205 362.451C316.284 363.562 318.425 363.632 318.987 362.606Z" fill="black"/>
<path d="M295.827 354.659L293.925 364.791L313.912 368.454L315.815 358.323L295.827 354.659Z" fill="#8ED16F"/>
<path opacity="0.05" d="M295.827 354.659L293.925 364.791L313.912 368.454L315.815 358.323L295.827 354.659Z" fill="black"/>
<path d="M309.052 362.456C309.267 361.31 307.558 360.035 305.233 359.609C302.909 359.183 300.85 359.767 300.635 360.914C300.419 362.06 302.129 363.335 304.453 363.761C306.778 364.187 308.837 363.603 309.052 362.456Z" fill="#8ED16F"/>
<path opacity="0.1" d="M309.052 362.456C309.267 361.31 307.558 360.035 305.233 359.609C302.909 359.183 300.85 359.767 300.635 360.914C300.419 362.06 302.129 363.335 304.453 363.761C306.778 364.187 308.837 363.603 309.052 362.456Z" fill="black"/>
<path d="M297.699 360.741L295.797 370.872L315.784 374.536L317.687 364.404L297.699 360.741Z" fill="#8ED16F"/>
<path d="M310.93 368.539C311.145 367.392 309.436 366.117 307.111 365.691C304.787 365.265 302.728 365.849 302.512 366.996C302.297 368.143 304.007 369.418 306.331 369.844C308.656 370.27 310.715 369.686 310.93 368.539Z" fill="#8ED16F"/>
<path opacity="0.1" d="M310.93 368.539C311.145 367.392 309.436 366.117 307.111 365.691C304.787 365.265 302.728 365.849 302.512 366.996C302.297 368.143 304.007 369.418 306.331 369.844C308.656 370.27 310.715 369.686 310.93 368.539Z" fill="black"/>
</g>
<defs>
<linearGradient id="paint0_linear_1_1840" x1="258.354" y1="343.063" x2="258.354" y2="146.751" gradientUnits="userSpaceOnUse">
<stop stop-color="#808080" stop-opacity="0.25"/>
<stop offset="0.54" stop-color="#808080" stop-opacity="0.12"/>
<stop offset="1" stop-color="#808080" stop-opacity="0.1"/>
</linearGradient>
<linearGradient id="paint1_linear_1_1840" x1="457.498" y1="367.646" x2="457.498" y2="62.3911" gradientUnits="userSpaceOnUse">
<stop stop-color="#808080" stop-opacity="0.25"/>
<stop offset="0.54" stop-color="#808080" stop-opacity="0.12"/>
<stop offset="1" stop-color="#808080" stop-opacity="0.1"/>
</linearGradient>
<clipPath id="clip0_1_1840">
<rect width="545" height="395" fill="white"/>
</clipPath>
</defs>
</svg>
