<svg width="16" height="14" viewBox="0 0 16 14" fill="none" xmlns="http://www.w3.org/2000/svg">
<path d="M13.5 0.574707C14.163 0.574707 14.7989 0.838099 15.2678 1.30694C15.7366 1.77578 16 2.41167 16 3.07471V11.0747C16 11.7377 15.7366 12.3736 15.2678 12.8425C14.7989 13.3113 14.163 13.5747 13.5 13.5747H2.5C1.83696 13.5747 1.20107 13.3113 0.732233 12.8425C0.263392 12.3736 0 11.7377 0 11.0747V3.07471C0 2.41167 0.263392 1.77578 0.732233 1.30694C1.20107 0.838099 1.83696 0.574707 2.5 0.574707H13.5ZM15 4.53571L8.254 8.50571C8.19022 8.54315 8.11893 8.56598 8.04527 8.57255C7.9716 8.57913 7.8974 8.56927 7.828 8.54371L7.746 8.50571L1 4.53771V11.0747C1 11.4725 1.15804 11.8541 1.43934 12.1354C1.72064 12.4167 2.10218 12.5747 2.5 12.5747H13.5C13.8978 12.5747 14.2794 12.4167 14.5607 12.1354C14.842 11.8541 15 11.4725 15 11.0747V4.53571ZM13.5 1.57471H2.5C2.10218 1.57471 1.72064 1.73274 1.43934 2.01405C1.15804 2.29535 1 2.67688 1 3.07471V3.37671L8 7.49471L15 3.37471V3.07471C15 2.67688 14.842 2.29535 14.5607 2.01405C14.2794 1.73274 13.8978 1.57471 13.5 1.57471Z" fill="#787878"/>
</svg>
