<svg width="20" height="13" viewBox="0 0 20 13" fill="none" xmlns="http://www.w3.org/2000/svg">
<path d="M1.912 8.49711C2.7304 4.56711 6.1516 1.77471 10 1.77471C13.8472 1.77471 17.2684 4.56711 18.088 8.49711C18.1205 8.65306 18.2135 8.78972 18.3468 8.87704C18.48 8.96435 18.6425 8.99517 18.7984 8.96271C18.9543 8.93024 19.091 8.83716 19.1783 8.70394C19.2656 8.57071 19.2965 8.40825 19.264 8.25231C18.3316 3.78231 14.4316 0.574707 10 0.574707C5.5684 0.574707 1.6684 3.78231 0.735996 8.25231C0.703533 8.40825 0.73435 8.57071 0.821667 8.70394C0.908984 8.83716 1.04565 8.93024 1.2016 8.96271C1.35754 8.99517 1.52 8.96435 1.65322 8.87704C1.78645 8.78972 1.87953 8.65306 1.912 8.49711ZM10 4.17471C8.88609 4.17471 7.8178 4.61721 7.03015 5.40486C6.2425 6.19251 5.8 7.2608 5.8 8.37471C5.8 9.48862 6.2425 10.5569 7.03015 11.3446C7.8178 12.1322 8.88609 12.5747 10 12.5747C11.1139 12.5747 12.1822 12.1322 12.9698 11.3446C13.7575 10.5569 14.2 9.48862 14.2 8.37471C14.2 7.2608 13.7575 6.19251 12.9698 5.40486C12.1822 4.61721 11.1139 4.17471 10 4.17471ZM7 8.37471C7 7.57906 7.31607 6.816 7.87868 6.25339C8.44129 5.69078 9.20435 5.37471 10 5.37471C10.7956 5.37471 11.5587 5.69078 12.1213 6.25339C12.6839 6.816 13 7.57906 13 8.37471C13 9.17036 12.6839 9.93342 12.1213 10.496C11.5587 11.0586 10.7956 11.3747 10 11.3747C9.20435 11.3747 8.44129 11.0586 7.87868 10.496C7.31607 9.93342 7 9.17036 7 8.37471Z" fill="#333333"/>
</svg>
