<svg width="20" height="20" viewBox="0 0 20 20" fill="none" xmlns="http://www.w3.org/2000/svg">
<path d="M9.9999 0.399994C12.546 0.399994 14.9878 1.41142 16.7881 3.21177C18.5885 5.01212 19.5999 7.45392 19.5999 9.99999C19.5999 12.5461 18.5885 14.9879 16.7881 16.7882C14.9878 18.5886 12.546 19.6 9.9999 19.6C7.45382 19.6 5.01203 18.5886 3.21168 16.7882C1.41133 14.9879 0.399902 12.5461 0.399902 9.99999C0.399902 7.45392 1.41133 5.01212 3.21168 3.21177C5.01203 1.41142 7.45382 0.399994 9.9999 0.399994V0.399994ZM9.9999 13C9.76121 13 9.53229 13.0948 9.36351 13.2636C9.19472 13.4324 9.0999 13.6613 9.0999 13.9C9.0999 14.1387 9.19472 14.3676 9.36351 14.5364C9.53229 14.7052 9.76121 14.8 9.9999 14.8C10.2386 14.8 10.4675 14.7052 10.6363 14.5364C10.8051 14.3676 10.8999 14.1387 10.8999 13.9C10.8999 13.6613 10.8051 13.4324 10.6363 13.2636C10.4675 13.0948 10.2386 13 9.9999 13V13ZM9.9999 5.19999C9.85947 5.19995 9.72347 5.24916 9.61559 5.33906C9.50771 5.42896 9.43478 5.55386 9.4095 5.69199L9.3999 5.79999V11.2L9.4095 11.308C9.43455 11.4463 9.50738 11.5715 9.61529 11.6616C9.72319 11.7517 9.85931 11.8011 9.9999 11.8011C10.1405 11.8011 10.2766 11.7517 10.3845 11.6616C10.4924 11.5715 10.5653 11.4463 10.5903 11.308L10.5999 11.2V5.79999L10.5903 5.69199C10.565 5.55386 10.4921 5.42896 10.3842 5.33906C10.2763 5.24916 10.1403 5.19995 9.9999 5.19999Z" fill="#CC1414"/>
</svg>
