<svg width="485" height="318" viewBox="0 0 485 318" fill="none" xmlns="http://www.w3.org/2000/svg">
<g clip-path="url(#clip0_1_600)">
<path d="M316.533 138.852C315.974 141.779 315.304 144.677 314.522 147.544C314.437 147.877 314.342 148.205 314.248 148.538H303.375C302.449 148.539 301.561 148.906 300.907 149.558C300.252 150.21 299.883 151.094 299.882 152.017V182.888C299.553 183.499 299.219 184.105 298.884 184.711C297.158 187.842 295.362 190.938 293.525 193.995C263.584 243.668 221.824 285.236 171.932 315.028L174.886 308.389C173.803 308.314 172.715 308.24 171.632 308.165C148.056 306.56 124.4 304.781 101.377 299.503C77.2922 293.982 53.731 284.406 34.855 268.528C15.9739 252.645 2.13257 229.964 0.211494 205.425C-0.429084 196.991 0.427318 188.511 2.74142 180.373C7.16709 164.709 16.8373 150.615 30.7885 142.276C52.7031 129.182 81.2891 131.85 104.391 142.744C127.489 153.632 146.29 171.656 164.647 189.368C146.113 157.713 120.307 130.886 89.3474 111.087C79.0886 104.547 68.2011 98.7231 59.4792 90.25C50.7621 81.7819 44.3303 69.9096 45.8723 57.8783C47.6236 44.2319 58.8455 33.8753 70.0872 25.8893C74.5779 22.6988 79.2133 19.6723 83.9935 16.8894C97.4805 9.0176 112.07 3.07897 127.479 0.877455C148.35 -2.10925 170.894 2.42299 186.896 16.0992C204.924 31.5098 212.318 56.3626 211.615 80.137C222.722 64.0555 239.851 51.7459 259.196 51.2241C279.28 50.6874 298.371 63.3249 308.43 80.6488C318.484 97.9678 320.29 119.198 316.533 138.852Z" fill="#E6E6E6"/>
<path d="M189.467 205.641C201.23 204.609 212.096 203.404 223.494 200.191C234.543 197.077 245.175 191.865 253.041 183.353C261.5 174.199 266.067 162.309 269.289 150.474C271.086 143.876 272.562 137.185 273.955 130.492C275.466 123.229 276.808 115.935 277.983 108.609C280.32 94.0257 281.989 79.3566 282.989 64.6016C283.11 62.8106 283.22 61.0189 283.321 59.2266C283.384 58.121 281.657 58.1245 281.595 59.2266C280.773 73.7708 279.295 88.2583 277.161 102.689C275.055 116.867 272.361 130.984 268.942 144.908C266.046 156.704 262.296 168.684 254.868 178.504C247.903 187.712 237.843 193.729 226.98 197.327C215.926 200.988 204.272 202.45 192.721 203.537C191.304 203.67 190.884 203.797 189.467 203.921C188.368 204.018 188.358 205.738 189.467 205.641L189.467 205.641Z" fill="white"/>
<path d="M3.738 181.642C18.5792 182.461 33.2694 185.04 47.498 189.322C61.7327 193.595 75.4118 199.525 88.2519 206.989C100.659 214.208 112.177 222.845 122.571 232.725C132.659 242.319 141.65 252.996 149.379 264.561C157.144 276.154 163.579 288.578 168.563 301.6C169.171 303.194 169.756 304.796 170.319 306.406C170.683 307.444 172.351 306.998 171.984 305.949C167.321 292.652 161.173 279.919 153.657 267.988C146.143 256.056 137.324 244.991 127.362 234.994C117.24 224.843 105.975 215.889 93.7908 208.312C68.2081 192.44 39.2102 182.838 9.17849 180.295C7.36692 180.144 5.55343 180.02 3.73802 179.922C2.62782 179.862 2.63123 181.581 3.73802 181.642L3.738 181.642Z" fill="white"/>
<path d="M84.46 18.905C93.9492 21.9107 102.944 26.2883 111.156 31.8975C119.547 37.6683 127.2 44.4372 133.944 52.0541C141.052 60.0669 147.372 68.7407 152.815 77.956C158.59 87.6862 163.606 97.8432 167.819 108.338C172.159 119.112 175.808 130.149 178.746 141.383C181.732 152.75 184.065 164.277 185.733 175.909C187.392 187.417 188.396 199.01 188.74 210.631C189.087 221.743 188.758 232.866 187.753 243.939C186.834 254.269 185.156 264.519 182.732 274.604C180.579 283.714 177.545 292.594 173.673 301.12C172.776 303.055 171.824 304.964 170.818 306.845C170.295 307.822 171.785 308.691 172.308 307.713C176.588 299.569 180.005 291.004 182.504 282.155C185.309 272.305 187.342 262.253 188.584 252.09C189.962 241.063 190.633 229.96 190.593 218.849C190.569 207.175 189.871 195.512 188.504 183.919C187.136 172.18 185.105 160.527 182.421 149.016C179.744 137.486 176.347 126.134 172.252 115.025C168.304 104.271 163.578 93.8162 158.11 83.7439C152.902 74.1324 146.833 65.0091 139.977 56.4853C133.466 48.3695 126.032 41.0325 117.825 34.6212C109.911 28.4575 101.165 23.4333 91.8457 19.6963C89.5683 18.7935 87.2594 17.977 84.919 17.2469C83.8566 16.9141 83.4021 18.5735 84.46 18.905H84.46Z" fill="white"/>
<path d="M186.866 318C255.07 318 310.361 315.775 310.361 313.03C310.361 310.286 255.07 308.061 186.866 308.061C118.662 308.061 63.3712 310.286 63.3712 313.03C63.3712 315.775 118.662 318 186.866 318Z" fill="#E6E6E6"/>
<path d="M295.975 157.379C295.914 157.647 295.874 157.919 295.856 158.194L274.421 170.509L269.211 167.522L263.657 174.764L274.803 182.676L299.256 163.462C300.253 163.83 301.34 163.886 302.37 163.624C303.4 163.362 304.326 162.793 305.024 161.994C305.722 161.195 306.16 160.204 306.278 159.151C306.397 158.098 306.19 157.035 305.687 156.102C305.184 155.169 304.407 154.41 303.461 153.928C302.514 153.445 301.443 153.261 300.388 153.399C299.334 153.538 298.347 153.993 297.559 154.704C296.77 155.414 296.218 156.347 295.975 157.379Z" fill="#FFB8B8"/>
<path d="M247.16 164.934L264.037 176.915L271.585 167.489L255.179 154.378C254.473 153.814 253.659 153.399 252.787 153.159C251.914 152.92 251.002 152.86 250.106 152.983C249.209 153.107 248.348 153.412 247.574 153.879C246.8 154.346 246.13 154.965 245.604 155.699C244.581 157.129 244.17 158.906 244.461 160.638C244.753 162.37 245.724 163.915 247.16 164.934Z" fill="#BF13BF"/>
<path d="M212.321 301.631L218.239 303.175L227.035 281.178L218.302 278.898L212.321 301.631Z" fill="#FFB8B8"/>
<path d="M228.211 311.626L209.613 306.773L211.496 299.616L222.908 302.594C224.814 303.092 226.443 304.323 227.438 306.016C228.432 307.71 228.71 309.728 228.211 311.626Z" fill="#2F2E41"/>
<path d="M264.924 305.827L270.946 304.756L269.662 281.112L260.775 282.693L264.924 305.827Z" fill="#FFB8B8"/>
<path d="M283.558 308.259L264.632 311.626L263.326 304.343L274.94 302.277C275.9 302.106 276.885 302.125 277.837 302.334C278.79 302.542 279.693 302.935 280.493 303.49C281.293 304.046 281.976 304.753 282.502 305.571C283.028 306.389 283.387 307.303 283.558 308.259Z" fill="#2F2E41"/>
<path d="M253.066 131.946C254.55 132.306 255.757 133.812 256.482 135.556C257.151 137.389 257.603 139.292 257.831 141.229C258.401 144.835 258.948 148.739 257.77 152.079C256.389 155.994 252.709 158.044 249.517 157.081C246.325 156.117 243.787 152.5 242.92 148.337C242.13 144.131 242.639 139.784 244.379 135.871C245.286 133.816 246.535 131.919 248.196 130.991C249.011 130.501 249.982 130.335 250.914 130.529C251.846 130.722 252.67 131.26 253.22 132.034" fill="#2F2E41"/>
<path d="M261.462 197.24L272.927 299.51L263.458 303.091L245.994 234.511L221.68 297.216L211.315 297.79C211.315 297.79 225.536 200.221 236.075 198.004L261.462 197.24Z" fill="#2F2E41"/>
<path d="M251.832 144.998C258.601 144.998 264.087 139.533 264.087 132.792C264.087 126.051 258.601 120.586 251.832 120.586C245.064 120.586 239.577 126.051 239.577 132.792C239.577 139.533 245.064 144.998 251.832 144.998Z" fill="#FFB8B8"/>
<path d="M257.092 150.118L243.848 148.398C243.848 148.398 235.211 158.721 235.787 176.498C236.363 194.276 234.348 199.724 234.348 199.724L261.961 200.221C257.969 194.755 274.665 163.359 257.092 150.118Z" fill="#BF13BF"/>
<path d="M264.206 202.706C263.93 202.708 263.655 202.732 263.382 202.777L246.44 184.814L248.167 179.079L239.818 175.351L234.635 187.968L259.011 207.279C258.88 208.331 259.073 209.396 259.565 210.335C260.058 211.274 260.825 212.042 261.766 212.536C262.706 213.03 263.776 213.227 264.832 213.101C265.887 212.975 266.88 212.532 267.677 211.83C268.473 211.129 269.037 210.202 269.292 209.174C269.547 208.146 269.482 207.065 269.106 206.074C268.729 205.084 268.058 204.231 267.183 203.629C266.308 203.028 265.27 202.706 264.206 202.706Z" fill="#FFB8B8"/>
<path d="M245.65 157.107L237.803 176.212L248.743 181.373L257.803 162.466C258.193 161.653 258.412 160.769 258.446 159.868C258.481 158.967 258.331 158.069 258.005 157.228C257.679 156.388 257.184 155.622 256.55 154.978C255.917 154.335 255.158 153.827 254.32 153.486C253.512 153.156 252.647 152.989 251.774 152.993C250.901 152.997 250.037 153.172 249.232 153.508C248.427 153.844 247.696 154.335 247.081 154.953C246.467 155.57 245.98 156.302 245.65 157.107Z" fill="#BF13BF"/>
<path d="M248.626 143.889C250.547 142.785 250.752 140.124 250.491 137.931C250.23 135.739 249.794 133.294 251.088 131.502C252.632 129.362 255.735 129.319 258.38 129.25C261.025 129.18 264.246 128.408 264.931 125.863C265.384 124.181 264.415 122.377 263.025 121.321C261.634 120.265 259.895 119.798 258.205 119.355C254.423 118.363 250.518 117.362 246.645 117.907C242.81 118.447 239.342 120.47 236.992 123.537C234.643 126.604 233.6 130.47 234.09 134.297C234.717 139.192 235.626 141.33 235.029 143.489C233.918 147.509 229.126 150.092 229.03 154.261C228.956 157.522 231.848 160.038 234.669 161.694C236.908 163.007 239.323 164.121 241.903 164.429C244.482 164.736 247.259 164.148 249.18 162.406C251.659 160.161 252.272 156.409 251.561 153.148C250.85 149.887 249.027 146.991 247.224 144.178" fill="#2F2E41"/>
<path d="M480.509 147.544H303.375C302.185 147.546 301.044 148.018 300.202 148.856C299.36 149.694 298.886 150.831 298.885 152.017V265.323C298.886 266.508 299.36 267.645 300.202 268.483C301.044 269.322 302.185 269.793 303.375 269.795H480.509C481.7 269.793 482.841 269.322 483.683 268.483C484.524 267.645 484.998 266.508 485 265.323V152.017C484.998 150.831 484.524 149.694 483.683 148.856C482.841 148.018 481.7 147.546 480.509 147.544ZM484.002 265.323C484.001 266.245 483.633 267.129 482.978 267.781C482.323 268.434 481.435 268.8 480.509 268.801H303.375C302.449 268.8 301.561 268.434 300.907 267.781C300.252 267.129 299.883 266.245 299.882 265.323V152.017C299.883 151.094 300.252 150.21 300.907 149.558C301.561 148.906 302.449 148.539 303.375 148.538H480.509C481.435 148.539 482.323 148.906 482.978 149.558C483.633 150.21 484.001 151.094 484.002 152.017V265.323Z" fill="#3F3D56"/>
<path d="M341.185 203.946H313.242C312.118 203.945 311.04 203.5 310.245 202.708C309.45 201.916 309.003 200.842 309.001 199.722V171.893C309.003 170.773 309.45 169.699 310.245 168.907C311.04 168.115 312.118 167.67 313.242 167.669H341.185C342.309 167.67 343.387 168.115 344.182 168.907C344.977 169.699 345.425 170.773 345.426 171.893V199.722C345.425 200.842 344.977 201.916 344.182 202.708C343.387 203.5 342.309 203.945 341.185 203.946Z" fill="#BF13BF"/>
<path d="M471.284 233.52H312.612C311.752 233.52 310.927 233.18 310.318 232.574C309.71 231.968 309.368 231.146 309.368 230.29C309.368 229.433 309.71 228.611 310.318 228.006C310.927 227.4 311.752 227.059 312.612 227.059H471.284C472.144 227.059 472.969 227.4 473.577 228.006C474.185 228.611 474.527 229.433 474.527 230.29C474.527 231.146 474.185 231.968 473.577 232.574C472.969 233.18 472.144 233.52 471.284 233.52Z" fill="#CCCCCC"/>
<path d="M471.39 217.866H312.718C311.858 217.866 311.033 217.525 310.425 216.92C309.817 216.314 309.475 215.492 309.475 214.636C309.475 213.779 309.817 212.957 310.425 212.351C311.033 211.746 311.858 211.405 312.718 211.405H471.39C472.251 211.405 473.076 211.746 473.684 212.351C474.292 212.957 474.634 213.779 474.634 214.636C474.634 215.492 474.292 216.314 473.684 216.92C473.076 217.525 472.251 217.866 471.39 217.866Z" fill="#CCCCCC"/>
<path d="M393.052 196.492H369.601C368.741 196.492 367.916 196.151 367.307 195.546C366.699 194.94 366.357 194.118 366.357 193.262C366.357 192.405 366.699 191.583 367.307 190.978C367.916 190.372 368.741 190.031 369.601 190.031H393.052C393.912 190.031 394.737 190.372 395.346 190.978C395.954 191.583 396.296 192.405 396.296 193.262C396.296 194.118 395.954 194.94 395.346 195.546C394.737 196.151 393.912 196.492 393.052 196.492Z" fill="#CCCCCC"/>
<path d="M471.39 180.594H369.601C368.741 180.594 367.916 180.254 367.307 179.648C366.699 179.042 366.357 178.221 366.357 177.364C366.357 176.507 366.699 175.686 367.307 175.08C367.916 174.474 368.741 174.134 369.601 174.134H471.39C472.251 174.134 473.076 174.474 473.684 175.08C474.292 175.686 474.634 176.507 474.634 177.364C474.634 178.221 474.292 179.042 473.684 179.648C473.076 180.254 472.251 180.594 471.39 180.594Z" fill="#CCCCCC"/>
<path d="M389.061 249.422H312.612C311.752 249.422 310.927 249.082 310.318 248.476C309.71 247.871 309.368 247.049 309.368 246.192C309.368 245.336 309.71 244.514 310.318 243.908C310.927 243.302 311.752 242.962 312.612 242.962H389.061C389.921 242.962 390.746 243.302 391.354 243.908C391.962 244.514 392.304 245.336 392.304 246.192C392.304 247.049 391.962 247.871 391.354 248.476C390.746 249.082 389.921 249.422 389.061 249.422Z" fill="#CCCCCC"/>
</g>
<defs>
<clipPath id="clip0_1_600">
<rect width="485" height="318" fill="white"/>
</clipPath>
</defs>
</svg>
