<svg width="24" height="24" viewBox="0 0 24 24" fill="none" xmlns="http://www.w3.org/2000/svg">
<path d="M0.800049 3.20005C0.800049 2.56353 1.05291 1.95308 1.50299 1.50299C1.95308 1.05291 2.56353 0.800049 3.20005 0.800049H19.2001C19.8366 0.800049 20.447 1.05291 20.8971 1.50299C21.3472 1.95308 21.6 2.56353 21.6 3.20005V4.13605C22.0682 4.30156 22.4734 4.60818 22.76 5.01366C23.0466 5.41915 23.2003 5.90353 23.2001 6.40005V20.8001C23.2001 21.4366 22.9472 22.047 22.4971 22.4971C22.047 22.9472 21.4366 23.2001 20.8001 23.2001H4.80005C3.73918 23.2001 2.72177 22.7786 1.97162 22.0285C1.22148 21.2783 0.800049 20.2609 0.800049 19.2001V3.20005ZM2.40005 3.20005C2.40005 3.41222 2.48433 3.61571 2.63436 3.76573C2.78439 3.91576 2.98788 4.00005 3.20005 4.00005H20V3.20005C20 2.98788 19.9158 2.78439 19.7657 2.63436C19.6157 2.48433 19.4122 2.40005 19.2001 2.40005H3.20005C2.98788 2.40005 2.78439 2.48433 2.63436 2.63436C2.48433 2.78439 2.40005 2.98788 2.40005 3.20005ZM19.2001 13.6H17.6C17.3879 13.6 17.1844 13.6843 17.0344 13.8344C16.8843 13.9844 16.8001 14.1879 16.8001 14.4001C16.8001 14.6122 16.8843 14.8157 17.0344 14.9657C17.1844 15.1158 17.3879 15.2001 17.6 15.2001H19.2001C19.4122 15.2001 19.6157 15.1158 19.7657 14.9657C19.9158 14.8157 20 14.6122 20 14.4001C20 14.1879 19.9158 13.9844 19.7657 13.8344C19.6157 13.6843 19.4122 13.6 19.2001 13.6Z" fill="#DBD3EB"/>
</svg>
