<svg width="16" height="17" viewBox="0 0 16 17" fill="none" xmlns="http://www.w3.org/2000/svg">
<path d="M7.25001 5.30696C7.09001 5.49096 7.00001 5.74496 7.00001 5.99996C7.00001 6.13257 6.94733 6.25974 6.85356 6.35351C6.75979 6.44728 6.63262 6.49996 6.50001 6.49996C6.3674 6.49996 6.24022 6.44728 6.14645 6.35351C6.05269 6.25974 6.00001 6.13257 6.00001 5.99996C6.00001 5.52696 6.16101 5.02996 6.50001 4.64596C6.84701 4.25196 7.36001 3.99996 8.00001 3.99996C8.64001 3.99996 9.15301 4.25196 9.50001 4.64596C9.83901 5.03096 10 5.52596 10 5.99996C10 6.48996 9.88401 6.86996 9.69801 7.18996C9.53501 7.46896 9.32201 7.68996 9.15301 7.86696L9.11101 7.90996C8.92501 8.10496 8.78201 8.26396 8.67701 8.46396C8.57701 8.65496 8.50001 8.90796 8.50001 9.29296C8.50001 9.42557 8.44733 9.55274 8.35356 9.64651C8.25979 9.74028 8.13262 9.79296 8.00001 9.79296C7.8674 9.79296 7.74022 9.74028 7.64645 9.64651C7.55269 9.55274 7.50001 9.42557 7.50001 9.29296C7.50001 8.76096 7.61001 8.34596 7.79101 7.99996C7.96801 7.66296 8.20101 7.41596 8.38901 7.21896L8.41101 7.19596C8.59901 6.99896 8.73301 6.85896 8.83401 6.68596C8.92901 6.52296 9.00001 6.31696 9.00001 5.99996C9.00001 5.74496 8.91101 5.48996 8.75001 5.30696C8.59701 5.13396 8.36001 4.99996 8.00001 4.99996C7.64001 4.99996 7.40301 5.13396 7.25001 5.30696ZM8.00001 12.212C8.09409 12.2155 8.18793 12.2001 8.2759 12.1665C8.36387 12.133 8.44417 12.082 8.51199 12.0167C8.57981 11.9514 8.63377 11.8731 8.67062 11.7864C8.70747 11.6998 8.72646 11.6066 8.72646 11.5125C8.72646 11.4183 8.70747 11.3251 8.67062 11.2385C8.63377 11.1518 8.57981 11.0735 8.51199 11.0082C8.44417 10.9429 8.36387 10.892 8.2759 10.8584C8.18793 10.8249 8.09409 10.8094 8.00001 10.813C7.81436 10.813 7.63631 10.8867 7.50503 11.018C7.37376 11.1493 7.30001 11.3273 7.30001 11.513C7.30001 11.6986 7.37376 11.8767 7.50503 12.0079C7.63631 12.1392 7.81436 12.213 8.00001 12.213V12.212ZM8.59493e-06 7.99996C0.000445193 6.25178 0.573501 4.55187 1.63153 3.16021C2.68956 1.76856 4.17431 0.761779 5.8587 0.293856C7.54309 -0.174068 9.33439 -0.0773739 10.9586 0.569148C12.5829 1.21567 13.9506 2.37643 14.8527 3.87389C15.7548 5.37135 16.1415 7.12307 15.9537 8.86114C15.766 10.5992 15.0141 12.2279 13.813 13.4982C12.612 14.7685 11.0279 15.6104 9.30307 15.8951C7.57824 16.1799 5.80762 15.8918 4.26201 15.075L0.622009 15.985C0.538234 16.006 0.450433 16.005 0.367163 15.982C0.283893 15.9591 0.207995 15.9149 0.146864 15.8539C0.0857338 15.7929 0.0414572 15.717 0.0183492 15.6338C-0.00475879 15.5506 -0.00590963 15.4628 0.0150087 15.379L0.925009 11.738C0.315703 10.5863 -0.00190487 9.30284 8.59493e-06 7.99996ZM8.00001 0.999957C6.77839 0.999584 5.57794 1.31892 4.51796 1.92622C3.45799 2.53353 2.57541 3.40766 1.95792 4.46173C1.34044 5.51581 1.00957 6.71313 0.998178 7.9347C0.986789 9.15627 1.29529 10.3596 1.89301 11.425C1.95578 11.5361 1.97367 11.667 1.94301 11.791L1.18701 14.813L4.20901 14.057C4.33292 14.0263 4.46386 14.0442 4.57501 14.107C5.50827 14.6298 6.54894 14.9317 7.61709 14.9897C8.68525 15.0476 9.75247 14.86 10.7368 14.4412C11.7211 14.0223 12.5964 13.3835 13.2953 12.5737C13.9943 11.7639 14.4983 10.8047 14.7688 9.76971C15.0392 8.73473 15.0689 7.65154 14.8555 6.60333C14.642 5.55511 14.1912 4.56975 13.5376 3.72293C12.884 2.8761 12.045 2.19034 11.085 1.71831C10.1251 1.24628 9.06973 1.00054 8.00001 0.999957Z" fill="#BF13BF"/>
</svg>
