<svg width="24" height="25" viewBox="0 0 24 25" fill="none" xmlns="http://www.w3.org/2000/svg">
<path d="M13.603 0.820786C13.1625 0.425001 12.5912 0.206055 11.999 0.206055C11.4068 0.206055 10.8355 0.425001 10.395 0.820786L1.595 8.72799C1.3448 8.95299 1.14471 9.22809 1.00771 9.53543C0.870717 9.84278 0.799882 10.1755 0.799805 10.512V21.8C0.799805 22.4365 1.05266 23.047 1.50275 23.497C1.95284 23.9471 2.56329 24.2 3.1998 24.2H6.39981C7.03632 24.2 7.64677 23.9471 8.09686 23.497C8.54695 23.047 8.79981 22.4365 8.79981 21.8V15.4C8.79981 15.1878 8.88409 14.9843 9.03412 14.8343C9.18415 14.6843 9.38763 14.6 9.59981 14.6H14.3998C14.612 14.6 14.8155 14.6843 14.9655 14.8343C15.1155 14.9843 15.1998 15.1878 15.1998 15.4V21.8C15.1998 22.4365 15.4527 23.047 15.9027 23.497C16.3528 23.9471 16.9633 24.2 17.5998 24.2H20.7998C21.4363 24.2 22.0468 23.9471 22.4969 23.497C22.9469 23.047 23.1998 22.4365 23.1998 21.8V10.512C23.1997 10.1755 23.1289 9.84278 22.9919 9.53543C22.8549 9.22809 22.6548 8.95299 22.4046 8.72799L13.6046 0.820786H13.603Z" fill="#DBD3EB"/>
</svg>
