<svg width="505" height="393" viewBox="0 0 505 393" fill="none" xmlns="http://www.w3.org/2000/svg">
<g clip-path="url(#clip0_1_28)">
<path d="M444.933 365.488C444.896 365.326 441.337 349.097 448.606 335.618C455.875 322.139 471.391 316.195 471.547 316.136L472.256 315.87L472.423 316.609C472.46 316.771 476.019 333 468.75 346.479C461.482 359.958 445.966 365.902 445.81 365.961L445.1 366.227L444.933 365.488ZM471.283 317.674C468.175 319.01 455.909 324.861 449.77 336.245C443.63 347.63 445.483 361.094 446.073 364.423C449.18 363.09 461.441 357.248 467.586 345.852C473.726 334.467 471.874 321.005 471.283 317.674Z" fill="#BF13BF"/>
<path d="M463.196 341.751C450.133 349.609 445.103 365.218 445.103 365.218C445.103 365.218 461.25 368.086 474.313 360.228C487.375 352.369 492.406 336.761 492.406 336.761C492.406 336.761 476.258 333.893 463.196 341.751Z" fill="#DBD3EB"/>
<path d="M179.392 294.467C177.838 294.467 176.269 294.442 174.729 294.394L174.764 293.276C176.976 293.345 179.232 293.364 181.454 293.333L181.47 294.453C180.778 294.462 180.085 294.467 179.392 294.467ZM188.207 294.207L188.141 293.09C190.356 292.959 192.599 292.775 194.809 292.544L194.926 293.657C192.699 293.891 190.439 294.076 188.207 294.207ZM167.998 294.033C165.764 293.862 163.508 293.638 161.289 293.365L161.426 292.254C163.627 292.524 165.867 292.747 168.083 292.917L167.998 294.033ZM201.612 292.802L201.444 291.695C203.645 291.361 205.862 290.974 208.033 290.542L208.252 291.64C206.063 292.075 203.829 292.465 201.612 292.802ZM154.619 292.392C152.413 292.018 150.186 291.589 148 291.114L148.237 290.02C150.407 290.491 152.617 290.917 154.806 291.288L154.619 292.392ZM214.832 290.174L214.563 289.087C216.723 288.553 218.896 287.963 221.02 287.333L221.338 288.407C219.197 289.041 217.009 289.636 214.832 290.174ZM141.447 289.532C139.283 288.957 137.105 288.324 134.973 287.65L135.311 286.582C137.426 287.251 139.587 287.879 141.734 288.45L141.447 289.532ZM227.755 286.341L227.388 285.283C229.484 284.555 231.592 283.767 233.655 282.941L234.07 283.981C231.992 284.813 229.868 285.607 227.755 286.341ZM128.577 285.464C126.475 284.691 124.36 283.858 122.291 282.986L122.726 281.954C124.779 282.819 126.878 283.646 128.964 284.413L128.577 285.464ZM240.256 281.339L239.793 280.32C241.806 279.405 243.829 278.429 245.807 277.418L246.316 278.415C244.324 279.434 242.285 280.417 240.256 281.339ZM252.237 275.215L251.682 274.243C253.613 273.142 255.54 271.984 257.409 270.801L258.008 271.747C256.124 272.939 254.183 274.106 252.237 275.215ZM263.615 268.017L262.974 267.1C264.792 265.83 266.606 264.5 268.366 263.147L269.049 264.035C267.275 265.398 265.447 266.738 263.615 268.017ZM92.9531 266.441C91.1458 265.128 89.3404 263.753 87.5867 262.353L88.2855 261.478C90.0258 262.868 91.8174 264.232 93.6108 265.534L92.9531 266.441ZM274.296 259.809L273.574 258.953C275.268 257.524 276.954 256.034 278.586 254.525L279.346 255.347C277.702 256.867 276.003 258.369 274.296 259.809ZM82.4135 258.026C80.7303 256.552 79.0581 255.019 77.4435 253.469L78.2188 252.661C79.8213 254.2 81.4807 255.721 83.151 257.184L82.4135 258.026ZM284.19 250.658L283.393 249.872C284.955 248.289 286.5 246.651 287.984 245.004L288.817 245.753C287.321 247.413 285.764 249.063 284.19 250.658ZM72.6874 248.692C71.1431 247.068 69.618 245.39 68.1543 243.704L69.0002 242.97C70.4526 244.644 71.966 246.309 73.4988 247.92L72.6874 248.692ZM293.215 240.642L292.35 239.931C293.761 238.214 295.151 236.442 296.481 234.664L297.378 235.334C296.038 237.126 294.637 238.912 293.215 240.642ZM63.8539 238.516C62.4671 236.764 61.1016 234.955 59.7951 233.14L60.7038 232.486C62.0004 234.287 63.3555 236.082 64.7319 237.822L63.8539 238.516ZM301.293 229.841L300.367 229.212C301.616 227.373 302.839 225.481 304.002 223.587L304.957 224.173C303.784 226.082 302.551 227.988 301.293 229.841ZM55.987 227.585C54.767 225.715 53.5729 223.79 52.4376 221.864L53.402 221.295C54.5289 223.207 55.7139 225.117 56.9247 226.973L55.987 227.585ZM308.356 218.342L307.376 217.801C308.451 215.856 309.496 213.858 310.481 211.863L311.485 212.359C310.492 214.369 309.439 216.382 308.356 218.342H308.356ZM314.336 206.238L313.31 205.789C314.203 203.751 315.059 201.664 315.857 199.587L316.902 199.988C316.099 202.082 315.235 204.185 314.336 206.238H314.336ZM43.4149 203.822C42.5565 201.762 41.7345 199.655 40.9718 197.557L42.0243 197.175C42.781 199.256 43.5967 201.347 44.4483 203.391L43.4149 203.822ZM319.178 193.624L318.115 193.272C318.814 191.167 319.473 189.015 320.075 186.876L321.153 187.179C320.546 189.334 319.882 191.503 319.178 193.624ZM38.8149 191.171C38.1487 189.037 37.5226 186.857 36.9543 184.691L38.0374 184.407C38.6014 186.557 39.2228 188.72 39.8838 190.837L38.8149 191.171ZM322.827 180.649L321.737 180.395C322.238 178.237 322.696 176.034 323.099 173.846L324.2 174.049C323.795 176.254 323.333 178.474 322.827 180.649ZM35.395 178.133C34.9281 175.946 34.5055 173.718 34.1391 171.51L35.2436 171.327C35.6074 173.518 36.0268 175.729 36.4901 177.899L35.395 178.133ZM325.268 167.394L324.158 167.242C324.459 165.049 324.713 162.813 324.914 160.595L326.029 160.696C325.827 162.931 325.57 165.184 325.268 167.394ZM33.1883 164.837C32.9242 162.621 32.7075 160.364 32.5437 158.128L33.6607 158.046C33.8228 160.265 34.0382 162.505 34.3004 164.705L33.1883 164.837ZM326.485 153.972L325.367 153.921C325.466 151.703 325.517 149.453 325.517 147.233H326.637C326.637 149.469 326.586 151.737 326.485 153.972ZM32.2044 151.396C32.1662 150.023 32.1468 148.622 32.1465 147.233C32.1465 146.372 32.1539 145.512 32.1686 144.654L33.2884 144.673C33.2736 145.525 33.2662 146.378 33.2662 147.233C33.2665 148.612 33.2859 150.002 33.3236 151.365L32.2044 151.396ZM33.5541 137.989L32.4365 137.919C32.5762 135.682 32.7692 133.422 33.0095 131.203L34.1227 131.324C33.884 133.526 33.693 135.769 33.5541 137.989H33.5541ZM324.794 131.158C324.57 128.951 324.263 127.875 323.938 125.677L325.046 125.514C325.373 127.728 325.653 129.418 325.879 131.642L324.794 131.158ZM34.9945 124.692L33.8879 124.52C34.2309 122.305 34.6295 120.073 35.0727 117.884L36.17 118.106C35.7304 120.278 35.3348 122.494 34.9945 124.692H34.9945ZM322.808 119.085C322.381 116.901 321.899 114.702 321.375 112.55L322.463 112.286C322.991 114.454 323.476 116.669 323.907 118.87L322.808 119.085ZM37.6468 111.582L36.5606 111.31C37.1044 109.141 37.7066 106.955 38.3507 104.811L39.4228 105.133C38.784 107.261 38.1864 109.43 37.6468 111.582ZM319.643 106.088C319.019 103.957 318.336 101.812 317.615 99.7138L318.674 99.3497C319.401 101.464 320.089 103.625 320.718 105.773L319.643 106.088ZM41.5013 98.7546L40.445 98.3834C41.1891 96.2669 41.9926 94.1402 42.8329 92.0625L43.8712 92.4823C43.0371 94.5439 42.2397 96.6545 41.5013 98.7546ZM315.295 93.4393C314.478 91.3788 313.603 89.3109 312.695 87.2927L313.716 86.833C314.632 88.8667 315.513 90.9505 316.336 93.0266L315.295 93.4393ZM46.527 86.3281L45.5095 85.8606C46.4447 83.8242 47.4401 81.782 48.4679 79.7909L49.463 80.3042C48.4428 82.2803 47.4551 84.3069 46.527 86.3281ZM309.815 81.2697C308.813 79.2931 307.751 77.3124 306.659 75.3834L307.633 74.8318C308.734 76.7758 309.803 78.7716 310.813 80.7635L309.815 81.2697ZM52.6727 74.4234L51.7022 73.8646C52.8192 71.9252 53.9972 69.9839 55.2036 68.095L56.1473 68.6975C54.9502 70.5721 53.7809 72.4987 52.6727 74.4234ZM303.237 69.6452C302.053 67.7618 300.814 65.8855 299.554 64.0683L300.474 63.4303C301.744 65.2615 302.993 67.152 304.185 69.0498L303.237 69.6452ZM59.8799 63.1381L58.9646 62.493C60.2555 60.6623 61.6051 58.8377 62.9769 57.0697L63.8616 57.7558C62.5004 59.5107 61.1606 61.3214 59.8799 63.1381ZM295.62 58.6639C294.27 56.8966 292.865 55.1398 291.442 53.4423L292.301 52.7231C293.734 54.4338 295.15 56.2037 296.51 57.9843L295.62 58.6639ZM68.0838 52.5624L67.2314 51.8364C68.68 50.135 70.1899 48.4416 71.7188 46.8032L72.5373 47.5669C71.0201 49.1931 69.5217 50.8739 68.0838 52.5624ZM287.031 48.4151C285.527 46.778 283.966 45.1554 282.394 43.5929L283.184 42.7986C284.768 44.3733 286.34 46.008 287.855 47.6574L287.031 48.4151ZM77.2123 42.781L76.4293 41.9807C78.0305 40.4144 79.6874 38.8658 81.3536 37.3783L82.0993 38.2136C80.4457 39.6897 78.8014 41.2265 77.2123 42.7811V42.781ZM277.543 38.9856C275.894 37.4906 274.192 36.0162 272.484 34.6032L273.198 33.7405C274.919 35.1642 276.634 36.6498 278.295 38.1562L277.543 38.9856ZM87.1882 33.8734L86.4812 33.0052C88.213 31.595 90.0028 30.2042 91.8011 28.8713L92.4681 29.7706C90.6832 31.0937 88.9069 32.4738 87.1882 33.8734H87.1882ZM97.9276 25.9142L97.3027 24.9854C99.1561 23.7383 101.064 22.5173 102.974 21.3553L103.556 22.312C101.661 23.465 99.7671 24.677 97.9276 25.9142H97.9276ZM109.342 18.9716L108.805 17.9892C110.765 16.9163 112.776 15.8754 114.78 14.8949L115.273 15.9008C113.284 16.8737 111.288 17.9067 109.342 18.9716ZM244.477 16.3775C242.485 15.385 240.444 14.4261 238.411 13.5276L238.864 12.5036C240.912 13.4089 242.969 14.3752 244.977 15.3754L244.477 16.3775ZM121.335 13.1058L120.89 12.0785C122.94 11.1904 125.036 10.3386 127.121 9.54675L127.518 10.5937C125.449 11.3793 123.369 12.2245 121.335 13.1058ZM232.218 10.9592C230.145 10.1553 228.023 9.38821 225.911 8.67968L226.267 7.61799C228.395 8.33226 230.534 9.10502 232.623 9.91551L232.218 10.9592ZM133.825 8.36342L133.476 7.29954C135.604 6.60195 137.776 5.94508 139.929 5.34781L140.229 6.42646C138.091 7.01935 135.937 7.67104 133.825 8.36342H133.825ZM219.52 6.69871C217.385 6.08996 215.207 5.52303 213.046 5.01377L213.303 3.9242C215.481 4.43728 217.675 5.00858 219.828 5.62171L219.52 6.69871ZM146.715 4.78662L146.465 3.69513C148.647 3.19681 150.869 2.74277 153.07 2.34587L153.269 3.44747C151.084 3.84165 148.879 4.29213 146.715 4.78662ZM206.501 3.62953C204.321 3.2203 202.1 2.85622 199.9 2.54733L200.055 1.43861C202.272 1.74996 204.511 2.1168 206.708 2.52901L206.501 3.62953ZM159.878 2.4112L159.73 1.30139C161.947 1.00563 164.201 0.75688 166.43 0.5628L166.527 1.67807C164.315 1.87106 162.078 2.1176 159.878 2.4112ZM193.255 1.76883C191.05 1.56107 188.805 1.40089 186.582 1.29347L186.637 0.174915C188.876 0.283437 191.138 0.444712 193.36 0.654125L193.255 1.76883ZM173.204 1.24864L173.157 0.130111C175.215 0.0442788 177.312 0.000548627 179.392 0L179.898 0.000815782L179.895 1.12046L179.392 1.11965C177.328 1.12017 175.246 1.16362 173.204 1.24864Z" fill="#BF13BF"/>
<path d="M505 365.168H94.6177V366.288H505V365.168Z" fill="#BF13BF"/>
<path d="M334.807 176.918L340.405 263.691C340.405 263.691 353.842 297.84 353.282 330.31C353.282 330.31 348.243 343.186 352.162 345.425C356.081 347.664 358.321 349.344 356.081 351.023C353.842 352.703 352.162 356.621 353.842 357.741C355.522 358.861 356.081 360.54 355.522 360.54H338.726C338.726 360.54 342.085 352.143 337.046 349.904C332.007 347.664 334.807 342.066 334.807 342.066L297.295 232.341L267.622 333.109C267.622 333.109 272.661 336.468 268.742 338.147C264.823 339.827 263.144 336.468 264.823 339.827C266.503 343.186 264.263 344.865 264.263 345.425C264.263 345.985 247.467 343.745 247.467 343.745C247.467 343.745 255.865 336.468 251.946 334.788C248.027 333.109 246.348 331.429 247.467 330.31C248.587 329.19 253.066 318.553 253.066 318.553C253.066 318.553 255.305 278.246 255.865 276.567C256.425 274.887 255.865 267.05 255.865 263.131C255.865 259.212 255.305 243.537 256.985 239.618C258.665 235.7 260.344 187.555 269.302 181.957C278.26 176.358 334.807 176.918 334.807 176.918Z" fill="#331A33"/>
<path d="M263.703 342.626C263.703 342.626 274.901 365.579 267.063 368.378C259.225 371.177 249.147 368.938 246.907 372.297C244.668 375.655 220.034 379.574 219.474 371.177C218.914 362.78 246.348 347.104 246.348 347.104L249.921 341.351L263.703 342.626Z" fill="#331A33"/>
<path d="M354.402 359.421C354.402 359.421 365.599 382.373 357.761 385.172C349.923 387.972 339.845 385.732 337.606 389.091C335.366 392.45 310.732 396.369 310.172 387.972C309.613 379.574 337.046 363.899 337.046 363.899L340.62 358.145L354.402 359.421Z" fill="#331A33"/>
<path d="M302.614 71.3914C312.818 71.3914 321.09 63.1203 321.09 52.9173C321.09 42.7143 312.818 34.4431 302.614 34.4431C292.41 34.4431 284.139 42.7143 284.139 52.9173C284.139 63.1203 292.41 71.3914 302.614 71.3914Z" fill="#A0616A"/>
<path d="M315.211 62.7141L312.972 78.949L296.176 91.8249L291.697 85.6669V64.3936L315.211 62.7141Z" fill="#A0616A"/>
<path d="M288.897 83.4278C288.897 83.4278 306.253 85.1073 315.211 78.9492L333.127 184.756C333.127 184.756 269.862 189.794 267.063 186.435V153.406L278.26 99.6627L288.897 83.4278Z" fill="#BF13BF"/>
<path d="M313.669 73.8904L319.69 78.9491C319.69 78.9491 344.324 82.8678 342.645 89.5857L335.926 169.081L338.166 195.952C338.166 195.952 319.13 190.914 304.574 195.952C290.017 200.991 301.582 87.6804 301.582 87.6804C301.582 87.6804 314.927 75.5496 313.669 73.8904Z" fill="#DBD3EB"/>
<path d="M291.697 80.0181C291.697 80.0181 273.781 92.9447 271.542 101.342C269.302 109.739 262.024 198.191 262.024 198.191C262.024 198.191 265.383 196.512 267.063 199.311C268.742 202.11 294.496 84.446 291.697 80.0181Z" fill="#DBD3EB"/>
<path d="M284.147 52.1125C284.147 52.1125 282.147 49.1126 282.917 45.882C283.376 44.0477 283.558 42.1549 283.455 40.2667C283.455 40.2667 285.071 35.0361 286.686 32.1131C288.301 29.1901 287.532 27.9594 292.609 27.0363C297.687 26.1133 295.61 19.4981 308.995 26.6517C309.446 27.2822 310.075 27.7648 310.8 28.0386C311.526 28.3124 312.316 28.3651 313.072 28.1901C315.841 27.6517 316.841 31.4977 316.841 31.4977C316.841 31.4977 318.688 30.4208 319.38 31.9593C320.072 33.4977 325.009 31.0359 325.009 41.4203C325.009 51.8046 319.391 61.0805 319.391 61.0805C319.391 61.0805 319.803 43.6128 310.649 41.8436C301.494 40.0744 291.648 34.9207 289.263 41.5359C287.976 45.2487 286.259 48.7983 284.147 52.1125Z" fill="#331A33"/>
<path d="M319.592 56.2657C320.589 56.2657 321.397 55.1879 321.397 53.8583C321.397 52.5287 320.589 51.4509 319.592 51.4509C318.595 51.4509 317.786 52.5287 317.786 53.8583C317.786 55.1879 318.595 56.2657 319.592 56.2657Z" fill="#A0616A"/>
<path d="M243.711 226.98C239.281 224.316 233.939 224.52 231.908 224.723C232.681 226.611 235.002 231.426 239.432 234.092C243.873 236.762 249.207 236.553 251.235 236.351C250.462 234.463 248.141 229.646 243.711 226.98Z" fill="#DBD3EB"/>
<path d="M264.528 279.841H236.839C235.187 279.841 233.603 280.497 232.434 281.665C231.266 282.834 230.609 284.418 230.609 286.07C230.609 287.722 231.266 289.307 232.434 290.475C233.603 291.643 235.187 292.3 236.839 292.3H264.528C266.179 292.298 267.763 291.641 268.93 290.473C270.097 289.305 270.752 287.721 270.752 286.07C270.752 284.419 270.097 282.836 268.93 281.667C267.763 280.499 266.179 279.842 264.528 279.841Z" fill="#DBD3EB"/>
<path d="M389.913 214.085H234.67C232.864 214.085 231.076 214.441 229.408 215.132C227.739 215.823 226.223 216.836 224.946 218.113C223.669 219.39 222.656 220.905 221.965 222.574C221.274 224.242 220.918 226.03 220.918 227.836V303.467C220.918 307.114 222.367 310.612 224.946 313.19C227.525 315.769 231.023 317.218 234.67 317.218H389.913C391.718 317.218 393.507 316.862 395.175 316.171C396.844 315.48 398.36 314.467 399.637 313.19C400.914 311.913 401.926 310.398 402.618 308.729C403.309 307.061 403.664 305.273 403.664 303.467V227.836C403.664 226.03 403.309 224.242 402.618 222.574C401.926 220.905 400.914 219.39 399.637 218.113C398.36 216.836 396.844 215.823 395.175 215.132C393.507 214.441 391.718 214.085 389.913 214.085ZM230.829 223.465C231.136 223.41 238.405 222.173 244.424 225.795C250.444 229.416 252.756 236.418 252.851 236.714L253.095 237.469L252.314 237.607C251.199 237.781 250.073 237.864 248.945 237.855C246.211 237.855 242.25 237.403 238.718 235.277C232.699 231.657 230.387 224.655 230.291 224.359L230.048 223.604L230.829 223.465ZM264.528 293.684H236.84C234.82 293.684 232.883 292.882 231.455 291.454C230.027 290.026 229.225 288.09 229.225 286.07C229.225 284.051 230.027 282.114 231.455 280.687C232.883 279.259 234.82 278.457 236.84 278.457H264.528C266.548 278.457 268.485 279.259 269.912 280.687C271.34 282.114 272.143 284.051 272.143 286.07C272.143 288.09 271.34 290.026 269.912 291.454C268.485 292.882 266.548 293.684 264.528 293.684ZM390.512 292.3C390.506 294.501 389.628 296.61 388.072 298.166C386.516 299.722 384.407 300.599 382.206 300.606H361.439C359.238 300.599 357.129 299.722 355.572 298.166C354.016 296.61 353.139 294.501 353.132 292.3V279.841C353.139 277.64 354.016 275.531 355.572 273.975C357.129 272.418 359.238 271.541 361.439 271.535H382.206C384.407 271.541 386.516 272.418 388.072 273.975C389.629 275.531 390.506 277.64 390.512 279.841L390.512 292.3Z" fill="#DBD3EB"/>
<path d="M368.015 289.877H359.016C358.374 289.877 357.757 290.132 357.303 290.587C356.849 291.041 356.593 291.657 356.593 292.3C356.593 292.942 356.849 293.559 357.303 294.013C357.757 294.467 358.374 294.722 359.016 294.722H368.015C368.658 294.722 369.274 294.467 369.728 294.013C370.182 293.559 370.438 292.942 370.438 292.3C370.438 291.657 370.182 291.041 369.728 290.587C369.274 290.132 368.658 289.877 368.015 289.877ZM368.015 293.338H359.016C358.88 293.338 358.744 293.312 358.618 293.26C358.492 293.208 358.377 293.131 358.28 293.035C358.184 292.938 358.107 292.824 358.055 292.698C358.002 292.572 357.975 292.436 357.975 292.3C357.975 292.163 358.002 292.028 358.055 291.902C358.107 291.776 358.184 291.661 358.28 291.565C358.377 291.468 358.492 291.392 358.618 291.34C358.744 291.288 358.88 291.261 359.016 291.262H368.015C368.152 291.261 368.287 291.288 368.413 291.34C368.539 291.392 368.654 291.468 368.751 291.565C368.847 291.661 368.924 291.776 368.976 291.902C369.029 292.028 369.056 292.163 369.056 292.3C369.056 292.436 369.029 292.572 368.976 292.698C368.924 292.824 368.847 292.938 368.751 293.035C368.654 293.131 368.539 293.208 368.413 293.26C368.287 293.312 368.152 293.338 368.015 293.338Z" fill="#DBD3EB"/>
<path d="M384.628 289.877H375.629C375.311 289.877 374.996 289.939 374.701 290.061C374.407 290.182 374.139 290.36 373.914 290.585C373.689 290.81 373.51 291.078 373.388 291.372C373.266 291.666 373.203 291.981 373.203 292.3C373.203 292.618 373.266 292.934 373.388 293.228C373.51 293.522 373.689 293.789 373.914 294.014C374.139 294.239 374.407 294.417 374.701 294.539C374.996 294.661 375.311 294.723 375.629 294.722H384.628C385.271 294.722 385.887 294.467 386.341 294.013C386.796 293.558 387.051 292.942 387.051 292.3C387.051 291.657 386.796 291.041 386.341 290.587C385.887 290.132 385.271 289.877 384.628 289.877ZM384.628 293.338H375.629C375.493 293.338 375.358 293.312 375.231 293.26C375.105 293.208 374.99 293.131 374.894 293.035C374.797 292.938 374.72 292.824 374.668 292.698C374.616 292.572 374.589 292.436 374.589 292.3C374.589 292.163 374.616 292.028 374.668 291.902C374.72 291.776 374.797 291.661 374.894 291.565C374.99 291.468 375.105 291.392 375.231 291.34C375.358 291.288 375.493 291.261 375.629 291.262H384.628C384.903 291.262 385.167 291.372 385.361 291.567C385.555 291.761 385.664 292.025 385.664 292.3C385.664 292.575 385.555 292.838 385.361 293.033C385.167 293.228 384.903 293.337 384.628 293.338Z" fill="#DBD3EB"/>
<path d="M368.015 283.648H359.016C358.374 283.648 357.757 283.903 357.303 284.357C356.849 284.812 356.593 285.428 356.593 286.07C356.593 286.713 356.849 287.329 357.303 287.783C357.757 288.238 358.374 288.493 359.016 288.493H368.015C368.333 288.493 368.649 288.431 368.943 288.31C369.238 288.188 369.505 288.01 369.731 287.785C369.956 287.56 370.135 287.292 370.257 286.998C370.379 286.704 370.441 286.389 370.441 286.07C370.441 285.752 370.379 285.437 370.257 285.142C370.135 284.848 369.956 284.581 369.731 284.356C369.505 284.131 369.238 283.953 368.943 283.831C368.649 283.71 368.333 283.647 368.015 283.648ZM368.015 287.109H359.016C358.741 287.109 358.477 286.999 358.282 286.804C358.087 286.61 357.978 286.346 357.978 286.07C357.978 285.795 358.087 285.531 358.282 285.336C358.477 285.141 358.741 285.032 359.016 285.032H368.015C368.29 285.032 368.554 285.141 368.749 285.336C368.944 285.531 369.053 285.795 369.053 286.07C369.053 286.346 368.944 286.61 368.749 286.804C368.554 286.999 368.29 287.109 368.015 287.109Z" fill="#DBD3EB"/>
<path d="M384.628 283.648H375.629C375.311 283.647 374.996 283.71 374.701 283.831C374.407 283.953 374.139 284.131 373.914 284.356C373.689 284.581 373.51 284.848 373.388 285.142C373.266 285.437 373.203 285.752 373.203 286.07C373.203 286.389 373.266 286.704 373.388 286.998C373.51 287.292 373.689 287.56 373.914 287.785C374.139 288.01 374.407 288.188 374.701 288.31C374.996 288.431 375.311 288.493 375.629 288.493H384.628C385.271 288.493 385.887 288.238 386.341 287.783C386.796 287.329 387.051 286.713 387.051 286.07C387.051 285.428 386.796 284.812 386.341 284.357C385.887 283.903 385.271 283.648 384.628 283.648ZM384.628 287.109H375.629C375.354 287.109 375.09 286.999 374.895 286.804C374.701 286.61 374.591 286.346 374.591 286.07C374.591 285.795 374.701 285.531 374.895 285.336C375.09 285.141 375.354 285.032 375.629 285.032H384.628C384.904 285.032 385.168 285.141 385.363 285.336C385.557 285.531 385.667 285.795 385.667 286.07C385.667 286.346 385.557 286.61 385.363 286.804C385.168 286.999 384.904 287.109 384.628 287.109Z" fill="#DBD3EB"/>
<path d="M368.015 277.418H359.016C358.374 277.418 357.757 277.673 357.303 278.128C356.849 278.582 356.593 279.198 356.593 279.841C356.593 280.483 356.849 281.099 357.303 281.554C357.757 282.008 358.374 282.263 359.016 282.263H368.015C368.658 282.263 369.274 282.008 369.728 281.554C370.182 281.099 370.438 280.483 370.438 279.841C370.438 279.198 370.182 278.582 369.728 278.128C369.274 277.673 368.658 277.418 368.015 277.418ZM368.015 280.879H359.016C358.741 280.879 358.477 280.77 358.282 280.575C358.087 280.38 357.978 280.116 357.978 279.841C357.978 279.565 358.087 279.301 358.282 279.107C358.477 278.912 358.741 278.803 359.016 278.803H368.015C368.29 278.803 368.554 278.912 368.749 279.107C368.944 279.301 369.053 279.565 369.053 279.841C369.053 280.116 368.944 280.38 368.749 280.575C368.554 280.77 368.29 280.879 368.015 280.879Z" fill="#DBD3EB"/>
<path d="M384.628 277.418H375.629C375.311 277.418 374.996 277.48 374.701 277.602C374.407 277.723 374.139 277.901 373.914 278.126C373.689 278.351 373.51 278.619 373.388 278.913C373.266 279.207 373.203 279.522 373.203 279.841C373.203 280.159 373.266 280.475 373.388 280.769C373.51 281.063 373.689 281.33 373.914 281.555C374.139 281.78 374.407 281.958 374.701 282.08C374.996 282.202 375.311 282.264 375.629 282.263H384.628C385.27 282.262 385.886 282.007 386.339 281.552C386.793 281.098 387.047 280.483 387.047 279.841C387.047 279.199 386.793 278.583 386.339 278.129C385.886 277.675 385.27 277.419 384.628 277.418ZM384.628 280.879H375.629C375.354 280.879 375.09 280.77 374.895 280.575C374.701 280.38 374.591 280.116 374.591 279.841C374.591 279.565 374.701 279.301 374.895 279.107C375.09 278.912 375.354 278.803 375.629 278.803H384.628C384.904 278.803 385.168 278.912 385.362 279.107C385.557 279.301 385.667 279.565 385.667 279.841C385.667 280.116 385.557 280.38 385.362 280.575C385.168 280.77 384.904 280.879 384.628 280.879Z" fill="#DBD3EB"/>
<path d="M340.965 197.072L336.952 210.167C336.952 210.167 335.926 234.58 322.489 231.221C309.053 227.862 326.408 199.311 326.408 199.311L330.328 193.153L340.965 197.072Z" fill="#A0616A"/>
<path d="M264.823 197.072L260.81 210.167C260.81 210.167 259.784 234.58 246.348 231.221C232.911 227.862 250.267 199.311 250.267 199.311L254.186 193.153L264.823 197.072Z" fill="#A0616A"/>
<path d="M338.166 85.667C338.166 85.667 347.124 83.4277 349.923 98.543C352.722 113.658 356.081 156.765 356.081 156.765L342.645 202.11C342.645 202.11 329.208 194.833 326.408 195.952L336.982 156.585L328.088 116.457C328.088 116.457 335.926 85.667 338.166 85.667Z" fill="#DBD3EB"/>
<path opacity="0.15" d="M325.141 117.223L336.898 156.411L325.141 196.158L331.86 156.411L325.141 117.223Z" fill="#333333"/>
<path d="M271.542 116.457L251.386 195.952C251.386 195.952 262.018 199.461 265.937 202.26L271.542 116.457Z" fill="#DBD3EB"/>
<path d="M60.1086 316.235C91.0292 316.235 116.095 291.171 116.095 260.253C116.095 229.335 91.0292 204.271 60.1086 204.271C29.1879 204.271 4.12183 229.335 4.12183 260.253C4.12183 291.171 29.1879 316.235 60.1086 316.235Z" fill="#BF13BF"/>
<path opacity="0.1" d="M60.1085 308.398C86.7003 308.398 108.257 286.843 108.257 260.253C108.257 233.664 86.7003 212.108 60.1085 212.108C33.5168 212.108 11.96 233.664 11.96 260.253C11.96 286.843 33.5168 308.398 60.1085 308.398Z" fill="#333333"/>
<path d="M57.8013 288.663V281.656C54.2589 281.587 50.5941 280.337 48.4565 278.603L49.9223 273.955C52.4626 275.858 55.5432 276.903 58.7175 276.938C63.0541 276.938 65.9858 274.093 65.9858 270.139C65.9858 266.323 63.6037 263.964 59.084 261.882C52.854 259.107 49.0062 255.916 49.0062 249.88C49.0062 244.121 52.6098 239.75 58.229 238.709V231.702H62.0157V238.432C64.8394 238.471 67.5937 239.313 69.9559 240.86L68.4288 245.439C66.1632 243.889 63.4786 243.066 60.7331 243.08C56.0303 243.08 54.2589 246.272 54.2589 249.047C54.2589 252.655 56.5187 254.459 61.8326 256.957C68.1234 259.87 71.2997 263.478 71.2997 269.653C71.2997 275.134 67.9403 280.268 61.6492 281.447V288.663H57.8013Z" fill="white"/>
<path d="M119.252 374.126C79.7198 380.021 39.532 380.021 0 374.126V360.69C39.5739 365.989 79.6778 365.989 119.252 360.69V374.126Z" fill="#BF13BF"/>
<path d="M119.252 353.412C79.7198 359.307 39.532 359.307 0 353.412V339.976C39.5739 345.276 79.6778 345.276 119.252 339.976V353.412Z" fill="#BF13BF"/>
<path d="M119.252 332.699C79.7198 338.594 39.532 338.594 0 332.699V319.263C39.5739 324.562 79.6778 324.562 119.252 319.263V332.699Z" fill="#BF13BF"/>
</g>
<defs>
<clipPath id="clip0_1_28">
<rect width="505" height="393" fill="white"/>
</clipPath>
</defs>
</svg>
