<svg width="12" height="16" viewBox="0 0 12 16" fill="none" xmlns="http://www.w3.org/2000/svg">
<path d="M6 0.574707C6.79565 0.574707 7.55871 0.890778 8.12132 1.45339C8.68393 2.016 9 2.77906 9 3.57471V4.57471H10C10.5304 4.57471 11.0391 4.78542 11.4142 5.16049C11.7893 5.53557 12 6.04427 12 6.57471V13.5747C12 14.1051 11.7893 14.6138 11.4142 14.9889C11.0391 15.364 10.5304 15.5747 10 15.5747H2C1.46957 15.5747 0.960859 15.364 0.585786 14.9889C0.210714 14.6138 0 14.1051 0 13.5747V6.57471C0 6.04427 0.210714 5.53557 0.585786 5.16049C0.960859 4.78542 1.46957 4.57471 2 4.57471H3V3.57471C3 2.77906 3.31607 2.016 3.87868 1.45339C4.44129 0.890778 5.20435 0.574707 6 0.574707ZM10 5.57471H2C1.73478 5.57471 1.48043 5.68006 1.29289 5.8676C1.10536 6.05514 1 6.30949 1 6.57471V13.5747C1 13.8399 1.10536 14.0943 1.29289 14.2818C1.48043 14.4693 1.73478 14.5747 2 14.5747H10C10.2652 14.5747 10.5196 14.4693 10.7071 14.2818C10.8946 14.0943 11 13.8399 11 13.5747V6.57471C11 6.30949 10.8946 6.05514 10.7071 5.8676C10.5196 5.68006 10.2652 5.57471 10 5.57471ZM6 9.07471C6.26522 9.07471 6.51957 9.18006 6.70711 9.3676C6.89464 9.55514 7 9.80949 7 10.0747C7 10.3399 6.89464 10.5943 6.70711 10.7818C6.51957 10.9693 6.26522 11.0747 6 11.0747C5.73478 11.0747 5.48043 10.9693 5.29289 10.7818C5.10536 10.5943 5 10.3399 5 10.0747C5 9.80949 5.10536 9.55514 5.29289 9.3676C5.48043 9.18006 5.73478 9.07471 6 9.07471ZM6 1.57471C5.46957 1.57471 4.96086 1.78542 4.58579 2.16049C4.21071 2.53557 4 3.04427 4 3.57471V4.57471H8V3.57471C8 3.04427 7.78929 2.53557 7.41421 2.16049C7.03914 1.78542 6.53043 1.57471 6 1.57471Z" fill="#787878"/>
</svg>
