<svg width="38" height="38" viewBox="0 0 38 38" fill="none" xmlns="http://www.w3.org/2000/svg">
<path d="M21.1998 2.60005C21.1998 2.12266 21.0102 1.66482 20.6726 1.32726C20.335 0.989691 19.8772 0.800049 19.3998 0.800049C18.9224 0.800049 18.4646 0.989691 18.127 1.32726C17.7895 1.66482 17.5998 2.12266 17.5998 2.60005V17.6001H2.59981C2.12242 17.6001 1.66458 17.7897 1.32701 18.1273C0.989447 18.4648 0.799805 18.9227 0.799805 19.4001C0.799805 19.8774 0.989447 20.3353 1.32701 20.6728C1.66458 21.0104 2.12242 21.2001 2.59981 21.2001H17.5998V36.2001C17.5998 36.6774 17.7895 37.1353 18.127 37.4729C18.4646 37.8104 18.9224 38.0001 19.3998 38.0001C19.8772 38.0001 20.335 37.8104 20.6726 37.4729C21.0102 37.1353 21.1998 36.6774 21.1998 36.2001V21.2001H36.1998C36.6772 21.2001 37.135 21.0104 37.4726 20.6728C37.8102 20.3353 37.9998 19.8774 37.9998 19.4001C37.9998 18.9227 37.8102 18.4648 37.4726 18.1273C37.135 17.7897 36.6772 17.6001 36.1998 17.6001H21.1998V2.60005Z" fill="#BF13BF"/>
</svg>
