<svg width="26" height="25" viewBox="0 0 26 25" fill="none" xmlns="http://www.w3.org/2000/svg">
<path d="M24.9998 12.7999C25.212 12.7999 25.4155 12.7156 25.5655 12.5656C25.7155 12.4155 25.7998 12.2121 25.7998 11.9999C25.7998 11.7877 25.7155 11.5842 25.5655 11.4342C25.4155 11.2842 25.212 11.1999 24.9998 11.1999H15.3998C15.1876 11.1999 14.9841 11.2842 14.8341 11.4342C14.6841 11.5842 14.5998 11.7877 14.5998 11.9999C14.5998 12.2121 14.6841 12.4155 14.8341 12.5656C14.9841 12.7156 15.1876 12.7999 15.3998 12.7999H24.9998ZM22.5998 17.9887C22.6522 17.8976 22.6862 17.7971 22.6998 17.6929C22.7134 17.5887 22.7063 17.4828 22.6789 17.3813C22.6237 17.1764 22.4894 17.0018 22.3054 16.8959C22.1215 16.79 21.903 16.7616 21.698 16.8168C21.4931 16.872 21.3185 17.0063 21.2126 17.1903C20.0699 19.1747 18.3043 20.7265 16.1896 21.6049C14.075 22.4834 11.7295 22.6393 9.51712 22.0486C7.30475 21.4579 5.34919 20.1536 3.95384 18.3379C2.5585 16.5223 1.80138 14.2969 1.79997 12.007C1.79856 9.71717 2.55293 7.49085 3.94604 5.6735C5.33915 3.85615 7.2931 2.54939 9.50474 1.95595C11.7164 1.36252 14.062 1.51559 16.1778 2.39143C18.2936 3.26727 20.0611 4.8169 21.2062 6.79989C21.2584 6.8916 21.3281 6.9721 21.4115 7.03674C21.4949 7.10138 21.5902 7.14889 21.6921 7.17654C21.7939 7.20418 21.9001 7.21141 22.0048 7.19781C22.1094 7.18421 22.2103 7.15005 22.3017 7.0973C22.393 7.04454 22.4731 6.97424 22.5372 6.89043C22.6012 6.80662 22.6481 6.71096 22.6751 6.60896C22.7021 6.50696 22.7086 6.40064 22.6943 6.29611C22.68 6.19158 22.6452 6.0909 22.5918 5.99989C21.2704 3.71188 19.2309 1.92393 16.7896 0.913462C14.3482 -0.0970077 11.6417 -0.273506 9.08983 0.411352C6.53797 1.09621 4.28347 2.60413 2.67614 4.70116C1.06881 6.79819 0.198509 9.36707 0.200272 12.0092C0.202036 14.6514 1.07576 17.2191 2.68589 19.314C4.29602 21.4089 6.55252 22.9138 9.1053 23.5952C11.6581 24.2767 14.3644 24.0966 16.8043 23.0829C19.2443 22.0691 21.2815 20.2785 22.5998 17.9887Z" fill="#DBD3EB"/>
</svg>
