<svg width="20" height="20" viewBox="0 0 20 20" fill="none" xmlns="http://www.w3.org/2000/svg">
<path d="M9.9999 0.400024C12.546 0.400024 14.9878 1.41145 16.7881 3.2118C18.5885 5.01215 19.5999 7.45395 19.5999 10C19.5999 12.5461 18.5885 14.9879 16.7881 16.7883C14.9878 18.5886 12.546 19.6 9.9999 19.6C7.45382 19.6 5.01203 18.5886 3.21168 16.7883C1.41133 14.9879 0.399902 12.5461 0.399902 10C0.399902 7.45395 1.41133 5.01215 3.21168 3.2118C5.01203 1.41145 7.45382 0.400024 9.9999 0.400024V0.400024ZM9.3999 4.00002C9.24077 4.00002 9.08816 4.06324 8.97564 4.17576C8.86312 4.28828 8.7999 4.44089 8.7999 4.60002V10.6L8.8095 10.708C8.83478 10.8462 8.90771 10.9711 9.01559 11.061C9.12347 11.1509 9.25947 11.2001 9.3999 11.2H12.9999L13.1079 11.1904C13.2554 11.1637 13.3876 11.0827 13.4784 10.9634C13.5692 10.8441 13.6121 10.6951 13.5986 10.5458C13.585 10.3965 13.516 10.2577 13.4052 10.1566C13.2944 10.0556 13.1498 9.99975 12.9999 10H9.9999V4.60002L9.9903 4.49202C9.96502 4.35389 9.8921 4.22899 9.78421 4.13909C9.67633 4.04919 9.54033 3.99998 9.3999 4.00002Z" fill="#FFB21A"/>
</svg>
