<svg width="485" height="339" viewBox="0 0 485 339" fill="none" xmlns="http://www.w3.org/2000/svg">
<g clip-path="url(#clip0_1_454)">
<path d="M96.633 339C150.002 339 193.266 335.699 193.266 331.627C193.266 327.555 150.002 324.254 96.633 324.254C43.2641 324.254 0 327.555 0 331.627C0 335.699 43.2641 339 96.633 339Z" fill="#E6E6E6"/>
<path d="M73.8645 75.2181C90.6816 68.0321 111.627 72.5851 132.083 75.745C132.274 71.9183 134.581 67.2611 132.164 64.5914C129.228 61.3479 129.498 57.94 131.265 54.5124C135.783 45.7476 129.31 36.4213 122.773 28.6666C121.3 26.9227 119.438 25.5525 117.339 24.6672C115.239 23.782 112.962 23.4067 110.691 23.5719L98.5828 24.4408C95.6364 24.6522 92.8245 25.7626 90.5235 27.6233C88.2224 29.4841 86.5419 32.0065 85.7068 34.853V34.853C82.8156 38.8032 81.2682 42.7426 82.2424 46.6614C77.9119 49.6345 77.1843 53.2234 79.1303 57.2692C80.7804 59.8165 80.7628 62.2962 79.0552 64.7072C76.8126 67.7811 75.095 71.2085 73.9727 74.849L73.8645 75.2181Z" fill="#2F2E41"/>
<path d="M473.507 293.06H130.755C127.707 293.06 124.784 291.844 122.628 289.678C120.473 287.513 119.262 284.576 119.262 281.514C243.51 267.007 365.423 267.007 485 281.514C485 284.576 483.789 287.513 481.634 289.678C479.479 291.844 476.555 293.06 473.507 293.06Z" fill="#2F2E41"/>
<path d="M485 282.193L119.262 281.514L161.65 209.862L161.853 209.523V51.6099C161.853 49.6932 162.228 47.7952 162.958 46.0244C163.688 44.2535 164.759 42.6445 166.108 41.2891C167.457 39.9338 169.058 38.8587 170.821 38.1253C172.584 37.3919 174.473 37.0145 176.381 37.0146H425.853C427.761 37.0145 429.65 37.3919 431.413 38.1253C433.176 38.8587 434.777 39.9338 436.127 41.2891C437.476 42.6445 438.546 44.2535 439.276 46.0244C440.006 47.7952 440.382 49.6932 440.381 51.6099V210.609L485 282.193Z" fill="#3F3D56"/>
<path d="M176.05 47.2021C174.795 47.2036 173.592 47.7049 172.705 48.5962C171.818 49.4874 171.319 50.6959 171.317 51.9563V195.94C171.319 197.2 171.818 198.408 172.705 199.3C173.592 200.191 174.795 200.692 176.05 200.694H428.213C429.467 200.692 430.67 200.191 431.557 199.3C432.444 198.408 432.943 197.2 432.945 195.94V51.9563C432.943 50.6959 432.444 49.4875 431.557 48.5962C430.67 47.705 429.467 47.2036 428.213 47.2021H176.05Z" fill="white"/>
<path d="M177.106 219.71C176.719 219.711 176.339 219.823 176.013 220.033C175.686 220.243 175.426 220.543 175.264 220.896L162.203 249.421C162.061 249.732 161.998 250.073 162.022 250.414C162.045 250.755 162.154 251.084 162.337 251.372C162.521 251.66 162.773 251.896 163.072 252.06C163.37 252.224 163.705 252.31 164.045 252.31H438.71C439.056 252.31 439.396 252.221 439.698 252.052C440 251.883 440.254 251.639 440.436 251.344C440.617 251.048 440.721 250.711 440.736 250.364C440.752 250.017 440.679 249.672 440.524 249.361L426.327 220.836C426.16 220.497 425.901 220.212 425.58 220.013C425.26 219.814 424.89 219.709 424.514 219.71H177.106Z" fill="#2F2E41"/>
<path d="M301.117 44.8249C302.797 44.8249 304.159 43.4566 304.159 41.7686C304.159 40.0807 302.797 38.7124 301.117 38.7124C299.437 38.7124 298.075 40.0807 298.075 41.7686C298.075 43.4566 299.437 44.8249 301.117 44.8249Z" fill="white"/>
<path d="M274.12 257.743C273.674 257.744 273.241 257.892 272.887 258.164C272.533 258.437 272.278 258.819 272.162 259.251L268.885 271.476C268.804 271.778 268.794 272.095 268.854 272.401C268.914 272.708 269.044 272.997 269.234 273.245C269.423 273.493 269.667 273.695 269.946 273.833C270.225 273.971 270.532 274.043 270.844 274.043H333.15C333.473 274.043 333.792 273.966 334.079 273.817C334.366 273.668 334.614 273.452 334.802 273.188C334.989 272.923 335.111 272.617 335.157 272.296C335.203 271.974 335.172 271.646 335.066 271.339L330.854 259.114C330.716 258.714 330.457 258.367 330.113 258.121C329.77 257.876 329.359 257.744 328.937 257.743H274.12Z" fill="#2F2E41"/>
<path d="M440.381 207.146V209.862H161.65L161.86 209.523V207.146H440.381Z" fill="#2F2E41"/>
<path d="M432.607 95.0832C458.743 95.0832 479.93 73.7981 479.93 47.5416C479.93 21.2851 458.743 0 432.607 0C406.471 0 385.284 21.2851 385.284 47.5416C385.284 73.7981 406.471 95.0832 432.607 95.0832Z" fill="#BF13BF"/>
<path d="M452.212 68.2561H413.002C412.285 68.2554 411.597 67.969 411.09 67.4597C410.583 66.9503 410.298 66.2598 410.298 65.5395V41.7687C410.298 41.0484 410.583 40.3578 411.09 39.8485C411.597 39.3392 412.285 39.0528 413.002 39.052H452.212C452.929 39.0528 453.616 39.3392 454.123 39.8485C454.63 40.3578 454.915 41.0484 454.916 41.7687V65.5395C454.916 66.2597 454.63 66.9503 454.123 67.4597C453.616 67.969 452.929 68.2554 452.212 68.2561ZM413.002 41.7687V65.5395H452.214L452.212 41.7687L413.002 41.7687Z" fill="white"/>
<path d="M444.776 41.7686H420.438V30.9019C420.438 23.0312 425.556 17.3186 432.607 17.3186C439.658 17.3186 444.776 23.0312 444.776 30.9019L444.776 41.7686ZM423.142 39.0519H442.071V30.9019C442.071 24.5039 438.18 20.0353 432.607 20.0353C427.034 20.0353 423.142 24.5039 423.142 30.9019L423.142 39.0519Z" fill="white"/>
<path d="M432.607 55.6916C434.1 55.6916 435.311 54.4753 435.311 52.975C435.311 51.4746 434.1 50.2583 432.607 50.2583C431.113 50.2583 429.903 51.4746 429.903 52.975C429.903 54.4753 431.113 55.6916 432.607 55.6916Z" fill="white"/>
<path d="M399.571 151.856H204.691C203.734 151.855 202.817 151.472 202.14 150.793C201.464 150.113 201.083 149.191 201.082 148.23V99.6651C201.083 98.7039 201.464 97.7824 202.14 97.1027C202.817 96.423 203.734 96.0407 204.691 96.0396H399.571C400.528 96.0407 401.446 96.423 402.122 97.1027C402.799 97.7824 403.179 98.7039 403.18 99.6651V148.23C403.179 149.191 402.799 150.113 402.122 150.793C401.446 151.472 400.528 151.855 399.571 151.856V151.856ZM204.691 97.4898C204.117 97.4904 203.566 97.7198 203.16 98.1276C202.754 98.5355 202.526 99.0884 202.526 99.6651V148.23C202.526 148.807 202.754 149.36 203.16 149.768C203.566 150.176 204.117 150.405 204.691 150.406H399.571C400.146 150.405 400.696 150.176 401.102 149.768C401.508 149.36 401.736 148.807 401.737 148.23V99.6651C401.736 99.0884 401.508 98.5354 401.102 98.1276C400.696 97.7198 400.146 97.4904 399.571 97.4898L204.691 97.4898Z" fill="#E6E6E6"/>
<path d="M234.971 136.853C243.09 136.853 249.672 130.241 249.672 122.084C249.672 113.928 243.09 107.316 234.971 107.316C226.852 107.316 220.271 113.928 220.271 122.084C220.271 130.241 226.852 136.853 234.971 136.853Z" fill="#E6E6E6"/>
<path d="M268.923 112.239C268.601 112.238 268.282 112.301 267.984 112.425C267.686 112.548 267.416 112.729 267.188 112.958C266.96 113.187 266.779 113.458 266.656 113.757C266.533 114.056 266.469 114.376 266.469 114.7C266.469 115.024 266.533 115.344 266.656 115.643C266.779 115.942 266.96 116.213 267.188 116.442C267.416 116.67 267.686 116.852 267.984 116.975C268.282 117.099 268.601 117.162 268.923 117.161H384.429C385.078 117.161 385.702 116.902 386.161 116.44C386.621 115.979 386.879 115.353 386.879 114.7C386.879 114.047 386.621 113.421 386.161 112.959C385.702 112.498 385.078 112.239 384.429 112.239H268.923Z" fill="#E6E6E6"/>
<path d="M268.923 127.007C268.273 127.007 267.65 127.267 267.191 127.728C266.731 128.19 266.473 128.816 266.473 129.469C266.473 130.122 266.731 130.748 267.191 131.209C267.65 131.671 268.273 131.93 268.923 131.93H318.625C319.275 131.93 319.898 131.671 320.358 131.209C320.817 130.748 321.076 130.122 321.076 129.469C321.076 128.816 320.817 128.19 320.358 127.728C319.898 127.267 319.275 127.007 318.625 127.007H268.923Z" fill="#E6E6E6"/>
<path d="M161.17 128.003L125.145 147.244L124.689 131.21C136.448 129.238 147.634 125.804 157.978 120.215L161.746 110.863C162.157 109.844 162.824 108.95 163.682 108.268C164.541 107.587 165.561 107.141 166.643 106.975C167.725 106.809 168.831 106.929 169.852 107.322C170.874 107.715 171.777 108.368 172.471 109.218V109.218C173.488 110.461 173.996 112.045 173.892 113.65C173.789 115.255 173.083 116.761 171.916 117.862L161.17 128.003Z" fill="#FFB8B8"/>
<path d="M73.1464 239.095C72.8836 238.126 72.8278 237.113 72.9827 236.122C73.1376 235.13 73.4996 234.183 74.045 233.342L81.9587 221.141C83.8305 218.255 86.7026 216.17 90.0178 215.291C93.3329 214.413 96.8548 214.803 99.9001 216.385V216.385C96.5742 222.073 97.0378 227.062 101.049 231.398C94.8223 234.452 89.0676 238.393 83.963 243.1C83.0311 243.738 81.9608 244.143 80.8415 244.282C79.7221 244.42 78.5859 244.288 77.5277 243.896C76.4694 243.505 75.5197 242.864 74.7576 242.029C73.9955 241.194 73.4431 240.188 73.1464 239.095V239.095Z" fill="#2F2E41"/>
<path d="M162.811 223.141C161.614 225.146 159.923 226.809 157.902 227.968C155.881 229.128 153.597 229.747 151.27 229.764L98.6964 230.164L96.4163 216.879L119.673 210.007L100.064 194.889L121.497 169.692L160.426 206.143C162.701 208.273 164.179 211.124 164.613 214.218C165.048 217.312 164.411 220.462 162.811 223.141V223.141Z" fill="#2F2E41"/>
<path d="M90.4881 314.001H78.1757C67.1209 237.875 55.8682 161.535 89.12 133.042L128.337 139.456L123.321 172.899L101.432 198.096L90.4881 314.001Z" fill="#2F2E41"/>
<path d="M101.311 331.246C100.347 331.51 99.3388 331.566 98.3519 331.411C97.3649 331.255 96.4218 330.891 95.5848 330.344L82.216 328.538C79.3433 326.658 77.2683 323.773 76.3935 320.442C75.5187 317.112 75.9065 313.574 77.4816 310.514C83.1431 313.855 88.1095 313.389 92.4252 309.359C95.4746 315.545 100.499 315.168 105.297 320.379C105.933 321.315 106.336 322.391 106.474 323.515C106.612 324.64 106.481 325.781 106.091 326.844C105.701 327.907 105.064 328.861 104.232 329.627C103.401 330.393 102.399 330.948 101.311 331.246V331.246Z" fill="#2F2E41"/>
<path d="M119.673 82.1906L96.8723 76.6931C100.659 68.9059 100.971 60.241 99.1523 51.0382L114.657 50.5801C115.143 62.0241 116.612 72.7156 119.673 82.1906Z" fill="#FFB8B8"/>
<path d="M125.939 153.25C109.341 164.613 97.6136 153.639 88.664 136.707C89.9076 126.347 87.894 113.949 84.1646 100.477C82.506 94.5347 83.1253 88.1839 85.9 82.6781C88.6748 77.1724 93.4034 72.9118 99.1523 70.7375V70.7375L118.761 78.9838C135.411 92.6182 138.688 107.387 132.441 122.964L125.939 153.25Z" fill="#BF13BF"/>
<path d="M78.1757 93.6436L59.9351 103.264L92.3121 122.505L96.8172 133.669C97.1179 134.414 97.2644 135.213 97.2477 136.017C97.2311 136.821 97.0516 137.613 96.7203 138.345C96.389 139.077 95.9128 139.733 95.3207 140.274C94.7286 140.815 94.0331 141.229 93.2765 141.492V141.492C92.4164 141.789 91.4994 141.883 90.5972 141.766C89.6949 141.648 88.8321 141.322 88.0761 140.814C87.3201 140.306 86.6916 139.628 86.2397 138.835C85.7878 138.042 85.5249 137.154 85.4715 136.242L85.0159 128.461L43.865 114.818C42.4785 114.359 41.2144 113.588 40.1682 112.565C39.1221 111.542 38.3214 110.293 37.8269 108.913V108.913C37.106 106.901 37.0693 104.706 37.7226 102.671C38.3758 100.637 39.682 98.8768 41.4369 97.6672L74.5276 74.8606L78.1757 93.6436Z" fill="#FFB8B8"/>
<path d="M96.4163 95.4763C88.8088 92.127 81.8911 95.7653 73.1595 98.6831L71.7915 74.4026C80.4616 69.7602 88.728 68.5085 96.4163 72.112L96.4163 95.4763Z" fill="#BF13BF"/>
<path d="M105.517 62.6071C113.556 62.6071 120.074 56.0594 120.074 47.9824C120.074 39.9054 113.556 33.3577 105.517 33.3577C97.4767 33.3577 90.9591 39.9054 90.9591 47.9824C90.9591 56.0594 97.4767 62.6071 105.517 62.6071Z" fill="#FFB8B8"/>
<path d="M122.932 46.137C108.519 47.5552 97.5361 45.1871 90.517 38.4443V33.0142H121.709L122.932 46.137Z" fill="#2F2E41"/>
</g>
<defs>
<clipPath id="clip0_1_454">
<rect width="485" height="339" fill="white"/>
</clipPath>
</defs>
</svg>
