<svg width="505" height="368" viewBox="0 0 505 368" fill="none" xmlns="http://www.w3.org/2000/svg">
<g clip-path="url(#clip0_1_173)">
<path d="M388.314 172.291C388.229 215.454 372.027 257.024 342.892 288.829C313.757 320.633 273.798 340.372 230.869 344.164C187.941 347.956 145.149 335.527 110.906 309.32C76.6629 283.114 53.4464 245.026 45.8204 202.544C38.1943 160.062 46.7105 116.259 69.6947 79.7477C92.6789 43.2359 128.468 16.6561 170.027 5.23366C211.586 -6.18874 255.908 -1.62739 294.279 18.0209C332.65 37.6693 362.295 70.9832 377.386 111.413C377.762 112.429 378.129 113.444 378.486 114.469V114.479C380.079 118.984 381.482 123.574 382.695 128.248C386.438 142.628 388.326 157.43 388.314 172.291V172.291Z" fill="#EBE0FF"/>
<path d="M195.529 54.8643C187.72 50.6346 179.049 48.247 170.178 47.8835C161.308 47.52 152.472 49.1903 144.344 52.7669C137.187 55.8864 129.651 61.4824 127.264 71.5877C136.92 65.8802 149.419 74.898 151.903 89.3644L151.324 89.5246C150.011 99.5446 152.941 110.454 158.613 116.667C159.034 113.863 160.074 111.189 161.657 108.838C163.239 106.488 165.324 104.52 167.761 103.077C171.928 100.333 176.539 98.3402 179.719 93.6241C183.49 88.0331 184.448 79.8618 185.946 72.4076C187.444 64.9534 190.285 56.9414 195.529 54.8643Z" fill="#FE52FE" fill-opacity="0.2"/>
<path d="M141.48 140.131C138.806 144.153 135.234 146.677 132.029 149.82C128.328 153.191 125.901 157.736 125.155 162.689C124.749 166.19 125.377 169.748 125.29 173.287C125.203 176.826 124.025 180.809 121.622 181.689C117.827 183.062 114.931 176.004 111.031 175.511C107.932 175.124 105.142 180.007 106.04 184.242C106.938 188.477 111.157 190.353 113.58 187.587C115.771 191.271 114.226 197.953 110.935 199.084C110.587 201.405 110.239 203.716 109.901 206.036C101.58 200.206 93.1711 194.279 86.0947 185.741C78.2246 176.325 73.3432 164.77 72.0771 152.556C71.1599 142.742 72.5211 131.516 68.0225 123.964C64.4214 117.921 58.2428 116.586 52.6821 116.964C51.6684 117.031 50.6453 117.147 49.6315 117.273C52.9108 107.408 57.0758 97.8608 62.0753 88.7487C63.2068 88.2622 64.2581 87.6069 65.1936 86.805C70.3682 82.4056 72.6659 73.5002 76.8653 67.3409C77.1357 66.9444 77.4157 66.5576 77.7052 66.1806C82.0013 60.5627 87.7551 57.6716 93.3158 54.9835C105.625 48.9983 118.291 42.9357 131.285 43.7673L127.587 44.125C123.272 56.2309 118.954 68.3368 114.632 80.4427C113.975 82.2991 113.312 84.1588 112.643 86.0219C110.191 92.9063 107.662 100.236 108.038 107.942C108.26 112.506 109.843 117.379 112.855 118.946C115.665 120.396 118.735 118.617 121.447 116.857C122.596 116.122 123.735 115.387 124.884 114.643C129.006 111.984 133.573 109.257 137.927 111.036C141.914 112.661 144.858 118.085 145.418 123.935C145.932 129.621 144.547 135.318 141.48 140.131Z" fill="#FE52FE" fill-opacity="0.2"/>
<path d="M165.997 222.781C153.958 215.356 141.918 207.931 129.879 200.507L130.083 199.98C122.597 202.835 119.489 216.162 120.727 227.061C121.964 237.96 126.158 247.703 128.277 258.322C131.135 272.854 130.056 287.888 125.154 301.862C140.985 284.07 154.996 264.734 166.975 244.142C168.649 241.547 169.924 238.715 170.758 235.741C171.642 232.571 171.327 229.187 169.874 226.235C168.888 224.779 167.556 223.591 165.997 222.781Z" fill="#FE52FE" fill-opacity="0.2"/>
<path d="M118.481 87.7059C117.067 90.7462 116.849 94.2085 117.871 97.4025C119.059 99.9759 121.214 101.975 123.866 102.964L130.519 106.267C132.732 107.366 135.117 108.475 137.373 107.571C140.094 106.481 141.981 102.208 141.493 98.2416C140.974 94.0205 138.317 91.1171 135.86 88.6445C132.422 85.1844 128.984 81.7243 125.546 78.2642L123.608 80.6412C121.512 82.6887 119.779 85.0775 118.481 87.7059V87.7059Z" fill="#FE52FE" fill-opacity="0.2"/>
<path d="M352.651 132.83C355.644 133.536 358.636 134.242 361.629 134.948C361.108 145.072 356.097 154.441 349.378 157.835C346.579 159.247 343.46 159.769 341.143 162.409C339.048 164.806 337.986 168.539 337.011 172.107C335.303 178.334 333.594 184.561 331.885 190.787C330.051 197.498 327.695 204.953 322.926 207.37C318.833 209.449 314.151 206.906 311.004 202.642C307.856 198.378 305.935 192.644 304.072 187.055C304.188 193.147 301.359 199.123 297.353 201.24C293.337 203.357 288.452 201.443 285.768 196.715C283.837 193.321 283.036 188.844 281.144 185.402C279.251 181.96 275.284 179.987 273.218 183.217C271.856 185.363 272.03 188.651 271.354 191.377C271.014 193.188 270.119 194.847 268.794 196.124C267.468 197.401 265.779 198.233 263.96 198.504C262.287 198.465 260.639 198.086 259.117 197.39C257.595 196.693 256.231 195.694 255.107 194.452C249.195 188.395 245.346 180.621 244.111 172.242C243.273 168.224 243.379 164.067 244.42 160.097C245.607 156.336 248.474 153.436 251.322 154.151C253.195 150.186 249.498 144.926 246.167 145.391C242.827 145.855 240.211 149.442 237.469 152.198C234.737 154.953 230.914 156.955 228.162 154.218C228.224 155.219 227.886 156.204 227.223 156.955C226.56 157.706 225.626 158.163 224.627 158.225C224.528 158.231 224.429 158.233 224.33 158.231C222.5 157.705 220.8 156.803 219.339 155.582C213.035 151.646 205.031 154.257 200.552 161.702C203.352 149.771 207.455 136.079 216.056 133.275C219.57 132.124 223.403 133.072 226.724 131.08C232.603 127.551 233.791 114.217 228.713 108.715C229.36 113.917 229.234 119.989 226.492 123.548C223.751 127.106 217.997 124.785 218.344 119.525C218.266 120.265 217.957 120.961 217.459 121.514C216.962 122.067 216.303 122.448 215.577 122.602C214.85 122.757 214.093 122.677 213.415 122.374C212.736 122.072 212.171 121.562 211.799 120.918C209.974 118.133 210.129 113.579 211.423 110.253C212.756 107.24 214.669 104.52 217.051 102.247C221.637 97.325 226.29 92.3453 231.599 89.2511C236.919 86.157 243.059 85.1128 248.388 88.1876C251.197 89.8119 253.669 92.5194 256.536 93.9504C257.21 94.3691 257.959 94.6509 258.742 94.7795C259.524 94.9081 260.324 94.8811 261.096 94.7C261.868 94.5189 262.597 94.1872 263.241 93.724C263.885 93.2608 264.432 92.675 264.85 92.0002C264.882 91.9481 264.914 91.8955 264.945 91.8424C267.078 88.0907 266.074 82.5213 266.866 77.8318C268.285 69.5453 276.558 65.6679 281.144 71.1407C277.717 70.2608 274.174 74.3219 273.749 79.2436C273.314 84.1652 275.796 89.1352 279.117 90.6242C284.697 93.0995 290.161 86.8725 294.38 81.1097C298.782 75.076 303.19 69.0457 307.605 63.0186C308.31 61.9924 309.102 61.0284 309.971 60.1372C311.353 58.7872 313.197 58.0142 315.127 57.9747C317.058 57.9352 318.931 58.6322 320.368 59.9245C324.828 63.5697 326.923 71.0441 330.582 76.1881C335.892 83.6624 343.837 85.4802 351.232 86.9306C356.744 88.0039 362.26 89.0836 367.779 90.1698C371.458 97.0247 374.667 104.122 377.385 111.413C367.264 116.035 358.68 123.468 352.651 132.83Z" fill="#FE52FE" fill-opacity="0.2"/>
<path d="M382.695 128.247C381.564 131.586 380.945 135.078 380.86 138.603C376.13 132.821 375.377 121.982 378.485 114.478C380.078 118.984 381.482 123.574 382.695 128.247Z" fill="#FE52FE" fill-opacity="0.2"/>
<path d="M370.472 249.171C366.336 257.582 361.525 265.644 356.087 273.276C352.612 271.787 348.876 274.446 345.622 276.941C342.224 279.551 338.14 282.094 334.655 279.716C331.093 277.279 329.944 270.462 331.074 265.057C332.372 260.071 334.642 255.392 337.754 251.288C340.65 246.956 343.749 242.46 347.775 240.778C351.811 239.095 356.995 241.474 358.173 247.217L361.03 247.121C359.428 244.916 360.268 240.352 362.421 239.55C364.902 238.612 367.054 242.025 368.522 245.042C369.178 246.405 369.844 247.778 370.472 249.171Z" fill="#FE52FE" fill-opacity="0.2"/>
<path d="M261.03 208.329C254.888 208.715 250.022 201.142 246.789 193.692C243.556 186.241 240.606 177.721 235.064 173.929C231.898 171.762 228.287 171.465 224.853 170.415C222.904 169.922 221.101 168.971 219.593 167.641C218.085 166.311 216.915 164.64 216.18 162.767L212.284 161.191C206.834 163.92 201.843 167.484 197.491 171.755C192.518 177.046 189.421 183.828 188.676 191.056C187.932 198.868 190.681 207.577 195.816 210.512C199.874 212.83 204.598 211.369 208.708 213.491C213.844 216.143 216.893 223.847 218.047 231.453C219.201 239.059 218.908 246.964 219.734 254.657C220.56 262.349 222.835 270.354 227.545 274.296C233.438 279.229 242.086 275.13 244.73 266.15C246.027 261.745 245.983 256.774 246.953 252.202C248.661 244.15 253.271 238.176 256.927 231.57C260.583 224.965 263.461 215.994 261.03 208.329Z" fill="#FE52FE" fill-opacity="0.2"/>
<path d="M200.335 129.204C200.908 129.732 201.442 130.3 201.934 130.904C202.444 131.784 202.704 132.786 202.686 133.803C202.669 134.82 202.375 135.813 201.836 136.674C202.576 136.632 203.299 136.437 203.96 136.1C204.62 135.764 205.204 135.294 205.674 134.72C206.795 133.442 207.781 132.05 208.617 130.569C209.01 130.061 209.29 129.476 209.44 128.851C209.59 128.227 209.605 127.578 209.485 126.947C209.194 126.118 208.508 125.764 208.027 125.14C207.361 123.92 206.905 122.596 206.681 121.224C206.415 119.938 205.795 118.752 204.892 117.799C203.989 116.846 202.839 116.164 201.571 115.83L201.879 115.889C201.355 116.2 200.941 116.668 200.696 117.227C200.451 117.785 200.386 118.407 200.511 119.004C200.698 120.211 201.472 121.212 201.395 122.443C201.284 124.213 199.518 125.043 199.409 126.813C199.392 127.701 199.724 128.56 200.335 129.204V129.204Z" fill="#FE52FE" fill-opacity="0.2"/>
<path d="M191.653 107.439C192.391 106.791 192.936 105.952 193.23 105.014C193.524 104.076 193.556 103.075 193.32 102.121C192.874 100.109 191.295 98.7558 189.838 99.1274C189.416 99.5565 188.891 99.8709 188.314 100.041C187.737 100.211 187.126 100.232 186.538 100.1C185.638 99.8682 184.649 99.2702 183.868 99.9498C183.421 100.457 183.108 101.069 182.958 101.729C182.669 102.618 182.38 103.506 182.091 104.395C181.954 104.713 181.918 105.066 181.988 105.406C182.044 105.542 182.133 105.661 182.248 105.752C182.363 105.844 182.499 105.904 182.644 105.927C184.379 106.44 186.113 106.952 187.848 107.464C188.445 107.74 189.095 107.88 189.753 107.876C190.411 107.872 191.059 107.722 191.653 107.439V107.439Z" fill="#FE52FE" fill-opacity="0.2"/>
<path d="M322.602 222.115C321.8 220.8 320.999 219.485 320.197 218.171C319.409 216.648 318.333 215.294 317.027 214.184C316.744 213.947 316.418 213.768 316.066 213.657C315.714 213.546 315.344 213.506 314.976 213.538C314.609 213.571 314.252 213.676 313.925 213.846C313.597 214.017 313.307 214.251 313.07 214.534L313.029 214.585L313.126 215.336C315.273 217.642 316.736 220.501 317.351 223.593C317.534 224.936 317.47 226.327 317.631 227.677C317.647 228.302 317.787 228.919 318.042 229.49C318.297 230.062 318.662 230.577 319.116 231.008C320.379 231.852 321.861 230.607 322.76 229.087C323.563 227.839 323.923 226.356 323.783 224.877C323.582 223.885 323.181 222.945 322.602 222.115V222.115Z" fill="#FE52FE" fill-opacity="0.2"/>
<path d="M335.18 223.826C335.333 222.595 335.233 221.346 334.886 220.155C334.829 218.544 335.256 216.952 336.111 215.587C336.96 214.298 337.604 212.885 338.019 211.398C338.193 210.72 338.161 210.005 337.927 209.346C337.662 208.749 337.019 208.477 336.65 208.949L337.439 209.458C336.374 209.268 335.279 209.321 334.237 209.614C333.642 209.842 333.111 210.21 332.689 210.687C332.266 211.164 331.965 211.736 331.81 212.354C331.679 213.318 331.467 214.27 331.173 215.197C330.703 216.166 329.791 216.489 329.219 217.339C328.828 218.093 328.631 218.933 328.645 219.782C328.659 220.631 328.884 221.464 329.299 222.204C330.018 223.416 331.162 224.316 332.506 224.73C333.47 225.077 334.739 225.095 335.18 223.826Z" fill="#FE52FE" fill-opacity="0.2"/>
<path d="M357.58 230.594C357.929 231.502 358.395 232.36 358.968 233.146C360.041 234.228 361.498 233.563 362.799 233.3C363.98 233.113 365.189 233.25 366.298 233.696C367.407 234.141 368.375 234.879 369.1 235.831C368.595 233.311 367.494 230.949 365.889 228.943C364.284 226.938 362.222 225.347 359.876 224.305C356.828 223.249 353.615 222.745 350.39 222.82L349.839 222.961C351.243 227.054 355.651 226.962 357.58 230.594Z" fill="#FE52FE" fill-opacity="0.2"/>
<path d="M259.311 245.553C258.57 246.901 257.933 248.303 257.405 249.748C256.705 252.088 256.243 254.492 256.023 256.925C255.85 258.308 255.797 260.075 256.662 260.749C256.911 260.914 257.211 260.983 257.506 260.942C257.802 260.902 258.072 260.756 258.268 260.53C258.748 260.021 259.142 259.435 259.432 258.797C261.132 255.864 262.453 252.725 263.361 249.458C264.308 245.991 264.082 242.307 262.717 238.983C261.582 241.173 260.446 243.363 259.311 245.553Z" fill="#FE52FE" fill-opacity="0.2"/>
<path d="M226.529 70.0418C227.069 70.5702 227.751 70.9289 228.492 71.0737C229.233 71.2186 230 71.1432 230.698 70.8568C232.145 70.2234 233.472 69.3455 234.621 68.2615C235.573 67.5561 236.38 66.6739 236.999 65.6631C237.34 65.059 237.559 64.3934 237.642 63.7045C237.726 63.0156 237.673 62.317 237.486 61.6487C237.22 61.0085 236.796 60.4467 236.253 60.0165C235.71 59.5863 235.066 59.3019 234.383 59.1902C232.457 58.6183 230.532 58.0465 228.607 57.4747L230 56.2175C228.567 55.4472 226.981 56.8767 226.086 58.6465C225.511 59.8022 225.111 61.0366 224.898 62.3097C224.593 63.6398 224.581 65.0205 224.863 66.3557C225.144 67.691 225.713 68.9488 226.529 70.0418V70.0418Z" fill="#FE52FE" fill-opacity="0.2"/>
<path d="M260.521 58.6122C261.064 59.2114 261.814 59.5813 262.619 59.6469C263.424 59.7125 264.224 59.4689 264.856 58.9654C265.4 58.5561 265.852 58.0365 266.183 57.4406C266.513 56.8447 266.715 56.1857 266.774 55.5066C266.91 53.9898 266.161 52.3039 265.092 52.1729L265.336 50.7527C263.276 50.3801 260.741 50.3054 259.637 52.8113C259.265 53.7711 259.15 54.8121 259.306 55.8301C259.461 56.8481 259.88 57.8074 260.521 58.6122V58.6122Z" fill="#FE52FE" fill-opacity="0.2"/>
<path d="M68.0073 367.07C105.567 367.07 136.015 362.192 136.015 356.174C136.015 350.155 105.567 345.277 68.0073 345.277C30.4479 345.277 0 350.155 0 356.174C0 362.192 30.4479 367.07 68.0073 367.07Z" fill="#EBE0FF"/>
<path d="M399.773 355.993C457.888 355.993 505 348.445 505 339.133C505 329.821 457.888 322.272 399.773 322.272C341.657 322.272 294.545 329.821 294.545 339.133C294.545 348.445 341.657 355.993 399.773 355.993Z" fill="#EBE0FF"/>
<path d="M376.393 177.067C376.393 177.067 377.289 180.058 372.212 182.749C367.136 185.441 365.642 195.609 371.615 198.599C377.587 201.59 379.379 205.477 376.393 208.169C373.407 210.86 368.031 218.038 375.198 219.832C382.365 221.626 383.261 225.215 381.171 226.71C379.08 228.206 385.949 224.019 385.949 224.019C385.949 224.019 387.143 231.196 393.414 229.402C399.685 227.608 417.304 193.515 408.346 188.73C399.387 183.945 376.393 177.067 376.393 177.067Z" fill="#553855"/>
<path d="M387.216 205.944C387.216 205.944 390.314 216.802 384.893 217.577C381.529 218.102 378.341 219.432 375.6 221.455L385.668 234.639H404.253L415.87 223.006C415.87 223.006 400.381 211.373 403.479 204.393C406.577 197.413 387.216 205.944 387.216 205.944Z" fill="#FFB8B8"/>
<path opacity="0.1" d="M387.216 205.944C387.216 205.944 390.314 216.802 384.893 217.577C381.529 218.102 378.341 219.432 375.6 221.455L385.668 234.639H404.253L415.87 223.006C415.87 223.006 400.381 211.373 403.479 204.393C406.577 197.413 387.216 205.944 387.216 205.944Z" fill="black"/>
<path d="M391.863 340.886L409.674 347.09L422.065 347.865L421.29 337.008L395.735 329.439L391.863 340.886Z" fill="#FFB8B8"/>
<path d="M414.708 338.559C414.708 338.559 414.708 349.417 416.257 349.417C417.806 349.417 438.715 347.09 444.91 349.417C451.105 351.743 460.398 343.212 455.752 338.559C451.105 333.906 443.526 326.926 438.797 328.477C434.068 330.028 414.708 333.906 414.708 333.906V338.559Z" fill="#553855"/>
<path d="M357.789 328.478C357.789 328.478 348.496 347.09 354.691 348.641C360.887 350.192 367.856 347.866 368.631 347.09C369.405 346.315 380.247 343.212 381.796 344.763C383.344 346.315 383.344 338.559 383.344 338.559L357.789 328.478Z" fill="#553855"/>
<path d="M365.533 302.885C365.533 302.885 350.819 323.049 361.661 328.477C372.503 333.906 424.388 333.906 428.26 328.477C432.132 323.049 433.681 305.987 428.26 304.436C422.839 302.885 365.533 302.885 365.533 302.885Z" fill="#553855"/>
<path opacity="0.2" d="M365.533 302.885C365.533 302.885 350.819 323.049 361.661 328.477C372.503 333.906 424.388 333.906 428.26 328.477C432.132 323.049 433.681 305.987 428.26 304.436C422.839 302.885 365.533 302.885 365.533 302.885Z" fill="black"/>
<path d="M393.412 211.373C403.249 211.373 411.223 203.387 411.223 193.536C411.223 183.684 403.249 175.698 393.412 175.698C383.575 175.698 375.6 183.684 375.6 193.536C375.6 203.387 383.575 211.373 393.412 211.373Z" fill="#FFB8B8"/>
<path d="M365.533 221.455L381.021 218.353C381.021 218.353 384.893 230.761 397.284 228.434C409.674 226.108 412.772 218.353 412.772 218.353C412.772 218.353 422.065 222.23 422.839 222.23C423.614 222.23 433.681 226.108 433.681 228.434C433.681 230.761 422.065 254.027 422.065 254.027L423.614 295.905L366.307 294.354L370.179 253.251L365.533 221.455Z" fill="#BC98BC"/>
<path d="M357.015 241.618C357.015 241.618 352.368 282.721 355.466 285.823C358.563 288.926 370.954 297.456 370.954 297.456V288.15L364.759 276.517L370.954 249.374L357.015 241.618Z" fill="#FFB8B8"/>
<path d="M437.166 240.455C437.166 240.455 434.455 282.721 434.455 284.272C434.455 285.823 427.486 291.252 425.163 291.252C422.839 291.252 421.29 287.374 421.29 287.374L426.711 281.17L422.839 249.374L437.166 240.455Z" fill="#FFB8B8"/>
<path d="M429.809 299.783C429.809 299.783 464.657 280.395 465.432 299.783C466.206 319.171 447.62 326.926 447.62 326.926C447.62 326.926 399.607 341.344 397.671 336.074C395.735 330.804 391.863 322.273 394.961 321.498C398.058 320.722 401.93 319.171 403.479 320.722C405.028 322.273 424.388 309.089 424.388 309.089L429.809 299.783Z" fill="#553855"/>
<path opacity="0.2" d="M446.072 297.456C446.072 297.456 439.102 300.558 436.779 302.885C434.455 305.212 424.388 309.089 424.388 309.089" stroke="black" stroke-width="2" stroke-miterlimit="10"/>
<path d="M370.18 223.006L365.533 221.455C365.533 221.455 348.496 239.292 353.917 243.945C359.338 248.598 362.435 250.149 363.984 251.7C365.533 253.251 373.277 254.027 373.277 254.027L370.18 223.006Z" fill="#BC98BC"/>
<path d="M426.711 226.883L433.681 228.434C433.681 228.434 439.102 240.067 440.651 241.618C442.2 243.169 438.327 242.394 436.004 245.496C433.681 248.598 431.358 254.027 426.711 254.027C422.065 254.027 415.87 246.271 415.87 246.271L426.711 226.883Z" fill="#BC98BC"/>
<path d="M367.082 306.763C367.082 306.763 337.654 285.823 327.587 301.334C317.52 316.844 370.954 337.784 378.698 340.886C386.442 343.988 393.412 347.09 393.412 347.09C393.412 347.09 400.381 330.028 400.381 326.926C400.381 323.824 394.961 323.824 393.412 323.824C391.863 323.824 384.893 322.273 383.344 319.946C381.796 317.62 367.082 306.763 367.082 306.763Z" fill="#553855"/>
<path opacity="0.2" d="M350.819 301.334C350.819 301.334 358.563 307.538 365.533 309.089C372.503 310.64 374.826 314.518 374.826 314.518" stroke="black" stroke-width="2" stroke-miterlimit="10"/>
<path d="M361.74 272.174L362.359 305.011C362.379 306.095 362.827 307.128 363.604 307.883C364.381 308.639 365.425 309.056 366.509 309.043L427.527 308.357C428.566 308.345 429.563 307.939 430.315 307.22C431.067 306.501 431.519 305.523 431.578 304.483L433.431 272.334C433.463 271.775 433.381 271.215 433.189 270.689C432.998 270.164 432.701 269.682 432.318 269.275C431.934 268.868 431.471 268.544 430.958 268.322C430.445 268.101 429.892 267.986 429.333 267.986H365.844C365.298 267.986 364.758 268.095 364.255 268.307C363.752 268.518 363.296 268.828 362.914 269.218C362.532 269.608 362.231 270.07 362.03 270.578C361.828 271.085 361.73 271.628 361.74 272.174V272.174Z" fill="#BF13BF"/>
<path d="M394.363 171.129C394.363 171.129 395.356 174.442 389.732 177.423C384.108 180.405 382.454 191.669 389.07 194.982C395.687 198.295 397.671 202.602 394.363 205.583C391.055 208.565 385.101 216.516 393.04 218.504C400.98 220.492 401.972 224.467 399.656 226.124C397.341 227.78 404.949 223.142 404.949 223.142C404.949 223.142 406.273 231.093 413.22 229.105C420.167 227.117 427.099 190.985 419.354 181.678C412.154 173.025 394.363 171.129 394.363 171.129Z" fill="#553855"/>
<path d="M392.25 167.719C392.252 162.865 406.752 166.353 412.968 173.129C417.273 177.822 423.812 184.882 418.333 189.859C412.854 194.836 427.725 201.36 431.713 203.338C435.702 205.316 443.577 211.365 436.466 215.422C429.356 219.48 429.47 223.577 432.146 224.546C434.822 225.516 426.247 223.104 426.247 223.104C426.247 223.104 427.113 231.118 419.888 231.08C412.663 231.042 391.935 191.278 396.887 180.225C401.491 169.948 392.25 167.719 392.25 167.719Z" fill="#553855"/>
<path d="M395.391 166.655C376.001 165.486 374.055 180.103 374.055 180.103C374.189 188.561 387.602 184.44 391.328 185.701C395.822 182.463 404.486 176.336 410.682 171.964C406.184 168.792 400.884 166.952 395.391 166.655Z" fill="#553855"/>
<path d="M389.867 259.928L391.348 254.347L385.775 255.854L389.867 259.928ZM263.606 119.074L266.588 124.018L269.379 118.963L263.606 119.074ZM389.171 255.438C383.895 237.954 358.639 171.708 267.781 120.808L267.292 121.68C357.87 172.423 382.992 238.424 388.213 255.727L389.171 255.438Z" fill="#332433"/>
<path d="M31.4641 343.34C31.4641 353.679 25.3267 357.289 17.7552 357.289C17.5798 357.289 17.4046 357.287 17.2298 357.283C16.879 357.276 16.5315 357.259 16.1882 357.236C9.35508 356.751 4.04623 352.956 4.04623 343.34C4.04623 333.388 16.7445 320.832 17.6984 319.902L17.7 319.901C17.7368 319.865 17.7552 319.847 17.7552 319.847C17.7552 319.847 31.4641 333 31.4641 343.34Z" fill="#BC98BC"/>
<path d="M17.2557 355.708L22.2697 348.692L17.2432 356.478L17.2298 357.284C16.879 357.276 16.5315 357.259 16.1882 357.236L16.7286 346.891L16.7245 346.811L16.7337 346.796L16.7846 345.819L11.7455 338.013L16.8005 345.086L16.8122 345.294L17.2206 337.478L12.9066 329.412L17.2732 336.106L17.6984 319.902L17.7 319.847V319.901L17.6291 332.678L21.9239 327.613L17.6115 333.779L17.4979 340.777L21.5079 334.061L17.4812 341.807L17.4177 345.697L23.2394 336.35L17.396 347.055L17.2557 355.708Z" fill="#FFB8B8"/>
<path d="M96.8521 340.661L99.7846 338.479C99.7846 338.479 101.726 349.338 99.5597 350.965C97.3936 352.592 89.2709 355.303 89.2709 358.557C89.2709 361.811 70.8595 366.149 70.318 361.268C69.7765 356.388 71.9425 353.676 71.9425 353.676C71.9425 353.676 80.6067 345 81.6898 343.373C82.7728 341.746 85.4803 338.492 85.4803 338.492L96.8521 340.661Z" fill="#553855"/>
<path d="M53.5311 205.63C53.5311 205.63 53.6123 206.107 53.7531 206.98C53.8831 207.756 54.0618 208.851 54.2784 210.201C56.5528 224.1 63.1863 265.017 62.7368 266.367C62.1953 267.994 58.4047 273.959 62.7368 275.586C63.1538 275.743 63.6032 276.253 64.0852 277.056C65.0154 278.784 65.7823 280.596 66.3758 282.468C68.9588 289.973 71.7206 301.985 73.318 310.304C74.0166 313.959 74.493 316.898 74.6338 318.438C74.6828 318.794 74.6883 319.155 74.6501 319.512C74.1086 321.681 77.8992 329.273 79.5237 331.442C81.1483 333.612 83.8558 335.781 83.3143 337.95C82.7728 340.119 96.8521 346.084 98.4767 342.288C100.101 338.492 100.101 336.323 100.643 335.238C101.184 334.154 101.726 326.562 99.0182 325.477C96.3106 324.393 97.9352 305.412 95.2276 301.616C94.3233 300.353 92.9424 296.074 91.4966 290.927C90.928 288.91 90.354 286.763 89.7908 284.61C87.5056 275.787 85.4804 266.909 85.4804 266.909L86.0219 203.461L56.2387 199.665L55.4752 201.351L53.9535 204.697L53.5311 205.63Z" fill="#553855"/>
<path d="M51.9065 309.75C51.9065 309.75 47.5744 305.412 45.4084 309.75C43.2423 314.089 41.0763 330.9 37.2857 334.696C33.4951 338.492 28.6215 357.472 34.0366 358.557C39.4517 359.642 45.4084 356.93 45.9499 353.676C46.4914 350.423 57.8632 333.611 57.8632 331.985C57.8632 330.358 50.282 324.392 50.282 324.392L51.9065 309.75Z" fill="#553855"/>
<path d="M118.513 175.803C118.513 175.803 111.473 239.252 109.848 245.217C108.224 251.182 99.5597 273.959 96.8521 277.755C94.1445 281.551 76.8161 312.462 74.6501 314.089C72.484 315.716 68.1519 320.054 68.1519 320.054C68.1519 320.054 60.0292 328.188 58.9462 329.815C57.8632 331.442 48.6575 326.562 48.1159 323.308C47.5744 320.054 48.6575 314.631 49.199 312.462C49.7405 310.293 48.1159 307.039 49.7405 305.412C51.365 303.785 59.4877 295.651 59.4877 291.855C59.4877 288.059 73.5671 265.824 78.9822 260.944C84.3973 256.063 83.3143 247.929 83.3143 247.929V214.849L53.5311 205.63C53.5311 205.63 55.1556 179.599 58.9462 179.599C62.7368 179.599 112.556 170.923 118.513 175.803Z" fill="#553855"/>
<path d="M74.6501 85.2402C84.5194 85.2402 92.52 77.228 92.52 67.3445C92.52 57.4609 84.5194 49.4487 74.6501 49.4487C64.7808 49.4487 56.7802 57.4609 56.7802 67.3445C56.7802 77.228 64.7808 85.2402 74.6501 85.2402Z" fill="#FFB8B8"/>
<path d="M80.6067 81.444C80.6067 81.444 82.7728 89.5784 85.4804 91.7476C88.1879 93.9168 78.4407 103.136 78.4407 103.136L60.0292 104.22L56.7802 93.9168C56.7802 93.9168 62.7368 81.9863 61.1123 74.3942C59.4877 66.802 80.6067 81.444 80.6067 81.444Z" fill="#FFB8B8"/>
<path d="M88.1879 90.6631C88.1879 90.6631 83.3143 91.2054 82.2313 92.8323C81.1483 94.4592 73.5671 99.3398 67.6104 98.2552C61.6538 97.1706 57.8632 95.5437 56.7802 96.086C55.6972 96.6283 53.5311 108.017 53.5311 108.017L59.4877 125.37L58.4047 173.092L56.7802 186.107C56.7802 186.107 53.5311 181.769 66.5274 184.48C79.5237 187.192 96.3106 182.311 101.726 181.769C107.141 181.226 116.347 179.6 116.888 176.346C117.43 173.092 115.264 161.161 115.264 161.161L106.599 124.828L101.184 105.305L88.1879 90.6631Z" fill="#BC98BC"/>
<path d="M83.0658 88.2155C83.0658 88.2155 87.6464 85.7825 89.2709 87.9516C90.8955 90.1208 111.473 93.3746 111.473 95.0015C111.473 96.6284 115.805 140.554 114.722 144.35C113.639 148.146 116.888 152.485 116.888 152.485L120.679 168.754C120.679 168.754 130.967 199.664 126.635 200.749C122.303 201.834 118.513 200.749 116.888 200.749C115.264 200.749 115.805 180.142 111.473 174.719C107.141 169.296 101.184 155.739 100.101 153.027C99.0182 150.316 85.4803 112.897 86.0219 108.559C86.5634 104.221 83.0658 88.2155 83.0658 88.2155Z" fill="#785678"/>
<path d="M60.5708 90.6631C60.5708 90.6631 56.2387 90.6631 55.6971 91.7477C55.1556 92.8323 49.7405 99.8821 47.5744 101.509C45.4084 103.136 37.8272 110.186 37.8272 111.813C37.8272 113.439 53.5311 125.37 53.5311 125.37C53.5311 125.37 60.0292 157.365 56.7802 168.211C53.5311 179.057 48.6575 205.087 50.8235 206.714C52.9896 208.341 57.8632 208.883 57.8632 206.714C57.8632 204.545 61.1123 181.226 63.8199 176.346C66.5274 171.465 74.6501 140.554 71.401 131.877C68.1519 123.201 60.5708 90.6631 60.5708 90.6631Z" fill="#785678"/>
<path d="M132.05 144.35C132.05 144.35 132.592 161.161 126.635 169.838C120.679 178.515 116.888 188.276 116.888 188.276C116.888 188.276 107.141 185.565 105.516 182.311C103.892 179.057 93.603 181.769 93.603 180.684C93.603 179.6 106.058 174.177 107.141 173.092C108.224 172.007 112.014 172.007 114.181 169.838C116.347 167.669 116.888 162.788 116.888 162.788L119.054 148.689L132.05 144.35Z" fill="#FFB8B8"/>
<path d="M86.958 56.3103C88.3327 56.1852 89.7506 56.0476 90.9656 55.3914C93.688 53.9211 94.4099 49.7341 92.3374 47.4347C91.766 46.8497 91.1269 46.335 90.4336 45.9017L86.3174 43.0959C84.4969 41.855 82.6334 40.5938 80.5101 40.0088C78.5896 39.4797 76.5612 39.534 74.5732 39.6578C70.714 39.898 66.8308 40.3942 63.201 41.7286C59.5711 43.0629 56.1851 45.2953 53.9867 48.4808C50.5016 53.5308 50.4536 60.3417 52.3732 66.1717C54.2927 72.0017 57.9389 77.0784 61.5317 82.0522L63.3959 72.9432C63.5619 72.1319 63.7766 71.2427 64.4504 70.7625C66.1251 69.5691 68.1737 72.0194 70.2291 72.0036C71.5497 71.9934 72.6585 70.9055 73.159 69.6816C73.6595 68.4576 73.6925 67.1022 73.8083 65.7847C74.0535 62.9941 75.0275 59.1112 77.6664 57.5722C80.1254 56.1381 84.1939 56.5617 86.958 56.3103Z" fill="#553855"/>
<path opacity="0.1" d="M85.9555 206.067C85.9555 206.067 84.1266 259.046 83.0435 260.673C81.9605 262.3 83.0435 205.901 83.0435 205.901L85.9555 206.067Z" fill="black"/>
<path d="M107.141 95.0015H111.473C111.473 95.0015 129.884 119.947 127.718 121.574C125.552 123.201 127.718 127.539 127.718 127.539L132.05 135.674C132.05 135.674 137.466 140.554 135.841 141.639C134.217 142.723 132.05 147.062 132.05 147.062C132.05 147.062 121.22 145.435 117.971 151.942L110.948 143.063L107.141 95.0015Z" fill="#785678"/>
<path d="M108.672 103.025L93.8068 109.173L105.246 136.914L120.111 130.767L108.672 103.025Z" fill="#553855"/>
<path d="M106.93 119.296C108.572 118.617 109.398 116.842 108.775 115.331C108.152 113.821 106.316 113.147 104.674 113.826C103.032 114.505 102.206 116.28 102.829 117.79C103.452 119.301 105.288 119.975 106.93 119.296Z" fill="#BC98BC"/>
<path d="M96.3106 138.385C96.3106 138.385 57.3217 170.923 50.8235 160.619C44.3253 150.315 57.8632 141.639 57.8632 141.639C57.8632 141.639 69.7765 142.181 83.3143 133.504L96.8521 127.539C96.8521 127.539 109.211 109.869 113.423 116.598C117.634 123.326 106.234 135.037 96.3106 138.385Z" fill="#FFB8B8"/>
<path d="M43.7839 109.644L37.8272 111.813V128.082L35.6612 131.335C35.6612 131.335 36.2027 137.843 37.8272 139.47C39.4518 141.097 42.7008 140.554 41.6178 144.35C40.9669 146.825 40.7832 149.4 41.0763 151.943C41.0763 151.943 50.8235 164.415 51.365 162.788C51.9066 161.162 59.4877 141.097 60.5708 141.097C61.6538 141.097 49.7405 109.644 49.7405 109.644H43.7839Z" fill="#785678"/>
<path d="M114.993 191.801C114.993 191.801 120.592 186.378 117.792 186.107C114.993 185.836 105.246 180.413 103.621 183.124C101.997 185.836 114.993 191.801 114.993 191.801Z" fill="#553855"/>
<path d="M221.483 88.3532C225.797 88.3532 229.295 86.4989 229.295 84.2116C229.295 81.9243 225.797 80.0701 221.483 80.0701C217.169 80.0701 213.672 81.9243 213.672 84.2116C213.672 86.4989 217.169 88.3532 221.483 88.3532Z" fill="#57B894"/>
<path d="M251.351 98.0168C233.737 91.3545 216.122 91.3545 198.508 98.0168V76.3887C215.739 71.1816 234.12 71.1816 251.351 76.3887V98.0168Z" stroke="#332433" stroke-miterlimit="10"/>
<path d="M243.999 93.5441C231.286 88.7357 218.573 88.7357 205.86 93.5441V77.9343C218.296 74.1762 231.563 74.1762 243.999 77.9343V93.5441Z" stroke="#332433" stroke-miterlimit="10"/>
<path d="M224.24 86.5126C228.554 86.5126 232.052 84.6584 232.052 82.3711C232.052 80.0837 228.554 78.2295 224.24 78.2295C219.926 78.2295 216.429 80.0837 216.429 82.3711C216.429 84.6584 219.926 86.5126 224.24 86.5126Z" stroke="#332433" stroke-width="2" stroke-miterlimit="10"/>
<path d="M227.227 114.29C231.454 113.426 234.511 110.909 234.054 108.668C233.597 106.427 229.8 105.31 225.573 106.174C221.346 107.038 218.289 109.556 218.746 111.797C219.203 114.038 223 115.154 227.227 114.29Z" fill="#57B894"/>
<path d="M258.421 117.777C239.832 114.777 222.574 118.304 206.645 128.36L202.327 107.168C218.17 98.616 236.18 94.9347 254.103 96.5859L258.421 117.777Z" stroke="#332433" stroke-miterlimit="10"/>
<path d="M250.325 114.867C236.908 112.702 224.452 115.248 212.956 122.505L209.839 107.21C221.273 101.038 234.272 98.3807 247.208 99.5724L250.325 114.867Z" stroke="#332433" stroke-miterlimit="10"/>
<path d="M229.561 111.934C233.788 111.07 236.844 108.553 236.388 106.312C235.931 104.071 232.134 102.955 227.907 103.819C223.68 104.683 220.623 107.2 221.08 109.441C221.537 111.682 225.334 112.798 229.561 111.934Z" stroke="#332433" stroke-width="2" stroke-miterlimit="10"/>
<path d="M232.573 136.517C232.731 134.235 229.371 132.142 225.067 131.842C220.763 131.543 217.146 133.149 216.987 135.431C216.829 137.713 220.189 139.806 224.493 140.106C228.797 140.405 232.414 138.799 232.573 136.517Z" fill="#57B894"/>
<path d="M253.619 151.822C236.509 143.952 218.937 142.727 200.903 148.149L202.402 126.573C219.952 122.576 238.29 123.854 255.118 130.246L253.619 151.822Z" stroke="#332433" stroke-miterlimit="10"/>
<path d="M246.595 146.849C234.246 141.169 221.563 140.285 208.548 144.198L209.63 128.626C222.296 125.741 235.531 126.663 247.677 131.277L246.595 146.849Z" stroke="#332433" stroke-miterlimit="10"/>
<path d="M235.451 134.873C235.609 132.591 232.249 130.498 227.945 130.198C223.641 129.898 220.024 131.505 219.865 133.786C219.707 136.068 223.067 138.161 227.371 138.461C231.675 138.761 235.292 137.154 235.451 134.873Z" stroke="#332433" stroke-width="2" stroke-miterlimit="10"/>
<path d="M190.66 98.519L185.955 95.1727L185.41 100.92L190.66 98.519ZM132.77 108.046L138.541 108.231L135.816 103.141L132.77 108.046ZM186.214 97.5948C176.908 96.9396 154.794 96.5635 136.518 105.473L136.956 106.372C154.984 97.5836 176.873 97.9396 186.144 98.5924L186.214 97.5948Z" fill="#332433"/>
</g>
<defs>
<clipPath id="clip0_1_173">
<rect width="505" height="367.07" fill="white"/>
</clipPath>
</defs>
</svg>
