<svg width="485" height="257" viewBox="0 0 485 257" fill="none" xmlns="http://www.w3.org/2000/svg">
<g clip-path="url(#clip0_1_647)">
<path d="M481.861 256.336H211.805C210.973 256.335 210.175 256.005 209.587 255.418C208.998 254.831 208.667 254.036 208.666 253.206V3.12985C208.667 2.3001 208.998 1.50464 209.587 0.91791C210.175 0.331184 210.973 0.00108597 211.805 0H481.861C482.693 0.00108597 483.491 0.331184 484.079 0.91791C484.668 1.50464 484.999 2.3001 485 3.12985V253.206C484.999 254.035 484.668 254.831 484.08 255.418C483.491 256.004 482.693 256.335 481.861 256.335V256.336ZM211.805 1.24948C211.306 1.25056 210.828 1.44859 210.476 1.80022C210.123 2.15185 209.924 2.62846 209.923 3.12574V253.206C209.924 253.703 210.123 254.179 210.476 254.531C210.828 254.883 211.306 255.081 211.805 255.082H481.861C482.36 255.081 482.838 254.883 483.191 254.531C483.543 254.18 483.742 253.703 483.743 253.206V3.12985C483.742 2.63257 483.543 2.15596 483.191 1.80433C482.838 1.45269 482.36 1.25467 481.861 1.25358L211.805 1.24948Z" fill="#E6E6E6"/>
<path d="M339.411 64.9832C338.846 64.9832 338.304 65.207 337.905 65.6055C337.505 66.004 337.28 66.5445 337.28 67.108C337.28 67.6716 337.505 68.2121 337.905 68.6105C338.304 69.009 338.846 69.2329 339.411 69.2329H456.342C456.907 69.2329 457.449 69.009 457.849 68.6105C458.248 68.2121 458.473 67.6716 458.473 67.108C458.473 66.5445 458.248 66.004 457.849 65.6055C457.449 65.207 456.907 64.9832 456.342 64.9832H339.411Z" fill="#E6E6E6"/>
<path d="M339.411 77.7336C338.846 77.7336 338.304 77.9575 337.905 78.356C337.505 78.7544 337.28 79.2949 337.28 79.8585C337.28 80.422 337.505 80.9625 337.905 81.361C338.304 81.7595 338.846 81.9833 339.411 81.9833H399.107C399.672 81.9833 400.214 81.7595 400.614 81.361C401.013 80.9625 401.238 80.422 401.238 79.8585C401.238 79.2949 401.013 78.7544 400.614 78.356C400.214 77.9575 399.672 77.7336 399.107 77.7336H339.411Z" fill="#E6E6E6"/>
<path d="M237.21 139.448C236.645 139.448 236.103 139.671 235.704 140.07C235.304 140.468 235.079 141.009 235.079 141.572C235.079 142.136 235.304 142.676 235.704 143.075C236.103 143.473 236.645 143.697 237.21 143.697H456.456C457.021 143.697 457.563 143.473 457.962 143.075C458.362 142.676 458.587 142.136 458.587 141.572C458.587 141.009 458.362 140.468 457.962 140.07C457.563 139.671 457.021 139.448 456.456 139.448H237.21Z" fill="#E6E6E6"/>
<path d="M237.21 152.198C236.645 152.198 236.103 152.422 235.704 152.82C235.304 153.219 235.079 153.759 235.079 154.323C235.079 154.886 235.304 155.427 235.704 155.825C236.103 156.224 236.645 156.448 237.21 156.448H399.221C399.786 156.448 400.328 156.224 400.727 155.825C401.127 155.427 401.352 154.886 401.352 154.323C401.352 153.759 401.127 153.219 400.727 152.82C400.328 152.422 399.786 152.198 399.221 152.198H237.21Z" fill="#E6E6E6"/>
<path d="M237.21 164.66C236.645 164.66 236.103 164.884 235.704 165.282C235.304 165.681 235.079 166.221 235.079 166.785C235.079 167.348 235.304 167.889 235.704 168.287C236.103 168.686 236.645 168.91 237.21 168.91H456.456C457.021 168.91 457.563 168.686 457.962 168.287C458.362 167.889 458.587 167.348 458.587 166.785C458.587 166.221 458.362 165.681 457.962 165.282C457.563 164.884 457.021 164.66 456.456 164.66H237.21Z" fill="#E6E6E6"/>
<path d="M237.21 177.41C236.645 177.41 236.103 177.634 235.704 178.033C235.304 178.431 235.079 178.972 235.079 179.535C235.079 180.099 235.304 180.639 235.704 181.038C236.103 181.436 236.645 181.66 237.21 181.66H399.221C399.786 181.66 400.328 181.436 400.727 181.038C401.127 180.639 401.352 180.099 401.352 179.535C401.352 178.972 401.127 178.431 400.727 178.033C400.328 177.634 399.786 177.41 399.221 177.41H237.21Z" fill="#E6E6E6"/>
<path d="M309.86 109.752H140.354C139.522 109.751 138.724 109.421 138.135 108.834C137.547 108.248 137.216 107.452 137.215 106.622V32.4469C137.216 31.6171 137.547 30.8215 138.135 30.2348C138.724 29.648 139.522 29.3179 140.354 29.317H309.86C310.692 29.3179 311.49 29.648 312.079 30.2348C312.667 30.8215 312.998 31.6171 312.999 32.4469V106.622C312.998 107.452 312.667 108.248 312.079 108.834C311.49 109.421 310.692 109.751 309.86 109.752Z" fill="#BF13BF"/>
<path d="M455.1 227.019H390.849C390.016 227.018 389.219 226.688 388.63 226.101C388.042 225.514 387.711 224.719 387.71 223.889V213.624C387.711 212.794 388.042 211.999 388.63 211.412C389.219 210.825 390.016 210.495 390.849 210.494H455.1C455.932 210.495 456.73 210.825 457.318 211.412C457.907 211.999 458.238 212.794 458.239 213.624V223.889C458.238 224.719 457.907 225.514 457.318 226.101C456.73 226.688 455.932 227.018 455.1 227.019Z" fill="#BF13BF"/>
<path d="M74.3461 125.54C71.5772 123.479 70.7646 119.627 72.5311 116.937C72.7066 116.674 72.9051 116.426 73.1242 116.197L73.3012 61.3989L81.4701 62.9197L81.829 116.815C83.6901 118.968 84.0659 122.105 82.5585 124.401C80.7919 127.091 77.1152 127.601 74.3461 125.54Z" fill="#FFB8B8"/>
<path d="M116.829 248.196L125.25 248.195L129.257 215.805L116.828 215.806L116.829 248.196Z" fill="#FFB8B8"/>
<path d="M114.681 245.454L131.266 245.453H131.267C134.07 245.454 136.758 246.564 138.74 248.54C140.722 250.517 141.836 253.197 141.836 255.993V256.335L114.681 256.336L114.681 245.454Z" fill="#2F2E41"/>
<path d="M38.5186 248.196L46.9407 248.195L50.9469 215.805L38.5174 215.806L38.5186 248.196Z" fill="#FFB8B8"/>
<path d="M36.3706 245.454L52.9559 245.453H52.9565C55.7597 245.454 58.4479 246.564 60.43 248.54C62.4121 250.517 63.5258 253.197 63.526 255.993V256.335L36.3711 256.336L36.3706 245.454Z" fill="#2F2E41"/>
<path d="M116.337 239.149L115.631 234.926C114.906 234.673 114.29 234.18 113.886 233.529C113.128 232.335 113.007 230.654 113.527 228.533L107.844 180.684L78.1785 149.993L59.1472 195.764L51.6134 231.985V237.218L36.5716 239.144L37.2561 234.212C36.6807 233.966 36.2013 233.54 35.8903 232.998C35.0261 231.564 35.0379 229.341 35.9253 226.391L35.9638 226.263L35.9147 225.823C35.8803 225.514 36.1064 195.928 44.9267 181.27L53.7603 136.766C53.5309 136.139 52.3983 132.49 54.4753 126.324C56.5252 120.239 62.2581 110.435 77.9292 98.2903L77.983 98.2488L78.0498 98.2348C78.2234 98.199 95.5076 94.7726 104.447 106.429L104.507 106.507V106.607C104.507 107.327 104.491 124.097 103.162 127.818L124.373 166.709C124.786 167.145 128.494 171.415 127.177 182.642L130.604 220.911C130.996 221.657 134.543 228.686 130.634 231.468L131.334 236.3L116.337 239.149Z" fill="#2F2E41"/>
<path d="M80.8527 78.3341C76.87 78.3341 71.5773 76.9305 68.3374 70.4604L68.2737 70.3333L76.2554 53.4622C77.2895 51.2764 79.1404 49.581 81.4121 48.7387C83.6839 47.8963 86.196 47.974 88.411 48.955C90.626 49.9361 92.368 51.7426 93.2643 53.988C94.1606 56.2335 94.14 58.7395 93.2069 60.97L86.3062 77.4655L86.1861 77.5099C84.4626 78.0619 82.6628 78.34 80.8527 78.3341Z" fill="#BF13BF"/>
<path d="M102.962 111.783L77.8 99.9354L81.2588 57.8591L87.5644 50.1743L88.786 49.9135C94.3998 48.715 100.233 49.0372 105.68 50.8465L105.8 50.8863L116.157 72.9188C116.222 73.0287 123.692 86.1786 113.366 93.1116L102.962 111.783Z" fill="#BF13BF"/>
<path d="M137.555 98.3742C137.255 98.499 136.965 98.6472 136.688 98.8175L110.173 86.7234L109.492 79.6929L98.7176 79.3297L98.7088 91.8925C98.7081 92.9074 99.0375 93.8952 99.6477 94.7075C100.258 95.5198 101.116 96.1128 102.093 96.3975L133.933 105.676C134.26 106.883 134.947 107.961 135.904 108.768C136.861 109.576 138.042 110.073 139.289 110.195C140.536 110.317 141.791 110.057 142.887 109.451C143.982 108.844 144.867 107.919 145.422 106.799C145.978 105.679 146.179 104.416 145.997 103.18C145.816 101.943 145.261 100.791 144.407 99.8766C143.553 98.962 142.44 98.3284 141.216 98.0601C139.992 97.7917 138.715 97.9013 137.555 98.3743L137.555 98.3742Z" fill="#FFB8B8"/>
<path d="M105.123 82.6932C102.101 82.6932 98.6914 81.6514 95.4185 78.3879L95.3176 78.2874L97.5291 59.7641C97.8156 57.3642 99.0326 55.1714 100.92 53.6549C102.807 52.1384 105.214 51.4187 107.627 51.6496C110.04 51.8805 112.266 53.0438 113.829 54.8906C115.393 56.7374 116.169 59.121 115.993 61.5314L114.687 79.3567L114.587 79.4366C114.523 79.4879 110.421 82.6932 105.123 82.6932Z" fill="#BF13BF"/>
<path d="M113.208 35.5168C117.677 27.3641 114.673 17.1421 106.497 12.6854C98.3204 8.22876 88.0692 11.225 83.5997 19.3777C79.1302 27.5304 82.1351 37.7524 90.3112 42.2091C98.4873 46.6657 108.739 43.6695 113.208 35.5168Z" fill="#FFB8B8"/>
<path d="M115.575 18.5335C114.738 13.6781 110.829 9.65305 106.172 8.00617C101.516 6.35929 96.2645 6.89487 91.7045 8.79137C90.9451 9.10863 90.2026 9.46462 89.4799 9.85791C87.8132 6.69005 83.727 4.85274 79.9896 5.05104C75.4744 5.2906 71.3967 7.67283 67.4753 9.918C63.5538 12.1632 59.3458 14.397 54.8252 14.2925C46.6558 14.1036 40.5781 6.55138 32.7226 4.30697C29.2256 3.30787 25.5047 3.40893 22.0674 4.59638C18.6302 5.78382 15.644 7.9998 13.5164 10.942C11.3888 13.8842 10.2234 17.4092 10.1791 21.0363C10.1348 24.6633 11.2138 28.2156 13.269 31.2086C16.6208 25.2191 24.4921 23.1961 31.3221 24.0115C38.1517 24.8269 44.5171 27.812 51.2081 29.4021C57.8993 30.9923 65.6486 30.924 70.8314 26.4146C73.7715 23.8568 75.4976 20.2009 78.057 17.2645C79.7883 15.2783 82.2529 13.6012 84.7712 13.2064C82.2908 15.4338 80.397 18.2347 79.2566 21.3629C77.2373 27.0837 78.3168 33.9526 82.5059 38.3497C86.9967 43.0639 94.0451 44.3203 100.565 44.244L100.702 44.1058C98.7053 41.1262 97.1299 36.9946 99.3278 34.1597C101.498 31.3612 105.777 31.7735 109.1 30.5352C113.728 28.8105 116.412 23.3889 115.575 18.5335Z" fill="#2F2E41"/>
<path d="M161.116 257H0.588016C0.432064 257 0.2825 256.938 0.172225 256.828C0.061951 256.718 0 256.569 0 256.414C0 256.258 0.061951 256.109 0.172225 255.999C0.2825 255.889 0.432064 255.827 0.588016 255.827H161.116C161.272 255.827 161.422 255.889 161.532 255.999C161.642 256.109 161.704 256.258 161.704 256.414C161.704 256.569 161.642 256.718 161.532 256.828C161.422 256.938 161.272 257 161.116 257Z" fill="#CCCCCC"/>
<path d="M217.501 55.3323C216.765 55.3347 216.169 56.2879 216.171 57.4614C216.172 58.6317 216.767 59.5798 217.501 59.5821H280.342C281.078 59.5797 281.674 58.6265 281.672 57.453C281.671 56.2828 281.076 55.3346 280.342 55.3323H217.501Z" fill="white"/>
<path d="M217.501 67.6454C216.765 67.6477 216.169 68.6009 216.171 69.7745C216.172 70.9447 216.767 71.8928 217.501 71.8951H280.342C281.078 71.8928 281.674 70.9396 281.672 69.7661C281.671 68.5958 281.076 67.6477 280.342 67.6454H217.501Z" fill="white"/>
<path d="M217.501 79.8094C216.765 79.8118 216.169 80.765 216.171 81.9385C216.172 83.1088 216.767 84.0569 217.501 84.0592H244.542C245.278 84.0569 245.873 83.1036 245.872 81.9301C245.871 80.7599 245.276 79.8118 244.542 79.8094H217.501Z" fill="white"/>
<path d="M185.594 86.5383C195.012 86.5383 202.646 78.9255 202.646 69.5346C202.646 60.1437 195.012 52.5309 185.594 52.5309C176.176 52.5309 168.542 60.1437 168.542 69.5346C168.542 78.9255 176.176 86.5383 185.594 86.5383Z" fill="white"/>
</g>
<defs>
<clipPath id="clip0_1_647">
<rect width="485" height="257" fill="white"/>
</clipPath>
</defs>
</svg>
