<svg width="20" height="20" viewBox="0 0 20 20" fill="none" xmlns="http://www.w3.org/2000/svg">
<path d="M8.15205 0.276446L9.34005 0.744445C9.76382 0.911285 10.2351 0.911285 10.6588 0.744445L11.8468 0.276446C12.5462 0.00138614 13.325 0.00840161 14.0193 0.296015C14.7136 0.583628 15.2693 1.1294 15.5692 1.81845L16.078 2.98845C16.2597 3.406 16.5929 3.73917 17.0104 3.92085L18.1804 4.42965C18.8698 4.72964 19.4158 5.28547 19.7034 5.98005C19.991 6.67463 19.9979 7.45373 19.7224 8.15325L19.2544 9.34125C19.0879 9.76466 19.0879 10.2354 19.2544 10.6588L19.7224 11.8468C19.9975 12.5462 19.9905 13.325 19.7029 14.0193C19.4153 14.7136 18.8695 15.2693 18.1804 15.5692L17.0104 16.078C16.5928 16.2596 16.2596 16.5928 16.078 17.0104L15.5692 18.1804C15.2693 18.8698 14.7134 19.4158 14.0188 19.7034C13.3243 19.991 12.5452 19.9979 11.8456 19.7224L10.6576 19.2544C10.2342 19.0879 9.76346 19.0879 9.34005 19.2544L8.15205 19.7224C7.45268 19.9975 6.67387 19.9905 5.97957 19.7029C5.28527 19.4153 4.72964 18.8695 4.42965 18.1804L3.92085 17.0104C3.73917 16.5929 3.406 16.2597 2.98845 16.078L1.81845 15.5692C1.12911 15.2693 0.583121 14.7134 0.295485 14.0188C0.00784905 13.3243 0.00102317 12.5452 0.276446 11.8456L0.744445 10.6576C0.91097 10.2342 0.91097 9.76346 0.744445 9.34005L0.276446 8.15205C0.00138614 7.45268 0.00840161 6.67387 0.296015 5.97957C0.583628 5.28527 1.1294 4.72964 1.81845 4.42965L2.98845 3.92085C3.406 3.73917 3.73917 3.406 3.92085 2.98845L4.42965 1.81845C4.72964 1.12911 5.28547 0.583121 5.98005 0.295485C6.67463 0.00784905 7.45373 0.00102317 8.15325 0.276446H8.15205ZM13.1512 7.20045L8.77365 12.1252L6.82365 10.1752C6.71048 10.066 6.55892 10.0055 6.4016 10.0068C6.24429 10.0082 6.0938 10.0713 5.98255 10.1826C5.87131 10.2938 5.80821 10.4443 5.80684 10.6016C5.80547 10.7589 5.86595 10.9105 5.97525 11.0236L8.37525 13.4236C8.43302 13.4814 8.502 13.5268 8.57794 13.557C8.65389 13.5872 8.73519 13.6015 8.81688 13.5992C8.89857 13.5968 8.97891 13.5778 9.05298 13.5433C9.12706 13.5088 9.1933 13.4595 9.24765 13.3984L14.0476 7.99845C14.1535 7.87958 14.2077 7.72354 14.1985 7.56466C14.1893 7.40578 14.1173 7.25707 13.9984 7.15125C13.8796 7.04542 13.7235 6.99116 13.5647 7.00038C13.4058 7.00961 13.2571 7.08158 13.1512 7.20045V7.20045Z" fill="#29CC7A"/>
</svg>
