<svg width="267" height="315" viewBox="0 0 267 315" fill="none" xmlns="http://www.w3.org/2000/svg">
<g clip-path="url(#clip0_1_692)">
<path d="M103.411 258.54C98.0988 253.116 90.3999 250.005 82.2889 250.005L81.976 250.006C76.6335 250.008 71.3863 248.605 66.7712 245.941L66.2909 245.664L66.6777 245.269C68.7718 243.124 70.5204 240.674 71.8622 238.003C70.9092 238.882 69.7726 239.544 68.5328 239.94C67.293 240.337 65.9803 240.459 64.6877 240.297C63.3229 240.136 62.0128 239.671 60.8554 238.937C59.6981 238.203 58.7237 237.22 58.0052 236.06C55.1703 231.506 51.7911 225.045 51.7911 220.123C51.7955 215.963 52.6755 211.849 54.3748 208.044C56.0742 204.238 58.5558 200.826 61.6613 198.022C63.6274 196.267 65.1977 194.122 66.2701 191.726C67.3424 189.33 67.8925 186.737 67.8847 184.116L67.8831 183.743C67.8826 180.293 68.3085 176.855 69.1514 173.507L69.237 173.169L69.5883 173.181C71.8541 173.258 74.1211 173.07 76.3425 172.621C74.2589 172.368 72.2205 171.831 70.2852 171.026L69.9072 170.875L70.0354 170.491C78.8783 165.071 98.8391 167.878 110.425 141.636C119.819 120.357 152.966 160.525 152.966 183.743C152.966 186.112 150.598 189.243 152.371 190.809C171.537 207.736 158.313 218.605 154.143 229.543C153.154 232.138 155.299 234.987 155.299 237.794C155.299 238.271 155.287 238.762 155.263 239.256L155.226 240.014L154.587 239.593C153.322 238.774 152.151 237.822 151.091 236.755C152.19 239.259 152.708 241.975 152.607 244.703C152.506 247.432 151.788 250.103 150.506 252.52C148.498 256.273 146.555 258.96 144.731 260.505C138.889 265.455 131.357 268.008 123.677 267.642C115.997 267.277 108.747 264.021 103.412 258.54H103.411Z" fill="#E6E6E6"/>
<path d="M135.499 315C135.629 315 135.756 314.953 135.854 314.868C135.953 314.783 136.017 314.666 136.036 314.538C136.059 314.378 138.318 298.249 136.289 276.813C134.415 257.016 128.398 228.502 110.373 205.084C110.33 205.028 110.276 204.98 110.215 204.945C110.153 204.909 110.085 204.886 110.014 204.876C109.944 204.867 109.872 204.871 109.803 204.889C109.734 204.907 109.669 204.939 109.612 204.982C109.555 205.024 109.508 205.078 109.472 205.139C109.436 205.2 109.413 205.267 109.403 205.337C109.394 205.407 109.398 205.479 109.417 205.547C109.435 205.615 109.467 205.679 109.51 205.735C127.379 228.951 133.347 257.256 135.208 276.913C137.225 298.224 134.984 314.228 134.961 314.387C134.95 314.463 134.956 314.541 134.978 314.615C135 314.688 135.037 314.757 135.088 314.815C135.14 314.873 135.203 314.92 135.273 314.952C135.344 314.983 135.421 315 135.499 315V315Z" fill="#3F3D56"/>
<path d="M120.79 238.116C120.904 238.116 121.016 238.081 121.109 238.014C121.202 237.947 121.271 237.853 121.306 237.745C121.342 237.637 121.342 237.521 121.306 237.413C121.271 237.305 121.202 237.211 121.109 237.144C115.973 233.703 110.425 230.907 104.592 228.82C95.4791 225.517 81.6216 222.523 67.3557 227.018C67.2876 227.039 67.2244 227.074 67.1698 227.119C67.1151 227.165 67.0701 227.22 67.0372 227.283C67.0044 227.346 66.9843 227.414 66.9783 227.485C66.9722 227.555 66.9802 227.626 67.0018 227.693C67.0235 227.761 67.0583 227.823 67.1044 227.877C67.1505 227.931 67.2068 227.976 67.2703 228.008C67.3337 228.041 67.403 228.06 67.4741 228.066C67.5453 228.072 67.6169 228.064 67.6849 228.042C81.6586 223.64 95.2648 226.584 104.219 229.83C109.958 231.88 115.417 234.629 120.471 238.014C120.563 238.08 120.675 238.116 120.79 238.116Z" fill="#3F3D56"/>
<path d="M145.635 176.856C145.643 176.743 145.615 176.63 145.555 176.534C145.494 176.437 145.404 176.362 145.298 176.32C145.192 176.277 145.075 176.268 144.963 176.296C144.852 176.323 144.752 176.384 144.678 176.471C140.841 181.294 137.624 186.571 135.103 192.181C131.119 200.941 127.104 214.408 130.605 228.818C130.622 228.887 130.652 228.952 130.694 229.009C130.736 229.066 130.789 229.114 130.849 229.151C130.91 229.188 130.978 229.213 131.048 229.224C131.119 229.235 131.191 229.232 131.26 229.216C131.329 229.199 131.395 229.169 131.453 229.128C131.51 229.086 131.559 229.034 131.596 228.974C131.633 228.913 131.658 228.846 131.669 228.777C131.68 228.707 131.677 228.636 131.661 228.567C128.232 214.452 132.178 201.229 136.093 192.622C138.572 187.103 141.735 181.91 145.508 177.164C145.582 177.077 145.627 176.97 145.635 176.856Z" fill="#3F3D56"/>
<path d="M250.342 314.431H207.127L206.942 314.097C206.389 313.105 205.856 312.054 205.357 310.974C200.906 301.54 199.024 290.75 197.364 281.23L196.114 274.054C195.963 273.185 196.077 272.291 196.442 271.487C196.807 270.682 197.406 270.004 198.162 269.538C198.919 269.073 199.799 268.841 200.689 268.874C201.579 268.906 202.439 269.201 203.159 269.72C209.727 274.451 216.297 279.177 222.869 283.899C225.358 285.692 228.2 287.766 230.922 290.008C231.184 288.746 231.459 287.479 231.734 286.23C231.923 285.368 232.368 284.581 233.012 283.971C233.655 283.361 234.468 282.954 235.347 282.804C236.225 282.654 237.129 282.766 237.942 283.127C238.755 283.488 239.441 284.081 239.912 284.831L244.968 292.872C248.656 298.745 251.911 304.532 251.248 310.774C251.251 310.85 251.245 310.926 251.231 311.001C251.098 312.026 250.852 313.034 250.497 314.006L250.342 314.431Z" fill="#F0F0F0"/>
<path d="M230.208 146.242L221.868 115.682C221.511 114.388 220.655 113.286 219.483 112.612C218.312 111.938 216.92 111.747 215.608 112.08C214.929 112.252 214.293 112.56 213.738 112.984C213.183 113.407 212.721 113.938 212.38 114.545C212.039 115.151 211.827 115.82 211.755 116.51C211.684 117.2 211.756 117.897 211.966 118.559L221.612 150.04L226.659 169.414C225.924 169.97 225.379 170.736 225.099 171.608C224.819 172.481 224.818 173.418 225.094 174.291C225.371 175.165 225.913 175.933 226.646 176.492C227.379 177.05 228.267 177.371 229.191 177.412C230.115 177.453 231.029 177.211 231.81 176.72C232.59 176.228 233.198 175.511 233.553 174.665C233.907 173.819 233.989 172.886 233.789 171.992C233.589 171.098 233.115 170.287 232.433 169.669L230.208 146.242Z" fill="#A0616A"/>
<path d="M160.029 139.66L185.369 120.354C186.44 119.533 187.142 118.328 187.324 116.999C187.505 115.669 187.152 114.323 186.339 113.25C185.919 112.695 185.389 112.23 184.782 111.884C184.174 111.538 183.502 111.319 182.805 111.239C182.109 111.158 181.404 111.219 180.733 111.418C180.061 111.616 179.437 111.948 178.9 112.393L153.198 133.247L137.042 145.266C136.242 144.806 135.319 144.601 134.397 144.678C133.476 144.755 132.601 145.112 131.891 145.699C131.181 146.285 130.671 147.074 130.43 147.958C130.189 148.842 130.228 149.778 130.543 150.639C130.858 151.5 131.433 152.244 132.19 152.77C132.947 153.296 133.849 153.579 134.774 153.58C135.699 153.58 136.601 153.299 137.359 152.775C138.117 152.25 138.693 151.507 139.01 150.647L160.029 139.66Z" fill="#A0616A"/>
<path d="M180.682 144.098L179.565 168.794L214.637 161.248C211.652 151.325 209.622 149.632 211.865 142.726L180.682 144.098Z" fill="#A0616A"/>
<path d="M202.247 98.8231H190.561L185.542 107.325L183.151 107.194C181.982 107.13 180.811 107.303 179.711 107.702C178.612 108.101 177.605 108.718 176.755 109.515C175.904 110.312 175.226 111.273 174.763 112.338C174.3 113.403 174.061 114.55 174.061 115.71L177.007 120.231C177.007 120.231 171.738 129.322 179.328 133.795C179.328 133.795 177.975 142.221 179.328 142.131C180.682 142.04 183.801 140.325 180.682 142.04C177.564 143.755 177.797 143.986 178.2 144.385L178.603 144.784L211.392 150.235C211.392 150.235 212.351 143.942 212.455 142.82C212.558 141.697 211.865 144.441 212.558 141.697C213.251 138.953 214.29 139.982 213.251 138.953C212.212 137.924 219.986 125.176 216.792 120.231L221.913 115.286C221.913 110.542 214.217 106.697 209.426 106.697H208.812L202.247 98.8231Z" fill="#E6E6E6"/>
<path d="M174.091 304.91H169.361L167.111 286.849L174.091 286.849L174.091 304.91Z" fill="#A0616A"/>
<path d="M159.815 311.819C159.817 312.344 160.028 312.846 160.403 313.217C160.777 313.589 161.284 313.799 161.814 313.802H170.718L170.994 313.236L172.253 310.663L172.741 313.236L172.849 313.802H176.207L176.159 313.232L175.264 302.601L174.092 302.529L169.03 302.233L167.787 302.157V305.332C166.843 306.325 159.439 310.081 159.815 311.819Z" fill="#2F2E41"/>
<path d="M244.386 292.645L240.408 295.179L228.645 281.194L234.516 277.456L244.386 292.645Z" fill="#A0616A"/>
<path d="M236.155 306.102C236.444 306.542 236.896 306.851 237.414 306.963C237.931 307.075 238.473 306.98 238.92 306.699L246.408 301.93L246.331 301.306L245.984 298.468L247.8 300.37L248.201 300.789L251.025 298.99L250.673 298.536L244.11 290.075L243.086 290.642L238.667 293.104L237.58 293.707L239.315 296.376C239.064 297.717 234.89 304.842 236.155 306.102Z" fill="#2F2E41"/>
<path d="M266.45 314.761L119.99 314.902C119.844 314.902 119.704 314.844 119.601 314.741C119.497 314.638 119.44 314.5 119.44 314.355C119.44 314.21 119.497 314.071 119.601 313.969C119.704 313.866 119.844 313.808 119.99 313.807L266.45 313.666C266.596 313.667 266.736 313.725 266.839 313.827C266.942 313.93 267 314.069 267 314.214C267 314.358 266.942 314.497 266.839 314.6C266.736 314.702 266.596 314.76 266.45 314.761Z" fill="#CACACA"/>
<path d="M214.087 158.459C214.087 158.459 191.669 170.198 179.811 162.189C179.811 162.189 177.218 174.626 176.178 175.655C175.139 176.684 173.483 177.132 174.657 178.28C175.832 179.428 176.485 180.978 174.253 182.947C172.02 184.916 169.794 184.291 171.947 186.318C174.099 188.346 165.437 238.081 165.437 238.081C165.437 238.081 166.823 284.333 165.437 285.732C164.051 287.131 162.199 287.444 163.991 289.174C165.784 290.904 165.784 289.562 165.784 291.948V294.334L166.604 296.705H177.854C177.854 296.705 180.568 293.583 177.854 290.871C175.139 288.16 178.68 287.418 179.508 284.873C180.336 282.329 181.722 285.073 180.336 282.329C178.95 279.585 178.284 280.107 178.271 278.302C178.257 276.498 198.699 205.839 198.699 205.839L201.175 244.948L230.956 287.778L239.722 281.269C239.722 281.269 233.34 272.375 234.832 271.152C236.325 269.929 230.434 268.396 232.291 267.017C234.149 265.637 229.677 264.247 231.363 262.419C233.048 260.59 229.04 255.982 226.718 255.982C224.396 255.982 221.137 248.3 221.137 248.3L226.002 187.614L214.087 158.459Z" fill="#2F2E41"/>
<path d="M190.326 73.8602C190.167 74.0664 188.903 73.9553 187.383 73.7356C184.378 73.3012 183.968 73.8174 181.722 75.8406C178.467 78.7713 180.318 96.6465 178.718 100.52L178.202 100.897C179.226 100.703 180.233 100.424 181.211 100.063C181.763 98.3381 182.316 96.6077 182.874 94.8843C183.4 96.2252 183.731 97.6335 183.856 99.0666C184.63 98.7647 185.399 98.0264 188.632 97.0361C190.259 95.9429 202.036 94.8437 203.55 94.3628C207.392 81.4208 201.2 76.1871 190.326 73.8602Z" fill="#2F2E41"/>
<path d="M194.302 93.8169C200.517 93.8169 205.556 88.829 205.556 82.6761C205.556 76.5232 200.517 71.5353 194.302 71.5353C188.087 71.5353 183.048 76.5232 183.048 82.6761C183.048 88.829 188.087 93.8169 194.302 93.8169Z" fill="#A0616A"/>
<path d="M201.387 72.8782C200.753 72.7856 200.142 72.5737 199.589 72.254C199.314 72.0899 199.092 71.8526 198.947 71.5693C198.802 71.286 198.741 70.9681 198.77 70.6519C198.908 69.8604 199.812 69.3877 200.622 69.4359C201.429 69.551 202.195 69.858 202.856 70.3305C202.783 69.5656 202.453 68.8469 201.918 68.29C201.384 67.7331 200.675 67.3703 199.907 67.2598C200.973 67.203 202.08 67.1528 203.065 67.5585C204.051 67.9642 204.872 68.9686 204.694 70.0102C206.35 69.7989 207.984 70.9414 208.667 72.4497C209.351 73.958 209.216 75.7293 208.669 77.2916C208.615 77.5309 208.51 77.7559 208.361 77.9514C208.211 78.1468 208.021 78.3082 207.803 78.4246C207.246 78.6341 206.646 78.2829 206.163 77.9367C203.64 76.1282 201.344 74.0287 199.323 71.6824" fill="#2F2E41"/>
<path d="M206.294 94.5205C205.817 94.7428 206.065 95.5701 205.694 95.9405C205.534 96.0974 205.339 96.2169 205.126 96.2904C205.07 95.5999 204.908 94.9221 204.645 94.2804C204.596 94.1638 204.516 94.0334 204.392 94.0437C204.246 94.0609 204.208 94.2495 204.205 94.3901C204.175 95.0878 204.019 95.7745 203.744 96.4173C203.74 96.4242 203.737 96.4344 203.733 96.4413C203.626 96.4379 203.515 96.4344 203.411 96.431C202.607 96.4001 200.826 94.3559 200.431 95.0487C201.824 92.6031 203.522 88.9261 203.782 86.1306C203.872 85.5454 203.828 84.9475 203.654 84.3813C203.563 84.0996 203.392 83.8496 203.161 83.6612C202.931 83.4727 202.651 83.3536 202.354 83.318C202.208 83.3114 202.062 83.3369 201.927 83.3926C201.792 83.4484 201.67 83.5331 201.572 83.6406C201.474 83.7481 201.401 83.8757 201.358 84.0145C201.315 84.1532 201.304 84.2995 201.325 84.4431L201.124 84.4156C199.26 82.9133 200.868 80.303 198.699 79.2706C197.965 78.9207 193.467 80.0903 192.674 79.8845C192.657 79.0571 192.487 78.2398 192.171 77.4732C192.123 77.3566 192.043 77.2262 191.919 77.2365C191.773 77.2537 191.735 77.4423 191.731 77.583C191.702 78.2806 191.546 78.9673 191.271 79.6101C190.171 79.4558 189.052 79.514 187.976 79.7816C187.026 80.0286 186.125 80.4539 185.173 80.6803C184.702 80.8232 184.206 80.8695 183.716 80.8164C183.227 80.7633 182.753 80.612 182.325 80.3716C181.115 79.569 180.904 77.7922 181.507 76.4819C181.943 75.6411 182.533 74.8876 183.246 74.2593C183.79 73.7379 184.355 73.2371 184.92 72.7363C185.426 72.287 185.931 71.8376 186.437 71.3883C187.074 70.795 187.753 70.2471 188.468 69.7488C189.609 69.0079 190.892 68.5059 192.237 68.2735C193.581 68.0411 194.96 68.0832 196.288 68.3973C197.881 68.7746 200.012 68.243 201.471 68.9804C202.233 69.368 203.92 70.8532 204.589 71.3814C206.301 72.7295 205.142 71.6311 207.014 72.4104C211.478 74.2689 209.504 93.0242 206.294 94.5205Z" fill="#2F2E41"/>
<path d="M81.6909 175.836C120.235 175.836 151.481 144.903 151.481 106.745C151.481 68.5872 120.235 37.6542 81.6909 37.6542C43.1467 37.6542 11.9005 68.5872 11.9005 106.745C11.9005 144.903 43.1467 175.836 81.6909 175.836Z" fill="white"/>
<path d="M81.691 176.526C42.8243 176.526 11.2039 145.222 11.2039 106.745C11.2039 68.268 42.8243 36.9645 81.691 36.9645C120.558 36.9645 152.178 68.268 152.178 106.745C152.178 145.222 120.558 176.526 81.691 176.526ZM81.691 38.3438C43.5926 38.3438 12.5972 69.0286 12.5972 106.745C12.5972 144.462 43.5926 175.146 81.691 175.146C119.789 175.146 150.785 144.462 150.785 106.745C150.785 69.0286 119.789 38.3438 81.691 38.3438Z" fill="#BF13BF"/>
<path d="M72.1701 142.704C70.9649 142.704 69.7763 142.426 68.6984 141.892C67.6205 141.359 66.683 140.584 65.9601 139.629L46.9202 114.496C46.3086 113.689 45.8636 112.77 45.6106 111.793C45.3576 110.815 45.3016 109.798 45.4458 108.798C45.59 107.799 45.9316 106.838 46.451 105.97C46.9705 105.101 47.6576 104.343 48.4732 103.737C49.2888 103.132 50.2169 102.691 51.2044 102.441C52.192 102.19 53.2197 102.135 54.2289 102.278C55.2382 102.42 56.2091 102.758 57.0863 103.273C57.9635 103.787 58.7298 104.467 59.3414 105.275L71.798 121.716L103.791 74.2077C104.934 72.513 106.709 71.337 108.728 70.938C110.746 70.539 112.842 70.9498 114.554 72.08C116.267 73.2102 117.456 74.9674 117.86 76.9652C118.264 78.963 117.851 81.038 116.71 82.734L78.6302 139.281C77.9414 140.304 77.0149 141.148 75.9285 141.743C74.842 142.338 73.6273 142.667 72.3862 142.701C72.3141 142.703 72.2421 142.704 72.1701 142.704Z" fill="#BF13BF"/>
<path d="M153.596 41.9709C153.79 40.65 152.392 39.3552 150.474 39.0789C148.556 38.8026 146.844 39.6495 146.65 40.9704C146.455 42.2913 147.853 43.5861 149.771 43.8624C151.689 44.1387 153.401 43.2918 153.596 41.9709Z" fill="#E6E6E6"/>
<path d="M176.432 39.765C176.626 38.4441 175.228 37.1493 173.31 36.873C171.392 36.5968 169.68 37.4436 169.486 38.7645C169.292 40.0854 170.689 41.3802 172.607 41.6565C174.525 41.9328 176.238 41.0859 176.432 39.765Z" fill="#3F3D56"/>
<path d="M147.342 23.6684C147.536 22.3475 146.139 21.0527 144.221 20.7764C142.302 20.5002 140.59 21.347 140.396 22.6679C140.202 23.9889 141.599 25.2837 143.517 25.5599C145.436 25.8362 147.148 24.9893 147.342 23.6684Z" fill="#FF6584"/>
<path d="M137.419 16.1713C137.428 14.9586 136.745 13.9704 135.893 13.964C135.041 13.9576 134.343 14.9355 134.333 16.1482C134.324 17.3608 135.007 18.349 135.859 18.3554C136.712 18.3618 137.41 17.3839 137.419 16.1713Z" fill="#E6E6E6"/>
<path d="M134.054 2.20726C134.063 0.994602 133.38 0.00637105 132.528 -7.98841e-06C131.676 -0.00638703 130.977 0.971501 130.968 2.18416C130.959 3.39682 131.642 4.38505 132.494 4.39143C133.346 4.39781 134.045 3.41992 134.054 2.20726Z" fill="#3F3D56"/>
<path d="M160.222 26.7829C160.231 25.5703 159.548 24.5821 158.696 24.5757C157.844 24.5693 157.146 25.5472 157.136 26.7598C157.127 27.9725 157.81 28.9607 158.662 28.9671C159.515 28.9735 160.213 27.9956 160.222 26.7829Z" fill="#E6E6E6"/>
<path d="M149.187 32.2377C149.196 31.025 148.513 30.0368 147.66 30.0304C146.808 30.024 146.11 31.0019 146.101 32.2146C146.091 33.4272 146.775 34.4154 147.627 34.4218C148.479 34.4282 149.177 33.4503 149.187 32.2377Z" fill="#FF6584"/>
<path d="M164.549 42.3194C164.558 41.1067 163.875 40.1185 163.022 40.1121C162.17 40.1057 161.472 41.0836 161.463 42.2963C161.453 43.5089 162.137 44.4971 162.989 44.5035C163.841 44.5099 164.539 43.532 164.549 42.3194Z" fill="#3F3D56"/>
<path d="M22.6274 205.65C22.8215 204.329 21.424 203.034 19.506 202.758C17.5879 202.481 15.8757 203.328 15.6815 204.649C15.4874 205.97 16.8849 207.265 18.8029 207.541C20.721 207.817 22.4333 206.97 22.6274 205.65Z" fill="#E6E6E6"/>
<path d="M45.4639 203.443C45.6581 202.122 44.2605 200.828 42.3425 200.551C40.4244 200.275 38.7122 201.122 38.518 202.443C38.3239 203.764 39.7214 205.059 41.6395 205.335C43.5575 205.611 45.2698 204.764 45.4639 203.443Z" fill="#3F3D56"/>
<path d="M16.3741 187.347C16.5682 186.026 15.1707 184.731 13.2527 184.455C11.3346 184.179 9.62235 185.025 9.42821 186.346C9.23408 187.667 10.6316 188.962 12.5496 189.238C14.4677 189.515 16.18 188.668 16.3741 187.347Z" fill="#FF6584"/>
<path d="M6.45104 179.85C6.4603 178.637 5.77702 177.649 4.92489 177.643C4.07276 177.636 3.37445 178.614 3.36519 179.827C3.35593 181.039 4.03922 182.028 4.89135 182.034C5.74348 182.04 6.44178 181.062 6.45104 179.85Z" fill="#E6E6E6"/>
<path d="M3.08594 165.886C3.0952 164.673 2.41193 163.685 1.5598 163.679C0.707667 163.672 0.00937177 164.65 0.000109057 165.863C-0.00915366 167.075 0.674123 168.064 1.52625 168.07C2.37838 168.076 3.07668 167.099 3.08594 165.886Z" fill="#3F3D56"/>
<path d="M29.2541 190.462C29.2633 189.249 28.5801 188.261 27.7279 188.254C26.8758 188.248 26.1775 189.226 26.1683 190.438C26.159 191.651 26.8423 192.639 27.6944 192.646C28.5465 192.652 29.2448 191.674 29.2541 190.462Z" fill="#E6E6E6"/>
<path d="M18.2185 195.916C18.2278 194.704 17.5445 193.715 16.6923 193.709C15.8402 193.703 15.1419 194.68 15.1326 195.893C15.1234 197.106 15.8067 198.094 16.6588 198.1C17.5109 198.107 18.2092 197.129 18.2185 195.916Z" fill="#FF6584"/>
<path d="M33.5804 205.998C33.5897 204.785 32.9064 203.797 32.0543 203.791C31.2021 203.784 30.5039 204.762 30.4946 205.975C30.4853 207.187 31.1686 208.176 32.0207 208.182C32.8729 208.188 33.5712 207.211 33.5804 205.998Z" fill="#3F3D56"/>
</g>
<defs>
<clipPath id="clip0_1_692">
<rect width="267" height="315" fill="white"/>
</clipPath>
</defs>
</svg>
