<svg width="24" height="26" viewBox="0 0 24 26" fill="none" xmlns="http://www.w3.org/2000/svg">
<path d="M11.9998 0.199951C10.3024 0.199951 8.67455 0.874235 7.47432 2.07447C6.27409 3.2747 5.59981 4.90257 5.5998 6.59995C5.59981 8.29734 6.27409 9.9252 7.47432 11.1254C8.67455 12.3257 10.3024 13 11.9998 13C13.6972 13 15.3251 12.3257 16.5253 11.1254C17.7255 9.9252 18.3998 8.29734 18.3998 6.59995C18.3998 4.90257 17.7255 3.2747 16.5253 2.07447C15.3251 0.874235 13.6972 0.199951 11.9998 0.199951ZM4.0142 14.6C3.59282 14.5983 3.17525 14.6798 2.78544 14.8398C2.39563 14.9999 2.04125 15.2353 1.74262 15.5326C1.44399 15.8299 1.20698 16.1832 1.04519 16.5723C0.883401 16.9614 0.800012 17.3786 0.799805 17.7999C0.799805 20.5056 2.13261 22.5456 4.21581 23.8752C6.26701 25.1824 9.03181 25.7999 11.9998 25.7999C14.9678 25.7999 17.7326 25.1824 19.7838 23.8752C21.867 22.5472 23.1998 20.504 23.1998 17.7999C23.1998 16.9513 22.8627 16.1373 22.2625 15.5372C21.6624 14.9371 20.8485 14.6 19.9998 14.6H4.0142Z" fill="#DBD3EB"/>
</svg>
