<svg width="30" height="31" viewBox="0 0 30 31" fill="none" xmlns="http://www.w3.org/2000/svg">
<path d="M13.4557 1.36592C13.9066 1.04592 14.4458 0.874023 14.9987 0.874023C15.5516 0.874023 16.0909 1.04592 16.5417 1.36592L28.2457 9.66992C29.6997 10.7019 28.9717 12.9939 27.1897 12.9979H2.81374C1.02574 12.9979 0.293736 10.7039 1.75374 9.66992L13.4557 1.36592ZM14.9997 8.74792C15.4419 8.74792 15.8659 8.57229 16.1785 8.25967C16.4911 7.94705 16.6667 7.52304 16.6667 7.08092C16.6667 6.63881 16.4911 6.2148 16.1785 5.90218C15.8659 5.58955 15.4419 5.41392 14.9997 5.41392C14.5576 5.41392 14.1336 5.58955 13.821 5.90218C13.5084 6.2148 13.3327 6.63881 13.3327 7.08092C13.3327 7.52304 13.5084 7.94705 13.821 8.25967C14.1336 8.57229 14.5576 8.74792 14.9997 8.74792ZM3.99974 14.9999V22.9999H7.99974V14.9999H3.99974ZM0.999736 29.3319C0.999736 26.9379 2.93974 24.9979 5.33174 24.9979H24.6657C25.815 24.9984 26.9171 25.4552 27.7298 26.2679C28.5424 27.0806 28.9992 28.1826 28.9997 29.3319V29.9979C28.9997 30.2631 28.8944 30.5175 28.7068 30.705C28.5193 30.8926 28.265 30.9979 27.9997 30.9979H1.99974C1.73452 30.9979 1.48017 30.8926 1.29263 30.705C1.10509 30.5175 0.999736 30.2631 0.999736 29.9979V29.3319ZM25.9997 14.9979V22.9979H21.9997V14.9999H25.9997V14.9979ZM19.9997 14.9979V22.9979H15.9997V14.9999H19.9997V14.9979ZM13.9997 14.9979V22.9979H9.99974V14.9999H13.9997V14.9979Z" fill="white"/>
</svg>
