<svg width="30" height="22" viewBox="0 0 30 22" fill="none" xmlns="http://www.w3.org/2000/svg">
<path d="M0 4C0 2.93913 0.421427 1.92172 1.17157 1.17157C1.92172 0.421427 2.93913 0 4 0H26C27.0609 0 28.0783 0.421427 28.8284 1.17157C29.5786 1.92172 30 2.93913 30 4V7H0V4ZM0 9H30V18C30 19.0609 29.5786 20.0783 28.8284 20.8284C28.0783 21.5786 27.0609 22 26 22H4C2.93913 22 1.92172 21.5786 1.17157 20.8284C0.421427 20.0783 0 19.0609 0 18V9ZM22 17C21.7348 17 21.4804 17.1054 21.2929 17.2929C21.1054 17.4804 21 17.7348 21 18C21 18.2652 21.1054 18.5196 21.2929 18.7071C21.4804 18.8946 21.7348 19 22 19H26C26.2652 19 26.5196 18.8946 26.7071 18.7071C26.8946 18.5196 27 18.2652 27 18C27 17.7348 26.8946 17.4804 26.7071 17.2929C26.5196 17.1054 26.2652 17 26 17H22Z" fill="white"/>
</svg>
