<svg width="28" height="32" viewBox="0 0 28 32" fill="none" xmlns="http://www.w3.org/2000/svg">
<path d="M27.445 6.32107C27.6192 6.46435 27.7595 6.64452 27.8556 6.84857C27.9518 7.05263 28.0014 7.27549 28.001 7.50107C28.0021 7.69729 27.9638 7.89173 27.8882 8.07281C27.8126 8.25389 27.7013 8.4179 27.561 8.55507L21.545 14.5631C21.2638 14.844 20.8825 15.0018 20.485 15.0018C20.0875 15.0018 19.7063 14.844 19.425 14.5631C19.2854 14.4241 19.1747 14.2589 19.0991 14.077C19.0236 13.8951 18.9847 13.7 18.9847 13.5031C18.9847 13.3061 19.0236 13.1111 19.0991 12.9292C19.1747 12.7473 19.2854 12.5821 19.425 12.4431L22.889 9.00107H1.501C1.10318 9.00107 0.721646 8.84303 0.440341 8.56173C0.159037 8.28042 0.00100144 7.89889 0.00100144 7.50107C0.00100144 7.10324 0.159037 6.72171 0.440341 6.44041C0.721646 6.1591 1.10318 6.00107 1.501 6.00107H22.869L19.433 2.55706C19.2937 2.41811 19.1832 2.25304 19.1079 2.07132C19.0325 1.88961 18.9937 1.6948 18.9937 1.49807C18.9937 1.30133 19.0325 1.10652 19.1079 0.924805C19.1832 0.743086 19.2937 0.578024 19.433 0.439064C19.7143 0.158163 20.0955 0.000385285 20.493 0.000385285C20.8905 0.000385285 21.2718 0.158163 21.553 0.439064L27.445 6.32307V6.32107ZM0.557002 23.3211C0.382773 23.4644 0.242523 23.6445 0.146373 23.8486C0.0502232 24.0526 0.00057175 24.2755 0.00100144 24.5011C-0.000143215 24.6973 0.0382243 24.8917 0.113817 25.0728C0.18941 25.2539 0.300682 25.4179 0.441002 25.5551L6.457 31.5611C6.73825 31.842 7.1195 31.9998 7.517 31.9998C7.9145 31.9998 8.29575 31.842 8.577 31.5611C8.71657 31.4221 8.82731 31.2569 8.90288 31.075C8.97844 30.8931 9.01734 30.698 9.01734 30.5011C9.01734 30.3041 8.97844 30.1091 8.90288 29.9272C8.82731 29.7453 8.71657 29.5801 8.577 29.4411L5.115 26.0011H26.501C26.8988 26.0011 27.2804 25.843 27.5617 25.5617C27.843 25.2804 28.001 24.8989 28.001 24.5011C28.001 24.1032 27.843 23.7217 27.5617 23.4404C27.2804 23.1591 26.8988 23.0011 26.501 23.0011H5.133L8.569 19.5571C8.70827 19.4181 8.81876 19.253 8.89415 19.0713C8.96953 18.8896 9.00834 18.6948 9.00834 18.4981C9.00834 18.3013 8.96953 18.1065 8.89415 17.9248C8.81876 17.7431 8.70827 17.578 8.569 17.4391C8.28775 17.1582 7.9065 17.0004 7.509 17.0004C7.1115 17.0004 6.73025 17.1582 6.449 17.4391L0.555001 23.3231L0.557002 23.3211Z" fill="white"/>
</svg>
