<svg width="28" height="28" viewBox="0 0 28 28" fill="none" xmlns="http://www.w3.org/2000/svg">
<path d="M0 3C0 2.20435 0.316071 1.44129 0.87868 0.87868C1.44129 0.316071 2.20435 0 3 0H23C23.7956 0 24.5587 0.316071 25.1213 0.87868C25.6839 1.44129 26 2.20435 26 3V4.17C26.5852 4.37688 27.0917 4.76016 27.4499 5.26702C27.8081 5.77387 28.0003 6.37935 28 7V25C28 25.7956 27.6839 26.5587 27.1213 27.1213C26.5587 27.6839 25.7956 28 25 28H5C3.67392 28 2.40215 27.4732 1.46447 26.5355C0.526784 25.5979 0 24.3261 0 23V3ZM2 3C2 3.26522 2.10536 3.51957 2.29289 3.70711C2.48043 3.89464 2.73478 4 3 4H24V3C24 2.73478 23.8946 2.48043 23.7071 2.29289C23.5196 2.10536 23.2652 2 23 2H3C2.73478 2 2.48043 2.10536 2.29289 2.29289C2.10536 2.48043 2 2.73478 2 3ZM23 16H21C20.7348 16 20.4804 16.1054 20.2929 16.2929C20.1054 16.4804 20 16.7348 20 17C20 17.2652 20.1054 17.5196 20.2929 17.7071C20.4804 17.8946 20.7348 18 21 18H23C23.2652 18 23.5196 17.8946 23.7071 17.7071C23.8946 17.5196 24 17.2652 24 17C24 16.7348 23.8946 16.4804 23.7071 16.2929C23.5196 16.1054 23.2652 16 23 16Z" fill="white"/>
</svg>
