<svg width="16" height="16" viewBox="0 0 16 16" fill="none" xmlns="http://www.w3.org/2000/svg">
<path d="M8.0001 4.87407C8.22115 4.87407 8.43316 4.78626 8.58947 4.62995C8.74578 4.47363 8.8336 4.26163 8.8336 4.04057C8.8336 3.81952 8.74578 3.60751 8.58947 3.4512C8.43316 3.29489 8.22115 3.20707 8.0001 3.20707C7.77904 3.20707 7.56703 3.29489 7.41072 3.4512C7.25441 3.60751 7.1666 3.81952 7.1666 4.04057C7.1666 4.26163 7.25441 4.47363 7.41072 4.62995C7.56703 4.78626 7.77904 4.87407 8.0001 4.87407ZM14.0001 12.3401V7.00007H14.0921C14.9851 7.00007 15.3521 5.85207 14.6221 5.33507L8.7721 1.18307C8.54656 1.02285 8.27675 0.936768 8.0001 0.936768C7.72344 0.936768 7.45363 1.02285 7.2281 1.18307L1.3761 5.33507C0.648095 5.85207 1.0131 6.99907 1.9061 6.99907H2.0001V12.3391C1.3991 12.7251 1.0001 13.3991 1.0001 14.1661V15.4991C1.0001 15.6317 1.05277 15.7589 1.14654 15.8526C1.24031 15.9464 1.36749 15.9991 1.5001 15.9991H14.5001C14.6327 15.9991 14.7599 15.9464 14.8536 15.8526C14.9474 15.7589 15.0001 15.6317 15.0001 15.4991V14.1661C15.0001 13.3991 14.6021 12.7251 14.0001 12.3401ZM7.8061 1.99907C7.86237 1.95921 7.92963 1.93779 7.9986 1.93779C8.06756 1.93779 8.13482 1.95921 8.1911 1.99907L13.8301 5.99907H2.1681L7.8071 1.99907H7.8061ZM12.9981 6.99907V12.0051C12.9429 12.001 12.8875 11.999 12.8321 11.9991H10.9981V7.00007H12.9981V6.99907ZM3.0001 12.0051V7.00007H5.0001V12.0001H3.1661C3.1101 12.0001 3.0541 12.0021 2.9991 12.0061L3.0001 12.0051ZM3.1671 12.9991H12.8341C13.4781 12.9991 14.0001 13.5211 14.0001 14.1661V14.9991H2.0001V14.1661C2.0001 13.5211 2.5231 12.9991 3.1671 12.9991ZM7.5001 11.9991H6.0001V7.00007H7.5001V12.0001V11.9991ZM8.5001 11.9991V7.00007H10.0001V12.0001H8.5001V11.9991Z" fill="#333333"/>
</svg>
