<svg width="16" height="12" viewBox="0 0 16 12" fill="none" xmlns="http://www.w3.org/2000/svg">
<path d="M11.5 9C11.3674 9 11.2402 9.05268 11.1464 9.14645C11.0527 9.24021 11 9.36739 11 9.5C11 9.63261 11.0527 9.75979 11.1464 9.85355C11.2402 9.94732 11.3674 10 11.5 10H13.5C13.6326 10 13.7598 9.94732 13.8536 9.85355C13.9473 9.75979 14 9.63261 14 9.5C14 9.36739 13.9473 9.24021 13.8536 9.14645C13.7598 9.05268 13.6326 9 13.5 9H11.5ZM0 2.5C0 1.83696 0.263392 1.20107 0.732233 0.732233C1.20107 0.263392 1.83696 0 2.5 0H13.5C14.163 0 14.7989 0.263392 15.2678 0.732233C15.7366 1.20107 16 1.83696 16 2.5V9.5C16 10.163 15.7366 10.7989 15.2678 11.2678C14.7989 11.7366 14.163 12 13.5 12H2.5C1.83696 12 1.20107 11.7366 0.732233 11.2678C0.263392 10.7989 0 10.163 0 9.5V2.5ZM1 9.5C1 9.89782 1.15804 10.2794 1.43934 10.5607C1.72064 10.842 2.10218 11 2.5 11H13.5C13.8978 11 14.2794 10.842 14.5607 10.5607C14.842 10.2794 15 9.89782 15 9.5V5H1V9.5ZM15 2.5C15 2.10218 14.842 1.72064 14.5607 1.43934C14.2794 1.15804 13.8978 1 13.5 1H2.5C2.10218 1 1.72064 1.15804 1.43934 1.43934C1.15804 1.72064 1 2.10218 1 2.5V4H15V2.5Z" fill="#333333"/>
</svg>
