<svg width="14" height="14" viewBox="0 0 14 14" fill="none" xmlns="http://www.w3.org/2000/svg">
<path d="M14 11.5C14 12.163 13.7366 12.7989 13.2678 13.2678C12.7989 13.7366 12.163 14 11.5 14H2.5C1.83696 14 1.20107 13.7366 0.732233 13.2678C0.263392 12.7989 0 12.163 0 11.5V2.5C0 1.83696 0.263392 1.20107 0.732233 0.732233C1.20107 0.263392 1.83696 0 2.5 0H11.5C12.163 0 12.7989 0.263392 13.2678 0.732233C13.7366 1.20107 14 1.83696 14 2.5V11.5ZM13 11.5V2.5C13 2.10218 12.842 1.72064 12.5607 1.43934C12.2794 1.15804 11.8978 1 11.5 1H2.5C2.10218 1 1.72064 1.15804 1.43934 1.43934C1.15804 1.72064 1 2.10218 1 2.5V11.5C1 11.8978 1.15804 12.2794 1.43934 12.5607C1.72064 12.842 2.10218 13 2.5 13H11.5C11.8978 13 12.2794 12.842 12.5607 12.5607C12.842 12.2794 13 11.8978 13 11.5ZM11 3.5C11 3.61703 10.959 3.73036 10.8841 3.82026C10.8092 3.91016 10.7051 3.97094 10.59 3.992L10.5 4H3.5C3.37505 4.00023 3.25455 3.95367 3.16222 3.86949C3.06988 3.78531 3.01241 3.66961 3.00112 3.54518C2.98984 3.42074 3.02554 3.29659 3.10122 3.19717C3.1769 3.09775 3.28705 3.03026 3.41 3.008L3.5 3H10.5C10.6326 3 10.7598 3.05268 10.8536 3.14645C10.9473 3.24021 11 3.36739 11 3.5ZM11 7C11 7.11703 10.959 7.23036 10.8841 7.32026C10.8092 7.41016 10.7051 7.47093 10.59 7.492L10.5 7.5H3.5C3.37505 7.50023 3.25455 7.45367 3.16222 7.36949C3.06988 7.28531 3.01241 7.16961 3.00112 7.04518C2.98984 6.92074 3.02554 6.79659 3.10122 6.69717C3.1769 6.59775 3.28705 6.53026 3.41 6.508L3.5 6.5H10.5C10.6326 6.5 10.7598 6.55268 10.8536 6.64645C10.9473 6.74021 11 6.86739 11 7ZM11 10.5C11 10.617 10.959 10.7304 10.8841 10.8203C10.8092 10.9102 10.7051 10.9709 10.59 10.992L10.5 11H3.5C3.37505 11.0002 3.25455 10.9537 3.16222 10.8695C3.06988 10.7853 3.01241 10.6696 3.00112 10.5452C2.98984 10.4207 3.02554 10.2966 3.10122 10.1972C3.1769 10.0977 3.28705 10.0303 3.41 10.008L3.5 10H10.5C10.6326 10 10.7598 10.0527 10.8536 10.1464C10.9473 10.2402 11 10.3674 11 10.5Z" fill="#333333"/>
</svg>
